<?xml version="1.0" encoding="UTF-8"?> <svg xmlns="http://www.w3.org/2000/svg" width="336" height="256" viewBox="0 0 336 256" fill="none"> <path d="M258.42 189.623C258.42 189.623 193.295 208.765 152.631 206.731C111.967 204.697 72.8583 205.638 54.6672 190.565C36.4761 175.491 36.6093 163.278 44.8877 145.22C53.1661 127.162 87.5231 91.4462 107.482 80.1834C127.441 68.9205 175.237 50.0366 215.163 53.8382C255.089 57.6399 266.352 72.1715 273.414 84.6601C280.475 97.1487 286.719 112.142 282.989 132.039C282.98 132.048 279.551 178.218 258.42 189.623Z" fill="#9CD1C2"></path> <path d="M272.731 64.7015C272.305 64.6748 280.743 73.122 284.616 82.0843C288.489 91.0466 289.164 104.352 293.374 102.727C297.584 101.101 297.851 84.2605 292.424 76.7904C286.996 69.3203 280.441 65.19 272.731 64.7015Z" fill="#9CD1C2"></path> <path d="M127.043 51.8042C127.043 51.8042 131.928 43.7923 139.807 45.6931C147.685 47.5939 145.643 54.7886 137.773 56.2809C129.903 57.7731 124.867 57.7731 127.043 51.8042Z" fill="#9CD1C2"></path> <path d="M93.0932 70.537C93.0932 70.537 63.2218 91.3129 56.8353 99.5913C50.4489 107.87 49.232 115.34 52.7583 113.581C56.2846 111.822 75.435 93.4891 83.3048 87.1027C91.1746 80.7163 112.075 66.6022 110.991 63.2091C109.925 59.816 93.0932 70.537 93.0932 70.537Z" fill="#9CD1C2"></path> <path d="M30.5 167.622C34.3371 178.618 35.4119 185.599 42.1803 192.812C51.2759 202.512 75.6047 207.139 74.7786 209.848C73.9526 212.557 43.9479 209.031 35.1188 196.951C26.2897 184.871 28.0751 160.684 30.5 167.622Z" fill="#9CD1C2"></path> <path d="M146.059 122.952C146.059 128.282 145.171 127.393 145.171 127.393H139.842L139.682 127.482C137.381 123.645 134.024 119.026 130.959 118.511C125.63 117.623 119.412 121.176 119.412 121.176C118.044 121.86 117.201 123.609 117.298 125.599L116.748 125.617H115.158H94.5416L93.6533 121.176C93.6533 121.176 99.3292 113.883 110.53 107.852C122.077 101.634 126.518 100.746 131.848 101.634C137.177 102.523 146.059 117.623 146.059 122.952Z" fill="white"></path> <path d="M253.092 124.284L153.609 125.173L143.839 102.079C144.283 100.746 163.824 98.9697 170.042 98.9697C176.26 98.9697 206.46 97.1932 218.007 100.746C229.554 104.299 253.092 124.284 253.092 124.284Z" fill="white"></path> <path d="M278.301 163.278V169.052L238.996 169.327L239.263 162.976L278.301 163.278Z" fill="white"></path> <path d="M287.129 153.712C287.804 160.978 283.123 177.606 283.123 177.606L234.243 179.444L224.393 154.387C224.393 154.387 220.183 147.601 229.287 147.059C229.287 147.059 279.588 146.375 281.285 146.544C282.99 146.713 286.445 146.446 287.129 153.712ZM278.3 169.052V163.278L239.262 162.976L238.996 169.327L278.3 169.052Z" fill="#C7C7C7"></path> <path d="M81.4236 175.029L83.2712 186.674C83.2712 186.674 79.5494 191.764 77.8174 185.191L81.4236 175.029Z" fill="#090909"></path> <path d="M86.6839 164.877L82.5625 167.63V154.929C85.6625 155.32 86.6839 164.877 86.6839 164.877Z" fill="#090909"></path> <path d="M79.044 154.929L80.4741 168.172L76.4326 163.651C77.4186 156.901 79.044 154.929 79.044 154.929Z" fill="#090909"></path> <path d="M80.4718 172.036L77.0076 181.274C77.0076 181.274 75.3733 172.72 75.8352 168.394L80.4718 172.036Z" fill="#090909"></path> <path d="M86.3713 169.851C86.9397 173.608 84.6481 180.101 84.6481 180.101L82.916 172.214L86.3713 169.851Z" fill="#090909"></path> <path d="M157.12 179.622L151.346 192.812C151.346 192.812 148.362 187.047 148.157 179.035L157.12 179.622Z" fill="#090909"></path> <path d="M159.438 181.682L166.144 190.982C166.144 190.982 162.28 197.307 155.219 194.784L159.438 181.682Z" fill="#090909"></path> <path d="M169.678 170.135C169.678 170.135 170.087 182.358 168.453 188.469L161.897 177.881L169.678 170.135Z" fill="#090909"></path> <path d="M167.503 164.3L160.583 171.432L159.438 158.393C164.953 157.443 167.503 164.3 167.503 164.3Z" fill="#090909"></path> <path d="M154.473 159.823L157.661 173.138L148.157 172.241C148.157 172.241 148.29 169.185 149.721 166.13C151.142 163.083 154.473 159.823 154.473 159.823Z" fill="#090909"></path> <path d="M172.965 180.519C172.965 180.519 171.038 190.574 166.623 196.143C162.209 201.712 154.268 201.917 150.129 196.143C146.016 190.414 145.732 178.627 145.972 173.226C145.998 172.729 146.025 172.285 146.052 171.903C146.389 167.426 149.853 156.226 155.831 154.662C161.8 153.108 165.531 157.398 165.531 157.398H165.539C169.261 166.076 172.086 177.401 172.965 180.519ZM168.453 188.469C170.087 182.358 169.679 170.135 169.679 170.135L161.898 177.881L168.453 188.469ZM160.583 171.432L167.503 164.3C167.503 164.3 164.953 157.442 159.437 158.393L160.583 171.432ZM166.144 190.982L159.437 181.682L155.218 194.784C162.28 197.307 166.144 190.982 166.144 190.982ZM157.661 173.138L154.472 159.823C154.472 159.823 151.141 163.083 149.72 166.129C148.29 169.185 148.157 172.241 148.157 172.241L157.661 173.138ZM151.345 192.812L157.119 179.622L148.157 179.036C148.361 187.047 151.345 192.812 151.345 192.812Z" fill="#C7C7C7"></path> <path d="M89.8975 169.851C89.8975 169.851 90.5459 179.355 89.6576 185.573C88.9826 190.307 85.5096 195.228 80.4732 194.837C78.4303 194.269 77.0713 193.123 76.3341 190.903C74.8507 186.452 73.3585 176.806 72.7811 170.473C72.7722 170.42 72.7722 170.375 72.7633 170.313C72.7633 170.251 72.7545 170.189 72.7456 170.118C72.7189 169.78 72.6923 169.452 72.6656 169.132C72.6567 168.919 72.639 168.688 72.6212 168.43C72.5946 168.146 72.5857 167.871 72.5679 167.613C72.559 167.462 72.559 167.311 72.5502 167.169C72.3192 161.191 75.4458 152.708 78.1105 150.932C80.7752 149.155 84.044 150.87 84.044 150.87C84.1594 151.198 84.2571 151.518 84.3282 151.82C84.4703 152.38 84.6924 153.25 84.9944 154.325H84.9855C84.9855 154.325 80.1979 151.065 77.9595 153.774C75.7123 156.492 73.8115 168.848 75.3126 178.627C76.8048 188.398 79.1142 193.354 83.1202 188.948C87.1262 184.534 88.0766 166.201 88.0766 166.201L88.5562 166.094C89.0003 167.418 89.4533 168.688 89.8975 169.851Z" fill="#808080"></path> <path d="M175.115 185.404L174.929 185.573C174.929 185.573 174.04 192.679 170.488 198.008C167.334 202.743 163.764 205.745 156.471 204.981C153.558 204.244 151.035 203.107 149.17 201.561C145.315 198.346 144.098 192.022 143.769 185.688C143.769 185.671 143.769 185.662 143.769 185.644C143.734 183.921 143.698 181.469 143.698 178.662C143.698 178.654 143.698 178.636 143.698 178.627C143.698 176.406 143.725 173.973 143.787 171.494H143.867C143.849 172.036 143.84 172.578 143.84 173.138L145.972 173.226C145.732 178.627 146.017 190.414 150.129 196.143C154.268 201.917 162.209 201.712 166.624 196.143C171.038 190.574 172.966 180.519 172.966 180.519C173.046 180.785 173.108 180.99 173.152 181.132C173.552 182.331 173.774 183.894 175.115 185.404Z" fill="#808080"></path> <path d="M165.539 157.398C165.53 157.398 161.799 153.108 155.83 154.662C149.852 156.225 146.388 167.426 146.051 171.903C146.024 172.285 145.997 172.729 145.971 173.226L143.839 173.138C143.839 172.578 143.848 172.036 143.866 171.494C144.176 163.385 146.779 156.927 150.945 153.596C155.386 150.043 161.897 150.479 161.897 150.479C163.176 152.326 164.393 154.742 165.539 157.398Z" fill="#808080"></path> <path d="M88.5557 166.094L88.0761 166.2C88.0761 166.2 87.1257 184.534 83.1197 188.948C79.1138 193.354 76.8043 188.397 75.3121 178.627C73.811 168.847 75.7118 156.492 77.9591 153.774C80.1974 151.065 84.985 154.325 84.985 154.325H84.9939C85.518 156.243 86.2552 158.837 87.0902 161.537C87.552 163.056 88.0494 164.601 88.5557 166.094ZM82.5601 167.63L86.6816 164.877C86.6816 164.877 85.6601 155.319 82.5601 154.929V167.63ZM84.6475 180.101C84.6475 180.101 86.9391 173.608 86.3707 169.851L82.9154 172.214L84.6475 180.101ZM83.2707 186.674L81.4232 175.029L77.8169 185.191C79.549 191.764 83.2707 186.674 83.2707 186.674ZM80.4728 168.172L79.0427 154.929C79.0427 154.929 77.4172 156.9 76.4313 163.651L80.4728 168.172ZM77.0086 181.274L80.4728 172.036L75.8362 168.394C75.3743 172.72 77.0086 181.274 77.0086 181.274Z" fill="#C7C7C7"></path> <path d="M272.635 188.238L301.307 185.91C300.668 189.81 293.064 201.561 277.964 199.785C262.864 198.008 261.94 188.735 261.94 188.735V188.726C268.46 188.442 272.635 188.238 272.635 188.238Z" fill="#383636"></path> <path d="M102.332 182.757C102.332 182.757 102.981 195.343 93.21 195.343C87.5164 195.343 83.3239 195.645 80.4727 194.837C85.509 195.228 88.982 190.307 89.657 185.573C90.5453 179.355 89.8969 169.851 89.8969 169.851C90.7673 172.116 91.6112 173.964 92.3218 174.914C94.9865 178.467 96.7629 182.02 96.7629 182.02L102.332 182.757Z" fill="#383636"></path> <path d="M185.623 189.756L185.587 190.014C185.587 190.014 183.811 203.338 174.928 205.114C168.666 206.366 161.898 206.366 156.471 204.981C163.763 205.745 167.334 202.742 170.487 198.008C174.04 192.679 174.928 185.573 174.928 185.573L175.115 185.404C176.607 187.101 179.503 188.744 185.623 189.756Z" fill="#383636"></path> <path d="M84.0444 150.869C84.0444 150.869 80.7757 149.155 78.111 150.932C75.4463 152.708 72.3197 161.191 72.5506 167.169C72.2753 161.768 72.2042 151.269 75.4463 147.379C79.5144 142.502 82.8276 147.299 84.0444 150.869Z" fill="#090909"></path> <path d="M161.897 150.479C161.897 150.479 155.387 150.043 150.945 153.596C146.779 156.927 144.177 163.385 143.866 171.494H143.786C143.964 164.85 144.452 157.975 145.616 154.485C148.281 146.49 151.834 142.937 158.939 147.379C159.943 148.009 160.938 149.084 161.897 150.479Z" fill="#090909"></path> <path d="M176.857 144.67C176.919 144.723 176.946 144.75 176.946 144.75C176.946 144.75 177.825 155.471 183.323 157.442C188.253 159.21 193.724 156.776 198.565 156.545C199.125 156.519 199.684 156.519 200.226 156.563C205.458 156.972 220.798 160.027 221.482 159.281C222.157 158.526 215.779 148.622 212.244 147.601C210.85 147.201 205.822 146.544 199.96 145.94C190.953 145.007 179.966 144.199 177.212 144.616L176.857 144.67ZM224.724 185.404V185.244C224.724 185.244 223.516 175.838 219.918 173.138C216.321 170.437 183.323 169.531 181.555 170.135C179.797 170.748 186.787 186.159 186.787 186.159L224.724 185.404ZM288.517 156.581L288.757 156.599C288.757 156.599 293.58 153.712 297.142 153.232C300.517 152.788 305.358 154.707 306.202 154.458C306.264 154.76 306.326 155.062 306.389 155.373C308.165 164.255 305.5 185.573 305.5 185.573L301.308 185.91L272.635 188.238C272.635 188.238 268.461 188.442 261.941 188.726C241.378 189.641 197.482 191.364 187.365 190.014C186.752 189.934 186.174 189.845 185.624 189.757C179.504 188.744 176.608 187.101 175.116 185.404C173.775 183.894 173.552 182.331 173.153 181.132C173.108 180.99 173.046 180.785 172.966 180.519C172.087 177.401 169.262 166.076 165.541 157.398C164.395 154.742 163.178 152.326 161.899 150.479C160.939 149.084 159.945 148.009 158.941 147.379C151.835 142.938 148.282 146.49 145.617 154.485C144.454 157.975 143.965 164.85 143.788 171.494C143.725 173.973 143.699 176.406 143.699 178.627C143.699 178.636 143.699 178.654 143.699 178.662C143.663 180.439 143.654 182.331 143.717 184.232L143.397 184.241L110.505 179.728L110.523 179.622C110.523 179.622 106.091 154.929 106.979 145.158C107.867 135.387 115.16 125.617 115.16 125.617H116.75L117.3 125.599C117.327 126.176 117.434 126.789 117.638 127.393C118.793 130.866 127.408 129.17 131.85 130.058C136.291 130.946 135.26 132.581 138.067 135.387C139.844 137.164 142.509 132.723 142.509 132.723C142.509 132.723 141.389 130.316 139.684 127.482L139.844 127.393H145.173C145.173 127.393 146.061 128.282 146.061 122.952C146.061 117.623 137.179 102.523 131.85 101.634C126.52 100.746 122.079 101.634 110.532 107.852L109.359 105.72C116.599 101.688 124.086 98.5256 134.07 95.8609C147.394 92.3079 198.023 92.3079 216.676 97.6374C230.373 101.554 243.59 112.169 250.705 118.591C253.281 120.918 255.048 122.686 255.759 123.396C257.624 125.262 261.683 126.265 263.94 126.692C264.899 126.869 265.53 126.949 265.53 126.949C265.53 126.949 288.624 133.167 295.73 136.72C298.341 138.026 300.233 139.687 301.663 141.712L301.592 141.765C301.592 141.765 289.814 145.291 289.441 147.361C289.317 148.08 288.943 151.891 288.517 156.581ZM283.126 177.605C283.126 177.605 287.807 160.978 287.132 153.712C286.448 146.446 282.992 146.713 281.287 146.544C279.59 146.375 229.289 147.059 229.289 147.059C220.185 147.601 224.395 154.387 224.395 154.387L234.246 179.444L283.126 177.605ZM153.612 125.173L253.094 124.285C253.094 124.285 229.556 104.299 218.009 100.746C206.462 97.1932 176.262 98.9697 170.044 98.9697C163.826 98.9697 144.285 100.746 143.841 102.079L153.612 125.173Z" fill="#D23D20"></path> <path d="M306.201 154.458C305.358 154.707 300.517 152.788 297.141 153.232C293.58 153.712 288.756 156.598 288.756 156.598L288.517 156.581C288.943 151.891 289.316 148.08 289.44 147.361C289.813 145.291 301.591 141.765 301.591 141.765L301.663 141.712C304.007 145.007 305.136 149.253 306.201 154.458Z" fill="white"></path> <path d="M261.487 118.387C265.253 120.474 263.939 126.692 263.939 126.692C261.683 126.265 257.623 125.262 255.758 123.396C255.048 122.686 253.28 120.918 250.704 118.591L251.299 118.387C251.299 118.387 257.712 116.299 261.487 118.387Z" fill="#D23D20"></path> <path d="M224.724 185.244V185.404L186.787 186.159C186.787 186.159 179.797 170.748 181.555 170.135C183.323 169.531 216.321 170.437 219.918 173.138C223.516 175.838 224.724 185.244 224.724 185.244Z" fill="#D23D20"></path> <path d="M212.244 147.601C215.779 148.622 222.157 158.526 221.482 159.281C220.798 160.027 205.458 156.972 200.226 156.563C199.684 156.519 199.125 156.519 198.565 156.545L198.503 154.396C205.458 154.209 212.537 153.978 214.518 154.556C217.44 155.408 214.66 150.896 207.19 148.818C205.316 148.294 202.687 147.894 199.773 147.583L199.96 145.94C205.822 146.544 210.849 147.201 212.244 147.601Z" fill="white"></path> <path d="M207.189 148.818C214.659 150.896 217.439 155.408 214.517 154.556C212.536 153.978 205.457 154.209 198.502 154.396C195.251 154.484 192.027 154.564 189.362 154.556C181.012 154.52 179.929 146.544 179.929 146.544C179.929 146.544 191.058 146.659 199.772 147.583C202.685 147.894 205.315 148.293 207.189 148.818Z" fill="white"></path> <path d="M199.96 145.94L199.773 147.583C191.059 146.659 179.93 146.544 179.93 146.544C179.93 146.544 181.013 154.52 189.363 154.556C192.028 154.565 195.252 154.485 198.503 154.396L198.565 156.545C193.724 156.776 188.253 159.21 183.323 157.443C177.825 155.471 176.945 144.75 176.945 144.75C176.945 144.75 176.919 144.723 176.856 144.67L177.212 144.616C179.965 144.199 190.953 145.007 199.96 145.94Z" fill="white"></path> <path d="M143.84 188.238L102.333 182.757L96.7637 182.02C96.7637 182.02 94.9873 178.467 92.3225 174.914C91.612 173.964 90.7681 172.116 89.8977 169.851C89.4535 168.688 89.0005 167.417 88.5564 166.094C88.0501 164.602 87.5527 163.056 87.0908 161.537L89.0094 160.871C91.6297 168.723 98.0961 178.023 98.0961 178.023L110.505 179.728L143.396 184.241L143.716 184.232C143.725 184.702 143.752 185.173 143.769 185.644C143.769 185.662 143.769 185.671 143.769 185.688C143.805 187.287 143.84 188.238 143.84 188.238Z" fill="#D23D20"></path> <path d="M139.683 127.482C141.389 130.316 142.508 132.723 142.508 132.723C142.508 132.723 139.843 137.164 138.067 135.387C135.26 132.581 136.29 130.946 131.849 130.058C127.408 129.17 118.792 130.866 117.637 127.393C117.433 126.789 117.326 126.176 117.3 125.599C117.202 123.609 118.046 121.86 119.414 121.176C119.414 121.176 125.631 117.623 130.961 118.511C134.025 119.026 137.383 123.645 139.683 127.482Z" fill="#D23D20"></path> <path d="M94.542 125.617H115.158C115.158 125.617 107.866 135.387 106.977 145.158C106.089 154.929 110.521 179.622 110.521 179.622L110.504 179.728L98.095 178.023C98.095 178.023 91.6286 168.723 89.0083 160.871C88.7329 160.054 88.502 159.254 88.3243 158.482C85.6596 146.935 85.4465 138.47 87.4361 134.499C90.1008 129.17 94.542 125.617 94.542 125.617Z" fill="#D23D20"></path> <path d="M109.359 105.72L110.531 107.852C99.3306 113.883 93.6547 121.176 93.6547 121.176L94.5429 125.617C94.5429 125.617 90.1018 129.17 87.437 134.499C85.4474 138.47 85.6606 146.935 88.3253 158.482C88.5029 159.254 88.7339 160.054 89.0092 160.871L87.0906 161.537C86.2557 158.837 85.5184 156.243 84.9944 154.325C84.6924 153.25 84.4703 152.379 84.3282 151.82C84.2571 151.518 84.1594 151.198 84.044 150.869C82.8271 147.299 79.5139 142.502 75.4458 147.379C72.2037 151.269 72.2748 161.768 72.5502 167.169C72.5502 167.32 72.559 167.471 72.5679 167.613C72.5857 167.87 72.5946 168.146 72.6212 168.43C72.6301 168.652 72.6479 168.892 72.6656 169.132C72.6923 169.451 72.7189 169.78 72.7456 170.118C72.7545 170.197 72.7633 170.26 72.7633 170.313C72.7722 170.375 72.7722 170.42 72.7811 170.473C72.7811 170.473 70.1164 166.92 69.2281 161.59C68.3399 156.261 71.0046 134.055 71.0046 134.055C71.0046 134.055 78.1105 130.502 82.5517 127.837C86.9929 125.173 95.0226 114.567 102.093 110.073C104.545 108.518 106.934 107.07 109.359 105.72Z" fill="#D23D20"></path> <path d="M271.587 128.637C271.587 128.637 264.89 126.869 263.93 126.692C261.674 126.265 257.615 125.262 255.75 123.396C255.039 122.686 253.272 120.918 250.696 118.591C243.581 112.169 230.364 101.554 216.667 97.6374C198.014 92.3079 147.385 92.3079 134.061 95.8609C124.077 98.5256 116.589 101.688 109.35 105.72C106.925 107.07 104.536 108.518 102.084 110.073C95.0141 114.567 86.9844 125.173 82.5432 127.837C78.102 130.502 70.9961 134.055 70.9961 134.055C70.9961 134.055 68.8377 154.849 69.042 160.871" stroke="black" stroke-width="0.888238" stroke-miterlimit="10" stroke-linecap="round" stroke-linejoin="round"></path> <path d="M143.698 178.627C143.698 176.406 143.725 173.973 143.787 171.494C143.965 164.85 144.453 157.975 145.617 154.485C148.282 146.49 151.835 142.937 158.94 147.379C159.944 148.009 160.939 149.084 161.898 150.479C163.177 152.326 164.394 154.742 165.54 157.398C169.262 166.076 172.086 177.401 172.966 180.519C173.046 180.785 173.108 180.99 173.152 181.132C173.552 182.331 173.774 183.894 175.115 185.404C176.607 187.101 179.503 188.744 185.623 189.757C186.174 189.845 186.751 189.934 187.364 190.014C197.481 191.364 241.378 189.641 261.941 188.726C268.46 188.442 272.635 188.238 272.635 188.238L301.307 185.91L305.5 185.573" stroke="black" stroke-width="1.8462" stroke-miterlimit="10" stroke-linecap="round" stroke-linejoin="round"></path> <path d="M143.769 185.644C143.734 183.921 143.698 181.469 143.698 178.662" stroke="black" stroke-width="1.8462" stroke-miterlimit="10" stroke-linecap="round" stroke-linejoin="round"></path> <path d="M72.5684 167.613C72.5595 167.471 72.5506 167.32 72.5506 167.169C72.2753 161.768 72.2042 151.269 75.4463 147.379C79.5144 142.502 82.8276 147.299 84.0444 150.869C84.1599 151.198 84.2576 151.518 84.3287 151.82C84.4708 152.379 84.6929 153.25 84.9949 154.325C85.5189 156.243 86.2562 158.837 87.0911 161.537C87.553 163.056 88.0504 164.602 88.5567 166.094C89.0008 167.417 89.4538 168.687 89.8979 169.851C90.7684 172.116 91.6122 173.964 92.3228 174.914C94.9875 178.467 96.764 182.02 96.764 182.02L102.333 182.757L143.841 188.238C143.841 188.238 143.805 187.287 143.77 185.688" stroke="black" stroke-width="1.8462" stroke-miterlimit="10" stroke-linecap="round" stroke-linejoin="round"></path> <path d="M72.6645 169.132C72.6556 168.918 72.6379 168.687 72.6201 168.43" stroke="black" stroke-width="1.8462" stroke-miterlimit="10" stroke-linecap="round" stroke-linejoin="round"></path> <path d="M72.7639 170.313C72.7639 170.26 72.755 170.197 72.7461 170.117" stroke="black" stroke-width="1.8462" stroke-miterlimit="10" stroke-linecap="round" stroke-linejoin="round"></path> <path d="M185.586 190.014C185.586 190.014 183.81 203.338 174.927 205.114C168.665 206.367 161.897 206.367 156.47 204.981C153.556 204.244 151.034 203.107 149.168 201.561C145.313 198.346 144.096 192.022 143.768 185.688C143.768 185.671 143.768 185.662 143.768 185.644C143.75 185.173 143.723 184.702 143.715 184.232C143.652 182.331 143.661 180.439 143.697 178.662C143.697 178.654 143.697 178.636 143.697 178.627" stroke="black" stroke-width="1.8462" stroke-miterlimit="10" stroke-linecap="round" stroke-linejoin="round"></path> <path d="M174.928 185.573C174.928 185.573 174.04 192.679 170.487 198.008C167.334 202.743 163.763 205.745 156.471 204.981" stroke="black" stroke-width="1.8462" stroke-miterlimit="10" stroke-linecap="round" stroke-linejoin="round"></path> <path d="M161.898 150.479C161.898 150.479 155.387 150.043 150.946 153.596C146.78 156.927 144.177 163.385 143.866 171.494C143.849 172.036 143.84 172.578 143.84 173.138" stroke="black" stroke-width="1.8462" stroke-miterlimit="10" stroke-linecap="round" stroke-linejoin="round"></path> <path d="M89.8978 169.851C89.8978 169.851 90.5463 179.355 89.658 185.573C88.983 190.307 85.5099 195.228 80.4736 194.837" stroke="black" stroke-width="1.8462" stroke-miterlimit="10" stroke-linecap="round" stroke-linejoin="round"></path> <path d="M84.044 150.87C84.044 150.87 80.7752 149.155 78.1105 150.932C75.4458 152.708 72.3192 161.191 72.5502 167.169C72.559 167.311 72.559 167.462 72.5679 167.613C72.5857 167.871 72.5946 168.146 72.6212 168.43C72.6301 168.652 72.6479 168.892 72.6656 169.132C72.6923 169.452 72.7189 169.78 72.7456 170.118C72.7545 170.189 72.7633 170.251 72.7633 170.313C72.7722 170.375 72.7722 170.42 72.7811 170.473C73.3585 176.806 74.8507 186.452 76.3341 190.903C77.0713 193.123 78.4303 194.269 80.4732 194.837C83.3245 195.646 87.517 195.344 93.2106 195.344C102.981 195.344 102.333 182.757 102.333 182.757" stroke="black" stroke-width="1.8462" stroke-miterlimit="10" stroke-linecap="round" stroke-linejoin="round"></path> <path d="M261.94 188.735C261.94 188.735 262.864 198.008 277.964 199.785C293.064 201.561 300.668 189.81 301.307 185.91" stroke="black" stroke-width="1.8462" stroke-miterlimit="10" stroke-linecap="round" stroke-linejoin="round"></path> <path d="M218.008 100.746C211.959 98.8809 200.794 98.4901 190.632 98.5256C181.403 98.5611 173.001 98.9697 170.043 98.9697C163.825 98.9697 144.284 100.746 143.84 102.079L153.61 125.173L253.093 124.285" stroke="black" stroke-width="0.888238" stroke-miterlimit="10" stroke-linecap="round" stroke-linejoin="round"></path> <path d="M94.542 125.617H115.158H116.748" stroke="black" stroke-width="0.888238" stroke-miterlimit="10" stroke-linecap="round" stroke-linejoin="round"></path> <path d="M139.842 127.393H145.171C145.171 127.393 146.059 128.282 146.059 122.952C146.059 117.623 137.177 102.523 131.848 101.634" stroke="black" stroke-width="0.888238" stroke-miterlimit="10" stroke-linecap="round" stroke-linejoin="round"></path> <path d="M117.299 125.599C117.201 123.609 118.045 121.86 119.413 121.176C119.413 121.176 125.63 117.623 130.96 118.511C134.024 119.026 137.382 123.645 139.682 127.482C141.388 130.316 142.507 132.723 142.507 132.723C142.507 132.723 139.842 137.164 138.066 135.387C135.259 132.581 136.289 130.946 131.848 130.058C127.407 129.17 118.791 130.866 117.636 127.393C117.432 126.789 117.325 126.176 117.299 125.599Z" stroke="black" stroke-width="0.888238" stroke-miterlimit="10" stroke-linecap="round" stroke-linejoin="round"></path> <path d="M106.98 145.158C106.092 154.929 110.524 179.622 110.524 179.622" stroke="black" stroke-width="0.888238" stroke-miterlimit="10" stroke-linecap="round" stroke-linejoin="round"></path> <path d="M143.395 184.241L110.504 179.728L98.095 178.023C98.095 178.023 91.6286 168.723 89.0083 160.871C88.7329 160.054 88.502 159.254 88.3243 158.482C85.6596 146.935 85.4465 138.47 87.4361 134.499C90.1008 129.17 94.542 125.617 94.542 125.617" stroke="black" stroke-width="0.888238" stroke-miterlimit="10" stroke-linecap="round" stroke-linejoin="round"></path> <path d="M89.1768 138.248C89.1768 138.248 89.1768 134.837 91.6195 135.299C94.0621 135.752 94.1687 139.109 92.641 139.775C91.1132 140.433 89.1235 140.486 89.1768 138.248Z" stroke="black" stroke-width="0.888238" stroke-miterlimit="10" stroke-linecap="round" stroke-linejoin="round"></path> <path d="M111.883 138.15C111.892 137.99 112.833 134.89 114.752 136.107C116.67 137.333 116.573 140.433 114.539 140.486C112.496 140.539 111.732 140.841 111.883 138.15Z" stroke="black" stroke-width="0.888238" stroke-miterlimit="10" stroke-linecap="round" stroke-linejoin="round"></path> <path d="M153.334 125.173C153.334 125.173 148.565 130.289 149.177 132.598C149.781 134.908 156.23 132.678 162.892 135.254C169.127 137.661 176.02 143.897 176.855 144.67C176.917 144.723 176.944 144.749 176.944 144.749C176.944 144.749 177.823 155.471 183.321 157.442C188.251 159.21 193.723 156.776 198.563 156.545C199.123 156.519 199.683 156.519 200.224 156.563C205.456 156.972 220.796 160.027 221.48 159.281C222.155 158.526 215.778 148.622 212.242 147.601C210.848 147.201 205.82 146.544 199.958 145.94C190.951 145.007 179.964 144.199 177.21 144.616" stroke="black" stroke-width="0.888238" stroke-miterlimit="10" stroke-linecap="round" stroke-linejoin="round"></path> <path d="M199.772 147.583C191.058 146.659 179.929 146.544 179.929 146.544C179.929 146.544 181.012 154.52 189.362 154.556C192.027 154.564 195.251 154.484 198.502 154.396C205.457 154.209 212.536 153.978 214.517 154.556C217.439 155.408 214.659 150.896 207.189 148.818C205.315 148.293 202.685 147.894 199.772 147.583Z" stroke="black" stroke-width="0.888238" stroke-miterlimit="10" stroke-linecap="round" stroke-linejoin="round"></path> <path d="M297.995 138.336C297.995 138.336 288.66 146.002 284.618 146.686" stroke="black" stroke-width="0.888238" stroke-miterlimit="10" stroke-linecap="round" stroke-linejoin="round"></path> <path d="M306.61 167.08C306.61 167.08 293.1 169.052 291.812 170.89C290.524 172.72 289.503 184.125 289.503 184.125L224.724 185.404L186.787 186.159C186.787 186.159 179.797 170.748 181.555 170.135C183.323 169.531 216.321 170.437 219.918 173.138C223.516 175.838 224.724 185.244 224.724 185.244" stroke="black" stroke-width="0.888238" stroke-miterlimit="10" stroke-linecap="round" stroke-linejoin="round"></path> <path d="M301.591 141.765C301.591 141.765 289.813 145.291 289.44 147.361C289.316 148.08 288.943 151.891 288.516 156.581C287.708 165.499 286.687 177.605 286.687 177.605" stroke="black" stroke-width="0.888238" stroke-miterlimit="10" stroke-linecap="round" stroke-linejoin="round"></path> <path d="M288.757 156.599C288.757 156.599 293.58 153.712 297.142 153.232C300.517 152.788 305.358 154.707 306.202 154.458C306.255 154.44 306.291 154.413 306.308 154.387" stroke="black" stroke-width="0.888238" stroke-miterlimit="10" stroke-linecap="round" stroke-linejoin="round"></path> <path d="M291.065 151.198C291.065 151.198 297.274 151.873 299.788 150.141C302.302 148.418 303.554 145.629 303.554 145.629" stroke="black" stroke-width="0.888238" stroke-miterlimit="10" stroke-linecap="round" stroke-linejoin="round"></path> <path d="M234.245 179.444L224.395 154.387C224.395 154.387 220.185 147.601 229.289 147.059C229.289 147.059 279.59 146.375 281.287 146.544C282.992 146.713 286.447 146.446 287.131 153.712" stroke="black" stroke-width="0.888238" stroke-miterlimit="10" stroke-linecap="round" stroke-linejoin="round"></path> <path d="M227.931 151.944H282.993" stroke="black" stroke-width="0.888238" stroke-miterlimit="10" stroke-linecap="round" stroke-linejoin="round"></path> <path d="M230.577 156.901H282.992" stroke="black" stroke-width="0.888238" stroke-miterlimit="10" stroke-linecap="round" stroke-linejoin="round"></path> <path d="M231.049 161.182L282.993 160.702" stroke="black" stroke-width="0.888238" stroke-miterlimit="10" stroke-linecap="round" stroke-linejoin="round"></path> <path d="M235.056 172.241L280.205 171.699" stroke="black" stroke-width="0.888238" stroke-miterlimit="10" stroke-linecap="round" stroke-linejoin="round"></path> <path d="M239.265 162.976L238.999 169.327L278.304 169.052V163.278L239.265 162.976Z" stroke="black" stroke-width="0.888238" stroke-miterlimit="10" stroke-linecap="round" stroke-linejoin="round"></path> <path d="M165.533 157.398C165.533 157.398 161.802 153.108 155.833 154.662C149.855 156.226 146.391 167.426 146.054 171.903C146.027 172.285 146 172.729 145.974 173.226C145.734 178.627 146.018 190.414 150.131 196.143C154.27 201.917 162.211 201.712 166.625 196.143C171.04 190.574 172.967 180.519 172.967 180.519" stroke="black" stroke-width="0.888238" stroke-miterlimit="10" stroke-linecap="round" stroke-linejoin="round"></path> <path d="M154.473 159.823C154.473 159.823 151.142 163.083 149.721 166.13C148.29 169.185 148.157 172.241 148.157 172.241L157.661 173.138L154.473 159.823Z" stroke="black" stroke-width="0.888238" stroke-miterlimit="10" stroke-linecap="round" stroke-linejoin="round"></path> <path d="M159.438 158.393L160.584 171.432L167.504 164.3C167.504 164.3 164.954 157.443 159.438 158.393Z" stroke="black" stroke-width="0.888238" stroke-miterlimit="10" stroke-linecap="round" stroke-linejoin="round"></path> <path d="M148.157 179.035L157.12 179.622L151.346 192.812C151.346 192.812 148.362 187.047 148.157 179.035Z" stroke="black" stroke-width="0.888238" stroke-miterlimit="10" stroke-linecap="round" stroke-linejoin="round"></path> <path d="M168.453 188.469L161.897 177.881L169.678 170.135C169.678 170.135 170.087 182.358 168.453 188.469Z" stroke="black" stroke-width="0.888238" stroke-miterlimit="10" stroke-linecap="round" stroke-linejoin="round"></path> <path d="M155.219 194.784L159.438 181.682L166.144 190.982C166.144 190.982 162.28 197.307 155.219 194.784Z" stroke="black" stroke-width="0.888238" stroke-miterlimit="10" stroke-linecap="round" stroke-linejoin="round"></path> <path d="M84.986 154.325C84.986 154.325 80.1984 151.065 77.96 153.774C75.7128 156.492 73.812 168.847 75.3131 178.627C76.8053 188.397 79.1147 193.354 83.1207 188.948C87.1267 184.534 88.0771 166.2 88.0771 166.2" stroke="black" stroke-width="0.888238" stroke-miterlimit="10" stroke-linecap="round" stroke-linejoin="round"></path> <path d="M76.4326 163.651L80.4741 168.172L79.044 154.929C79.044 154.929 77.4186 156.901 76.4326 163.651Z" stroke="black" stroke-width="0.888238" stroke-miterlimit="10" stroke-linecap="round" stroke-linejoin="round"></path> <path d="M75.8352 168.394L80.4718 172.036L77.0076 181.274C77.0076 181.274 75.3733 172.72 75.8352 168.394Z" stroke="black" stroke-width="0.888238" stroke-miterlimit="10" stroke-linecap="round" stroke-linejoin="round"></path> <path d="M77.8174 185.191L81.4236 175.029L83.2712 186.674C83.2712 186.674 79.5494 191.764 77.8174 185.191Z" stroke="black" stroke-width="0.888238" stroke-miterlimit="10" stroke-linecap="round" stroke-linejoin="round"></path> <path d="M86.3713 169.851L82.916 172.214L84.6481 180.101C84.6481 180.101 86.9397 173.608 86.3713 169.851Z" stroke="black" stroke-width="0.888238" stroke-miterlimit="10" stroke-linecap="round" stroke-linejoin="round"></path> <path d="M82.5625 154.929V167.63L86.6839 164.877C86.6839 164.877 85.6625 155.32 82.5625 154.929Z" stroke="black" stroke-width="0.888238" stroke-miterlimit="10" stroke-linecap="round" stroke-linejoin="round"></path> <path d="M251.3 118.387C251.3 118.387 257.713 116.299 261.488 118.387C265.254 120.474 263.939 126.692 263.939 126.692" stroke="black" stroke-width="0.888238" stroke-miterlimit="10" stroke-linecap="round" stroke-linejoin="round"></path> </svg> 