<svg id="offer" xmlns="http://www.w3.org/2000/svg" width="160" height="160" viewBox="0 0 160 160"><style><![CDATA[
	.st0{fill:#B8B8B8;}
	.st1{fill:#FC6454;}
	.st2{fill:#2E302F;}
	.st3{fill:#00C492;}
]]></style><path class="st3" d="M61.4 106l4.3 8.1L60 124l-5.7-9.9 4.3-8.1h2.8zm-6.1-14l-2.7 2.1 5.9 5.9h2.9l5.1-5.9-1.9-2.1h-9.3zm84.5 14.5c-7 0-12.6 5.7-12.6 12.6 0 3.8 1.7 7.2 4.4 9.6.3.2.6.5.9.7l.9.6c1.6 1 3.5 1.6 5.5 1.7h2.2c.2 0 .3 0 .4-.1 2.1-.3 4-1 5.6-2.2.3-.2.6-.4.8-.6.3-.2.5-.5.8-.7 2.3-2.3 3.8-5.5 3.8-9 0-7-5.7-12.6-12.7-12.6z"/><path class="st2" d="M160 62h-11c-.2-5.6-4.8-10-10.4-10h-11.1c-5.6 0-10.2 4.4-10.4 10H92v20.6c-1.8-.3-3.6-.5-5.5-.6l-7.4-9.8C91 65.6 99 53 99 38.5 99 17.2 81.8 0 60.5 0 39.9 0 23 16.2 22 36.6l-.1 1.4h.1v.5c0 14.2 7.7 26.6 19.2 33.3L33.5 82C14.9 82.4 0 97.6 0 116.3V160h2v-43.7C2 98.9 15.9 84.6 33.2 84l4.2 22.8 7-5.8L60 128l15.7-27 7 5.8L86.8 84c1.8.1 3.5.2 5.2.6V143h26v17h2v-17h8.6l-3.5 17 7.3-7.3 4.2 7.3 2.8-17h2.8l3 9.9 3.2-7.8 8.2 6.4-2.9-8.5h6.2V62zM76.7 99.3L75.1 98l-9.7-8.1 13-15.3 5.8 7.7.3.4.4.5-.1.8-.4 1.9-3.1 17.2-4.6-3.8zm-38 3.8l-3.1-17.2-.4-1.9-.1-.7.4-.5.3-.4 5.8-7.7 13 15.3-3.8 3.2-1.1.9-4.8 4-1.6 1.3-4.6 3.7zM55.3 92h9.2l2.1 2.1-5.1 5.9h-2.9l-5.9-5.9 2.6-2.1zm5.2-90c20 0 36.3 16.2 36.5 36.1-2.8.4-5.6.6-8.4.6-2.4 0-4.8 0-7.2-.2-17-1.3-32.3-8.2-34.3-20.7l-.6-3.6-1.3 3.4C39 33.5 28.5 35.8 24.1 36 25.4 17.1 41.2 2 60.5 2zm12.2 36C59.3 36 47.9 29 46 17.9v-.1C47.9 28.9 59.3 36 72.7 38zM43.2 23.9c-6 10.7-14.3 12.8-18.7 13.1 4.1-.3 12.6-2.4 18.7-13.1zM24 37.9c1.2-.1 2.9.1 4.7-.9 5.2-1 12.2-5.5 17-16 2.8 8.3 11.4 14 22 17 6 2 12.6 2.7 19.4 2.7 3.3 0 6.6-.2 9.8-.6C96.1 59.5 80.1 75 60.5 75 40.4 75 24 58.6 24 38.4v-.5zM60.5 77c5.9 0 11.4-1.3 16.4-3.7L62.7 90h-5.4L42.4 72.5c5.4 2.9 11.5 4.5 18.1 4.5zm-6.2 37.1l4.3-8.1h2.8l4.3 8.1L60 124l-5.7-9.9zm12.6-2l-4.3-8.1h-5.2l-4.3 8.1-7.2-12.4 5.2-4.4 6.6 6.6h4.7l6-7 5.7 4.7-7.2 12.5zM158 141h-4.9l-3.7-10.9c3.1-2.7 5.1-6.6 5.1-11 0-8.1-6.6-14.6-14.6-14.6-8.1 0-14.6 6.6-14.6 14.6 0 4.8 2.4 9.1 6 11.8L129 141H94V64h23.1c.7 5.1 5.1 9 10.3 9h11.1c5.3 0 9.6-3.9 10.3-9h9.1v77zm-5.4 4.8l-2.9-2.3-.7-.5-1.3-1-.1-.1v.1l-.4 1-.6 1.3-1.1 2.6-1.2-4-.3-1-.3-1-2.2-7.4c2.3-.3 4.4-1 6.2-2.2l3.3 9.6.3 1 .3 1 1 2.9zm-12.8-4.8l.7-3.9 1.2 3.9h-1.9zm-2.3 2l-1.9 11.1-1.4-2.5-1.3-2.3-1.9 1.9-2.6 2.6 2.2-10.9.2-1 .2-1 1.9-9c1.8 1 3.9 1.6 6.1 1.7l-1.2 7.3-.2 1-.1 1.1zm3.5-11.3h-1.1-1.1c-2-.2-3.9-.8-5.5-1.7l-.9-.6c-.3-.2-.6-.4-.9-.7-2.7-2.3-4.4-5.7-4.4-9.6 0-7 5.7-12.6 12.6-12.6 7 0 12.6 5.7 12.6 12.6 0 3.5-1.4 6.7-3.8 9-.3.3-.5.5-.8.7-.3.2-.6.4-.8.6-1.6 1.1-3.6 1.9-5.6 2.2 0 0-.2.1-.3.1zm-22-69.1v-.1-.4c.2-4.4 3.9-8 8.4-8h11.1c4.5 0 8.2 3.6 8.4 8v.9c0 .3-.1.7-.1 1-.7 4-4.1 7-8.3 7h-11.1c-4.2 0-7.6-3-8.3-7-.1-.3-.1-.7-.1-1v-.4z"/></svg>