<svg id="offer" xmlns="http://www.w3.org/2000/svg" width="160" height="160" viewBox="0 0 160 160"><style><![CDATA[
	.st0{fill:#B8B8B8;}
	.st1{fill:#FC6454;}
	.st2{fill:#2E302F;}
	.st3{fill:#00C492;}
]]></style><path class="st3" d="M35.7 135c1.5 1.5 2.3 3.4 2.3 5.5 0 1.4-.4 2.7-1.1 3.9-1.4 2.3-3.9 3.8-6.7 3.8-2.7 0-5.2-1.4-6.6-3.8-.7-1.2-1.3-2.6-1.3-4 0-4.3 3.6-7.7 7.6-7.7v-1h.1l.1 1c2.1 0 4.2.8 5.6 2.3zm55.9 11c-.7-.7-1.6-1.1-2.6-1.1-2 0-3.7 1.6-3.7 3.6 0 .2 0 .4.1.7.3 1.7 1.8 3 3.6 3 2 0 3.3-1.3 3.6-3 0-.2.1-.4.1-.6 0-1-.4-1.9-1.1-2.6zM76 74H60.4l-.4-1.6-4-19.8c-1.1-4.7-4.7-5-5.8-5-1.8 0-3.5.7-4.5 2-1 1.2-1.4 2.9-1.2 4.7l4.6 23.4c.5 2.4 2.3 5.3 5.8 5.3H70.6c3 0 3.3 2.1 3.3 3.6v17.5c0 2.8 2.4 2.9 2.9 2.9 1.2 0 3.1-.6 3.1-3V78c.1-4-2.9-4-3.9-4zM30 13h14V2H30v11z"/><path class="st2" d="M30.4 121s-.1 0 0 0c-10.9 0-19.8 8.6-19.8 19.5 0 3.7 1 7 2.8 10 3.4 5.8 9.7 9.5 16.9 9.5 7.2 0 13.6-3.7 17-9.5 1.7-2.9 2.7-6.1 2.8-9.8 0-10.9-8.8-19.7-19.7-19.7zm15.2 28.6c-3.2 5.4-9 8.7-15.3 8.7-6.3 0-11.9-3.3-15.2-8.7-1.7-2.8-2.5-5.8-2.5-9.1 0-9.8 8-17.5 17.7-17.5h.1c4.7 0 9.2 1.7 12.5 5.1 3.3 3.4 5.2 7.8 5.2 12.6 0 3.2-.9 6.2-2.5 8.9zm-5.5-9c0 1.8-.5 3.3-1.4 4.7-1.7 2.9-4.8 4.7-8.4 4.7-3.5 0-6.6-1.7-8.3-4.6-.9-1.5-1.4-3-1.4-4.9 0-5.3 4.2-9.4 9.4-9.5v1.7c-4 0-7.6 3.5-7.6 7.7 0 1.4.5 2.8 1.3 4 1.4 2.4 3.9 3.8 6.6 3.8 2.7 0 5.3-1.5 6.7-3.8.7-1.2 1.1-2.5 1.1-3.9 0-2.1-.8-4-2.3-5.5-1.5-1.5-3.5-2.3-5.5-2.3l-.1-1-.2-.7h.3c5.4 0 9.8 4.2 9.8 9.6zM30 131v-.3.3zm36.1-45H53.5c-2.6 0-7.2-.8-8.4-6.5l-4-19.3c-.5-2.2-2.1-3.7-4.3-3.7-1.4 0-2.8.6-3.6 1.7-.9 1.1-1.2 2.5-1 4l4.3 20.9C38.2 91 45.1 97 52.4 97h13.7c3.1 0 4.6-2.8 4.6-5.5.1-2.7-1.6-5.5-4.6-5.5zm0 9H52.4c-6.4 0-12.5-5.3-14-12.3l-4.3-20.9c-.2-.9 0-1.7.5-2.3.5-.6 1.3-1 2.1-1 .6 0 1.9.2 2.3 2.1L43 80c1.1 5.1 4.9 8.1 10.4 8.1h12.5c2.1 0 2.7 2.2 2.7 3.5.2 1.6-.7 3.4-2.5 3.4zm17.3 53.5c0 .3 0 .6.1 1 .5 2.7 2.8 4.6 5.5 4.6 2.8 0 5.1-1.9 5.6-4.6.1-.3.1-.5.1-.8 0-1.5-.6-2.9-1.6-4-1.1-1.1-2.5-1.7-4-1.7-3.2-.1-5.7 2.4-5.7 5.5zM89 152c-1.8 0-3.2-1.2-3.6-2.9 0-.2-.1-.4-.1-.6 0-2 1.6-3.6 3.7-3.6 1 0 1.9.4 2.6 1.1.7.7 1.1 1.6 1.1 2.6 0 .2 0 .3-.1.5-.3 1.7-1.6 2.9-3.6 2.9zm-4.6-3.5c0 .3 0 .6.1.8-.1-.2-.1-.5-.1-.8zm9.4.9c-.4 2.2-2.4 3.9-4.7 3.9H89v-.1.1c2.3-.1 4.4-1.8 4.8-3.9 0-.3.2-.5.2-.8 0 .3-.2.5-.2.8zM89 137v-.1.1zm11.7 11.6c0 .7-.1 1.2-.2 1.8-1 5.5-5.7 9.5-11.5 9.5-5.7 0-10.4-4.1-11.4-9.5-.1-.7-.2-1.2-.2-2 0-6.4 5.2-11.5 11.6-11.5v1.9c-5 0-9.6 4.3-9.6 9.6 0 .6.1 1.2.2 1.8.8 4.6 4.8 8 9.5 8s8.7-3.4 9.5-8c.1-.5.1-1.1.1-1.6 0-2.6-1-5-2.8-6.9-1.8-1.9-4.3-2.9-6.8-2.9L89 137c6.5 0 11.7 5.2 11.7 11.6zM58 52.2c-1-4.6-4.4-6.6-7.8-6.6-4.3 0-8.5 3.4-7.6 9.1l4.7 23.4C48 81.6 50.6 85 55 85h15.7c1 0 1.3.1 1.3 1.6v17.5c0 3.3 2.4 4.9 4.9 4.9 2.5 0 5.1-1.7 5.1-5V78c0-3.2-1.7-6-6-6H62l-4-19.8zM80 104c0 2.4-1.9 3-3.1 3-.5 0-2.9-.1-2.9-2.9V86.6c0-1.5-.3-3.6-3.3-3.6H55c-3.5 0-5.3-2.9-5.8-5.3l-4.6-23.4c-.3-1.9.1-3.5 1.2-4.7 1.1-1.2 2.8-2 4.5-2 1.1 0 4.8.4 5.8 5l4 19.8.3 1.6H76c1 0 4 0 4 4v26zM51 43c4.9 0 8.8-4 8.8-8.8 0-4.9-4-8.8-8.8-8.8-4.9 0-8.8 4-8.8 8.8 0 4.8 3.9 8.8 8.8 8.8zm0-15.7c3.8 0 6.8 3.1 6.8 6.8 0 3.8-3.1 6.8-6.8 6.8-3.8 0-6.8-3.1-6.8-6.8 0-3.8 3.1-6.8 6.8-6.8zM156 143h-25.1l-.5-2H142c1.6 0 3.1-.7 3.9-1.8.8-1.2 1-2.7.5-4.3l-4-12.5c-1-3-4.3-5.5-7.5-5.5h-30.4L80 17.8l-.1-.2c-1.4-2.9-4-4.6-6.9-4.6H46V0H28v13c-3.5 0-6 2.5-6 6v79H6c-3.5 0-6 2.5-6 6v43c0 2.3 1 5 6 5h4.5l-1.2-1.6c-1.3-1.8-2.1-6.5-2.1-10 0-12.7 10.4-23 23.1-23 6.1 0 11.9 2.5 16.3 7 4.3 4.5 6.7 10.3 6.7 16.5 0 3.8-.9 7.9-2 9.5l-1.1 1.6H73v-2c1 0 1 .4 1.1.7v-2c0-8.2 6.8-14.9 15-14.9 4 0 7.8 1.6 10.6 4.4 2.8 2.8 4.4 6.6 4.4 10.6v1.6l.4.3c.8.7 1.9 1.1 3 1.1 1.5 0 3-.7 3.9-1.9.8-1.1 1.1-2.5.7-3.9l-.7-5.1h8.2l.5 2c-2.1.1-3.9 1.8-3.9 4s1.8 4 4 4h36c2.2 0 4-1.8 4-4s-2-3.9-4.2-3.9zM30 2h14v11H30V2zm126 147h-36c-1.1 0-2-.9-2-2s.9-2 2-2h2.5l-1.6-6h-12l1 7.4v.1c.2.9.1 1.6-.3 2.2-.5.7-1.4 1.1-2.3 1.1-.4 0-.8-.1-1.3-.3v-.7c0-4.5-1.7-8.8-4.9-12-3.2-3.2-7.5-5-12-5-9.3 0-16.9 7.6-17 16.9v1.3H53.8c1-2.5 1.5-6.2 1.5-9.1 0-6.7-2.6-13.1-7.3-17.9-4.7-4.9-11-7.6-17.8-7.6-13.8 0-25 11.2-25.1 25 0 3.1.5 7 1.6 9.6H6c-3.5 0-4-1.4-4-3v-43c0-2.4 1.6-4 4-4h18V19c0-2.4 1.6-4 4-4h45c3 0 4.5 2.3 5.1 3.4L103 119h31.9c2.3 0 4.9 1.9 5.6 4.1l4 12.5c.3 1 .2 1.8-.3 2.5s-1.3 1-2.3 1h-14.2l1.6 6H156c1.1 0 2 .9 2 2s-.9 1.9-2 1.9zM72.7 19H28v81h27c2.4 0 4 1.6 4 4v3c0 3.5 2.5 6 6 6h31.3L72.9 19.8l-.2-.8zM65 111c-2.4 0-4-1.6-4-4v-3c0-3.5-2.5-6-6-6H30V21h41.1l22.6 90H65z"/></svg>