<?xml version="1.0" encoding="UTF-8"?> <svg xmlns="http://www.w3.org/2000/svg" width="336" height="256" viewBox="0 0 336 256" fill="none"> <path d="M67.0509 105.203C67.0509 105.203 93.0545 38.291 157.756 39.252C222.457 40.2129 294.443 118.647 296.211 137.164C297.97 155.672 295.913 178.438 252.142 182.771C208.37 187.105 223.937 214.426 163.704 214.137C103.471 213.839 62.6401 192.4 58.2293 160.958C53.8185 129.515 67.0509 105.203 67.0509 105.203Z" fill="#9CD1C2"></path> <path d="M30.9169 134.714C30.9169 134.714 45.8983 89.6256 52.0676 89.7313C58.237 89.837 42.0833 113.054 48.2526 146.841C54.422 180.629 59.7073 194.399 47.3685 187.519C35.0298 180.629 26.2178 154.615 30.9169 134.714Z" fill="#9CD1C2"></path> <path d="M56.4601 199.733C56.4601 199.733 56.0181 193.563 62.716 197.974C69.4139 202.385 86.2307 211.783 92.6595 214.137C99.0883 216.482 79.994 218.836 69.7022 212.081C59.4103 205.325 56.4601 199.733 56.4601 199.733Z" fill="#9CD1C2"></path> <path d="M276.751 181.445C276.751 181.445 259.194 186.346 250.084 188.047C240.974 189.748 240.686 200.386 260.366 196.388C280.047 192.391 295.912 181.224 300.025 171.826C304.138 162.428 307.078 150.964 304.724 153.462C302.379 155.951 295.864 176.477 276.751 181.445Z" fill="#9CD1C2"></path> <path d="M300.879 138.692C300.908 137.587 300.216 130.649 304.185 134.06C308.154 137.472 307.712 145.073 304.185 145.736C300.658 146.409 300.764 143.651 300.879 138.692Z" fill="#9CD1C2"></path> <path d="M92.6492 139.739C94.9473 139.739 96.8102 137.958 96.8102 135.761C96.8102 133.564 94.9473 131.783 92.6492 131.783C90.3512 131.783 88.4883 133.564 88.4883 135.761C88.4883 137.958 90.3512 139.739 92.6492 139.739Z" fill="black"></path> <path d="M296.038 136.049C297.066 142.862 297.172 153.962 293.491 161.524C292.069 164.446 290.253 166.675 288.446 168.818L288.427 168.808C288.427 168.808 274.435 160.727 270.688 156.873C266.94 153.02 259.339 153.789 256.59 150.589C255.408 149.224 253.362 147.513 250.69 145.64C248.71 144.256 246.385 142.776 243.81 141.286C243.81 141.286 247.519 136.933 249.431 135.242C251.334 133.551 257.503 132.743 261.328 131.273C265.143 129.803 270.063 121.068 273.369 119.665C276.674 118.271 285.41 117.339 285.41 117.339C285.41 117.339 295.01 129.236 296.038 136.049Z" fill="#79AA9B"></path> <path d="M192.137 153.452C185.641 153.51 179.116 155.749 174.437 157.834L174.283 157.537C174.283 157.537 170.516 152.78 165.115 148.907L165.432 148.465C165.432 148.465 179.578 141.008 184.978 136.934C184.978 136.934 184.998 136.924 185.026 136.905C185.593 136.597 191.398 133.426 191.33 135.319C191.253 137.299 188.611 139.989 190.148 141.287C191.695 142.584 197.5 139.355 199.191 139.643C200.873 139.941 205.504 147.581 207.561 147.504C209.617 147.437 210.348 141.104 214.682 141.114C219.016 141.114 224.31 141.556 225.848 142.805C227.395 144.054 233.488 149.416 235.765 149.272C238.043 149.118 250.746 156.316 252.361 155.586C253.975 154.855 250.689 145.649 250.689 145.649V145.64C253.36 147.514 255.407 149.224 256.589 150.589C259.337 153.789 266.939 153.02 270.686 156.873C274.434 160.727 288.426 168.809 288.426 168.809C285.197 172.633 281.257 176.006 273.05 178.706C260.25 182.935 246.893 182.704 240.531 184.732C234.17 186.769 222.984 191.977 218.891 196.215L218.612 196.206C218.256 192.602 216.94 177.553 214.499 171.97C211.856 165.906 204.361 153.347 192.137 153.452Z" fill="#79AA9B"></path> <path d="M96.8095 135.761C96.8095 133.56 94.9452 131.783 92.6485 131.783C90.3518 131.783 88.4876 133.56 88.4876 135.761C88.4876 137.962 90.3518 139.739 92.6485 139.739C94.9452 139.739 96.8095 137.962 96.8095 135.761ZM99.0197 135.761C99.0197 138.865 96.5981 141.431 93.4653 141.805L91.6972 141.786C88.6317 141.354 86.2773 138.826 86.2773 135.761C86.2773 132.388 89.1314 129.659 92.6485 129.659C96.1656 129.659 99.0197 132.388 99.0197 135.761Z" fill="#5F2A34"></path> <path d="M108.342 131.1L108.515 141.978L103.815 141.921V141.594V128.448V128.169H108.294L108.342 131.1Z" fill="#5F2A34"></path> <path d="M88.7965 128.169H92.65V129.659C89.1329 129.659 86.2788 132.388 86.2788 135.761C86.2788 138.826 88.6331 141.354 91.6986 141.786L81.1953 141.671L81.5797 128.169H85.5965H88.7965Z" fill="#D23D20"></path> <path d="M103.816 141.594V141.921L93.4662 141.805C96.599 141.431 99.0206 138.865 99.0206 135.761C99.0206 132.388 96.1665 129.659 92.6494 129.659V128.169H98.4921H103.816V128.448V141.594Z" fill="#D23D20"></path> <path d="M214.499 171.97C216.94 177.553 218.257 192.602 218.612 196.205C218.651 196.513 218.67 196.744 218.689 196.868C218.824 197.849 214.019 203.028 209.531 207.074C206.475 209.841 203.563 212.071 202.487 212.071C202.401 212.071 202.314 212.061 202.209 212.032C198.951 211.225 185.171 198.137 177.81 186.067C170.209 173.613 167.595 161.39 167.595 161.39C167.595 161.39 169.094 160.429 171.573 159.189C172.419 158.766 173.38 158.305 174.437 157.834C179.117 155.749 185.642 153.51 192.138 153.452C204.361 153.347 211.857 165.906 214.499 171.97Z" fill="#5F2A34"></path> <path d="M209.532 207.074C209.532 207.074 215.605 220.768 209.321 228.811C202.085 238.075 183.644 225.957 171.276 214.128C168.547 211.514 166.106 208.919 164.155 206.565C153.354 193.563 132.203 154.116 145.426 145.967C146.07 145.573 146.714 145.246 147.367 144.977C153.537 142.411 160.042 145.275 165.116 148.907C170.517 152.78 174.284 157.537 174.284 157.537L174.438 157.835C173.381 158.305 172.42 158.767 171.574 159.189C171.574 159.189 166.029 155.105 163.415 156.172C159.005 157.979 158.13 163.889 162.243 179.6C166.356 195.322 187.805 216.847 191.841 218.75C195.886 220.662 202.133 212.532 202.133 212.532L202.209 212.033C202.315 212.062 202.402 212.071 202.488 212.071C203.564 212.071 206.476 209.842 209.532 207.074Z" fill="#5F2A34"></path> <path d="M250.69 145.649C250.69 145.649 253.976 154.855 252.362 155.586C250.747 156.316 238.044 149.118 235.766 149.272C233.489 149.416 227.396 144.054 225.849 142.805C224.311 141.556 219.017 141.114 214.683 141.114C210.349 141.104 209.618 147.437 207.562 147.504C205.505 147.581 200.874 139.941 199.192 139.643C197.501 139.355 191.696 142.584 190.149 141.287C188.612 139.989 191.254 137.299 191.331 135.319C191.399 133.426 185.594 136.597 185.027 136.905C190.457 132.753 205.803 116.657 209.436 116.772C213.068 116.878 216.374 127.016 219.785 129.438C223.206 131.86 228.05 133.07 237.198 137.702C239.523 138.884 241.743 140.085 243.809 141.287C246.385 142.776 248.71 144.256 250.69 145.64V145.649Z" fill="white"></path> <path d="M117.768 139.739C123.111 139.518 124.159 132.801 124.159 132.801C124.159 132.801 120.853 131.148 117.49 130.764C114.136 130.37 110.83 131.811 110.83 131.811C110.83 131.811 112.425 139.96 117.768 139.739ZM139.419 140.018C144.099 139.845 145.531 132.465 145.531 132.465C145.531 132.465 143.493 131.475 139.198 131.148C134.902 130.812 131.818 132.965 131.818 132.965C132.26 137.202 134.739 140.181 139.419 140.018ZM139.582 129.438C144.983 129.765 148.125 131.475 148.125 131.475C148.125 131.475 146.03 141.921 138.65 141.978C138.4 141.978 138.15 141.969 137.91 141.959C131.155 141.507 129.665 134.339 129.665 134.339L126.033 134.281C126.033 134.281 123.822 141.45 117.711 141.719C117.634 141.719 117.557 141.729 117.48 141.729C111.532 141.729 108.735 131.091 108.735 131.091C108.735 131.091 112.646 129.255 116.827 129.073C119.364 128.957 122.208 130.005 124.053 130.85C125.254 131.398 126.033 131.859 126.033 131.859H130.713C130.713 131.859 134.182 129.111 139.582 129.438Z" fill="#D23D20"></path> <path d="M88.4978 126.536L88.7957 128.17H85.5957V126.536H88.4978Z" fill="#D23D20"></path> <path d="M202.208 212.032L202.131 212.532C202.131 212.532 195.885 220.662 191.84 218.75C187.803 216.847 166.355 195.321 162.242 179.6C158.129 163.888 159.003 157.978 163.414 156.172C166.028 155.105 171.573 159.189 171.573 159.189C169.094 160.429 167.594 161.39 167.594 161.39C167.594 161.39 170.208 173.613 177.809 186.067C185.17 198.137 198.951 211.225 202.208 212.032Z" fill="#D23D20"></path> <path d="M81.5513 194.274C66.9543 184.424 63.3988 175.775 63.3988 175.775C63.3988 175.775 61.3231 163.59 65.436 152.28C69.5489 140.969 81.0036 141.998 81.0036 141.998C81.0036 141.998 92.9291 141.998 108.516 141.998C111.399 141.998 114.407 141.998 117.482 141.998C120.835 141.998 124.266 141.998 127.725 141.998C131.925 141.998 135.259 142.094 137.892 142.247C150.183 142.949 147.368 144.967 147.368 144.967V144.977C146.714 145.246 146.07 145.572 145.426 145.966C132.204 154.115 153.354 193.563 164.156 206.565C166.106 208.919 168.547 211.514 171.276 214.127C159.552 214.329 146.061 213.839 132.684 211.908C117.876 209.765 103.192 205.863 91.1129 199.751C87.3459 197.839 84.415 196.215 81.5513 194.274Z" fill="#707346"></path> <path d="M127.725 115.629C129.1 115.629 130.214 116.754 130.214 118.128C130.214 118.82 129.936 119.435 129.484 119.896C129.032 120.348 128.417 120.626 127.725 120.626H125.515H98.4929H97.6088C96.2347 120.626 95.1104 119.502 95.1104 118.128C95.1104 117.436 95.389 116.821 95.8407 116.36C96.3019 115.908 96.917 115.629 97.6088 115.629H127.725Z" fill="#707346"></path> <path d="M128.494 95.2372L131.867 102.665L127.389 104.02L115.53 95.5255V95.4294C119.643 95.5832 124.131 95.5735 128.494 95.2276V95.2372Z" fill="#D23D20"></path> <path d="M109.178 81.6687L113.617 83.235L115.712 83.975C114.722 89.7023 105.497 89.7407 105.497 89.7407L103.498 88.5684L79.0996 74.2885L86.7008 73.7599L109.178 81.6687Z" fill="#D23D20"></path> <path d="M114.406 56.6164L130.627 75.3455C121.238 79.1317 113.695 83.0044 113.695 83.0044L113.618 83.235L109.178 81.6686L108.131 58.5671L114.406 56.6164Z" fill="#D23D20"></path> <path d="M235.017 82.5333C238.466 81.2745 239.495 92.1429 237.342 91.6144C233.979 90.7784 234.459 82.7351 235.017 82.5333Z" fill="#090909"></path> <path d="M196.05 54.6847C197.097 58.0961 196.155 59.8643 194.455 59.9219C192.744 59.97 188.401 54.5982 191.822 51.7249C191.822 51.7249 195.002 51.2733 196.05 54.6847Z" fill="#090909"></path> <path d="M237.342 91.6147C239.495 92.1432 238.467 81.2747 235.017 82.5336C234.459 82.7354 233.979 90.7786 237.342 91.6147ZM235.026 80.9576C241.57 81.3997 241.791 88.972 238.332 92.9312C238.073 93.2387 237.727 93.527 237.313 93.8153L236.593 93.133C230.308 89.5582 233.393 81.8417 233.393 81.8417L233.306 81.0249C233.921 80.948 234.498 80.9192 235.026 80.9576Z" fill="white"></path> <path d="M236.592 93.1329L237.312 93.8152C235.266 95.2375 231.527 96.4098 227.732 97.2074C222.37 98.3317 216.892 98.7161 215.864 98.005C215.066 97.4477 214.365 96.4483 213.961 95.2278C213.385 93.5366 213.365 91.432 214.394 89.5582C214.394 89.5582 217.545 87.5402 221.562 85.4549C225.349 83.4849 229.913 81.4573 233.305 81.0248L233.392 81.8417C233.392 81.8417 230.307 89.5582 236.592 93.1329Z" fill="white"></path> <path d="M194.454 59.9221C196.155 59.8644 197.097 58.0963 196.049 54.6848C195.002 51.2734 191.821 51.7251 191.821 51.7251C188.4 54.5984 192.744 59.9701 194.454 59.9221ZM196.799 52.9647C197.375 53.8392 197.693 54.9059 197.789 56.1359C197.962 58.2308 197.202 60.1815 195.78 61.623C194.819 62.6032 193.551 63.3623 192.061 63.7755C188.39 64.8038 174.803 67.6674 172.16 67.0044C169.517 66.3413 168.133 59.9701 170.988 58.4134C170.988 58.4134 174.226 56.5683 178.175 54.608C182.855 52.292 188.525 49.8032 190.956 50.0434C193.878 50.3221 195.771 51.3215 196.799 52.9647Z" fill="white"></path> <path d="M244.837 37.6853C243.607 38.358 242.925 47.3622 242.925 47.3622C242.925 47.3622 238.553 49.7454 238.149 47.3622C237.755 45.027 240.215 39.0691 240.331 38.7712C242.012 38.3195 243.531 37.9544 244.837 37.6853Z" fill="white"></path> <path d="M156.882 49.6687L145.052 56.7606L142.045 58.5672L141.237 54.6657L148.012 52.5035H148.022L156.882 49.6687Z" fill="white"></path> <path d="M118.759 37.33L148.01 52.5036L141.235 54.6657L115.395 39.4825C115.395 39.4825 115.213 38.5408 115.972 37.897C116.443 37.4933 117.279 37.2051 118.759 37.33Z" fill="white"></path> <path d="M218.891 104.251L213.952 107.019V102.608L209.435 98.3603L209.128 97.8895L212.78 95.5255L213.962 95.2276C214.365 96.448 215.067 97.4474 215.864 98.0048C216.893 98.7159 222.37 98.3315 227.732 97.2072L233.508 108.393L226.569 113.188L219.18 104.76L218.891 104.251Z" fill="white"></path> <path d="M214.393 89.5581C213.365 91.4319 213.384 93.5364 213.961 95.2277L212.779 95.5256L209.127 97.8896L205.101 100.503V95.7082L201.458 91.3743L201.372 91.2397L195.693 94.6223L195.51 90.7304L180.135 83.0043C193.886 79.3526 207.897 75.5472 217.785 72.7316L221.514 85.0704L221.562 85.4548C217.545 87.54 214.393 89.5581 214.393 89.5581Z" fill="white"></path> <path d="M145.049 56.7604L156.879 49.6685L148.019 52.5034H148.009L118.758 37.3298C117.278 37.2049 116.442 37.4932 115.971 37.8968L115.942 37.7334L95.4062 24.2223L106.092 24.77L178.068 54.2619L178.174 54.6079C174.224 56.5682 170.986 58.4133 170.986 58.4133C168.132 59.97 169.516 66.3412 172.158 67.0043C174.801 67.6673 188.389 64.8037 192.06 63.7754C193.549 63.3622 194.818 62.6031 195.779 61.6229L195.961 61.8151L199.815 64.4385C199.815 64.4385 193.895 69.2145 187.947 70.4541C181.998 71.7034 176.713 71.9244 176.713 71.9244L170.323 76.9214C170.323 76.9214 163.731 70.3292 158.609 65.5628C156.495 63.6025 154.63 61.9496 153.573 61.2001C149.979 58.6343 145.203 57.0199 145.203 57.0199L145.049 56.7604Z" fill="white"></path> <path d="M113.694 83.0045C113.694 83.0045 121.238 79.1318 130.627 75.3456C131.636 74.942 132.664 74.5384 133.711 74.1444C138.535 72.2994 158.6 65.5727 158.6 65.5727L158.61 65.5631C163.732 70.3294 170.324 76.9216 170.324 76.9216L176.714 71.9246C176.714 71.9246 182 71.7036 187.948 70.4543C193.896 69.2147 199.816 64.4387 199.816 64.4387L195.962 61.8153L195.78 61.6231C197.202 60.1817 197.961 58.2309 197.788 56.136C197.692 54.906 197.375 53.8393 196.798 52.9649C197.913 52.5613 225.377 42.721 240.33 38.7715C240.215 39.0694 237.755 45.0273 238.148 47.3625C238.552 49.7456 242.924 47.3625 242.924 47.3625C242.924 47.3625 243.607 38.3583 244.837 37.6856C245.673 37.503 246.413 37.3685 247.057 37.282C257.964 35.7348 276.087 40.8568 275.866 48.3522C275.645 55.8381 242.377 65.0922 228.712 69.503C226.358 70.2622 222.552 71.3865 217.786 72.7318C207.897 75.5474 193.887 79.3528 180.135 83.0045C162.098 87.7805 144.512 92.3066 137.267 93.9594C134.518 94.5841 131.54 94.9877 128.493 95.2279C124.13 95.5739 119.643 95.5835 115.53 95.4297C106.42 95.0934 99.1455 93.9594 99.1455 93.9594L103.364 88.8087L103.499 88.5685L105.497 89.7408C105.497 89.7408 114.723 89.7024 115.712 83.9751L113.618 83.2351L113.694 83.0045Z" fill="white"></path> <path d="M174.284 157.537C174.284 157.537 170.517 152.78 165.116 148.907C160.042 145.275 153.537 142.411 147.367 144.977C146.714 145.246 146.07 145.573 145.426 145.967C132.203 154.116 153.354 193.563 164.155 206.565C166.106 208.919 168.547 211.514 171.276 214.128C183.644 225.957 202.085 238.075 209.321 228.811C215.605 220.768 209.532 207.074 209.532 207.074" stroke="black" stroke-width="1.99736" stroke-miterlimit="10" stroke-linecap="round" stroke-linejoin="round"></path> <path d="M202.209 212.032C198.951 211.225 185.171 198.137 177.81 186.067C170.209 173.613 167.595 161.39 167.595 161.39C167.595 161.39 169.094 160.429 171.573 159.189C172.419 158.766 173.38 158.305 174.437 157.834C179.117 155.749 185.642 153.51 192.138 153.452C204.361 153.347 211.857 165.906 214.499 171.97C216.94 177.553 218.257 192.602 218.612 196.205C218.651 196.513 218.67 196.744 218.689 196.868C218.824 197.849 214.019 203.028 209.531 207.074C206.475 209.841 203.563 212.071 202.487 212.071C202.401 212.071 202.314 212.061 202.209 212.032Z" stroke="black" stroke-width="1.99736" stroke-miterlimit="10" stroke-linecap="round" stroke-linejoin="round"></path> <path d="M191.839 218.75C187.803 216.847 166.354 195.321 162.241 179.6C161.232 175.737 160.521 172.46 160.089 169.702" stroke="black" stroke-width="0.960961" stroke-miterlimit="10" stroke-linecap="round" stroke-linejoin="round"></path> <path d="M191.917 158.526C191.917 158.526 206.014 174.613 209.099 178.351C212.184 182.099 215.268 188.931 215.268 188.931" stroke="black" stroke-width="0.960961" stroke-miterlimit="10" stroke-linecap="round" stroke-linejoin="round"></path> <path d="M275.866 48.3522C275.645 55.8381 242.377 65.0922 228.712 69.503C226.358 70.2621 222.552 71.3865 217.786 72.7318C207.897 75.5474 193.887 79.3528 180.135 83.0045C162.098 87.7805 144.512 92.3066 137.267 93.9594C134.518 94.5841 131.54 94.9877 128.493 95.2279C124.13 95.5738 119.643 95.5835 115.53 95.4297C106.42 95.0934 99.1455 93.9594 99.1455 93.9594L103.364 88.8087" stroke="black" stroke-width="0.960961" stroke-miterlimit="10" stroke-linecap="round" stroke-linejoin="round"></path> <path d="M196.761 52.9745C196.761 52.9745 196.77 52.9745 196.799 52.9649C197.914 52.5613 225.378 42.721 240.331 38.7715C242.012 38.3198 243.531 37.9546 244.838 37.6856C245.674 37.503 246.414 37.3685 247.057 37.282C257.964 35.7348 276.088 40.8568 275.867 48.3522" stroke="black" stroke-width="0.960961" stroke-miterlimit="10" stroke-linecap="round" stroke-linejoin="round"></path> <path d="M195.78 61.623C194.819 62.6032 193.551 63.3623 192.061 63.7755C188.39 64.8038 174.803 67.6674 172.16 67.0044C169.517 66.3413 168.133 59.9701 170.988 58.4134C170.988 58.4134 174.226 56.5683 178.175 54.608C182.855 52.292 188.525 49.8032 190.956 50.0434C193.878 50.3221 195.771 51.3215 196.799 52.9647C197.375 53.8392 197.693 54.9059 197.789 56.1359C197.962 58.2308 197.202 60.1815 195.78 61.623Z" stroke="black" stroke-width="0.960961" stroke-miterlimit="10" stroke-linecap="round" stroke-linejoin="round"></path> <path d="M178.068 54.2619L106.092 24.77L95.4062 24.2223L115.942 37.7334" stroke="black" stroke-width="0.960961" stroke-miterlimit="10" stroke-linecap="round" stroke-linejoin="round"></path> <path d="M195.963 61.8151L199.816 64.4385C199.816 64.4385 193.897 69.2145 187.949 70.4541C182 71.7034 176.715 71.9244 176.715 71.9244L170.325 76.9214C170.325 76.9214 163.732 70.3292 158.61 65.5628C156.496 63.6025 154.632 61.9496 153.575 61.2001C149.981 58.6343 145.205 57.0199 145.205 57.0199" stroke="black" stroke-width="0.960961" stroke-miterlimit="10" stroke-linecap="round" stroke-linejoin="round"></path> <path d="M145.052 56.7604L142.045 58.567L141.237 54.6655" stroke="black" stroke-width="0.960961" stroke-miterlimit="10" stroke-linecap="round" stroke-linejoin="round"></path> <path d="M148.01 52.5036L141.235 54.6657L115.395 39.4825C115.395 39.4825 115.213 38.5408 115.972 37.897C116.443 37.4933 117.279 37.2051 118.759 37.33L148.01 52.5036ZM148.01 52.5036L156.88 49.6687L145.05 56.7606" stroke="black" stroke-width="0.960961" stroke-miterlimit="10" stroke-linecap="round" stroke-linejoin="round"></path> <path d="M190.101 50.9948C190.101 50.9948 185.853 58.2693 193.791 61.623" stroke="black" stroke-width="0.960961" stroke-miterlimit="10" stroke-linecap="round" stroke-linejoin="round"></path> <path d="M191.822 51.7249C191.822 51.7249 195.002 51.2733 196.05 54.6847C197.097 58.0961 196.155 59.8643 194.455 59.9219C192.744 59.97 188.401 54.5982 191.822 51.7249Z" stroke="black" stroke-width="0.960961" stroke-miterlimit="10" stroke-linecap="round" stroke-linejoin="round"></path> <path d="M158.6 65.5724C158.6 65.5724 138.535 72.2992 133.711 74.1442C132.664 74.5382 131.635 74.9418 130.626 75.3454C121.238 79.1316 113.694 83.0043 113.694 83.0043" stroke="black" stroke-width="0.960961" stroke-miterlimit="10" stroke-linecap="round" stroke-linejoin="round"></path> <path d="M105.497 89.7407C105.497 89.7407 114.722 89.7023 115.712 83.975L113.617 83.235L109.178 81.6687L86.7008 73.7599L79.0996 74.2885" stroke="black" stroke-width="0.960961" stroke-miterlimit="10" stroke-linecap="round" stroke-linejoin="round"></path> <path d="M130.626 75.3455L114.405 56.6164" stroke="black" stroke-width="0.960961" stroke-miterlimit="10" stroke-linecap="round" stroke-linejoin="round"></path> <path d="M213.961 95.2279C213.385 93.5366 213.365 91.4321 214.394 89.5582C214.394 89.5582 217.545 87.5402 221.562 85.4549C225.349 83.485 229.913 81.4573 233.305 81.0249C233.92 80.948 234.497 80.9192 235.025 80.9576C241.57 81.3997 241.791 88.972 238.331 92.9312C238.072 93.2387 237.726 93.527 237.312 93.8153C235.266 95.2375 231.527 96.4099 227.732 97.2075C222.37 98.3318 216.892 98.7162 215.864 98.0051C215.066 97.4477 214.365 96.4483 213.961 95.2279Z" stroke="black" stroke-width="0.960961" stroke-miterlimit="10" stroke-linecap="round" stroke-linejoin="round"></path> <path d="M233.393 81.8414C233.393 81.8414 230.308 89.5579 236.593 93.1327" stroke="black" stroke-width="0.960961" stroke-miterlimit="10" stroke-linecap="round" stroke-linejoin="round"></path> <path d="M235.017 82.5333C234.459 82.7351 233.979 90.7784 237.342 91.6144C239.495 92.1429 238.466 81.2745 235.017 82.5333Z" stroke="black" stroke-width="0.960961" stroke-miterlimit="10" stroke-linecap="round" stroke-linejoin="round"></path> <path d="M180.135 83.0044L195.51 90.7305L195.693 94.6224L201.372 91.2398L209.434 86.435H203.006L195.731 90.6152" stroke="black" stroke-width="0.960961" stroke-miterlimit="10" stroke-linecap="round" stroke-linejoin="round"></path> <path d="M226.569 113.188L219.179 104.761" stroke="black" stroke-width="0.960961" stroke-miterlimit="10" stroke-linecap="round" stroke-linejoin="round"></path> <path d="M225.743 100.407L218.891 104.251L213.952 107.019V102.608L209.436 98.3604" stroke="black" stroke-width="0.960961" stroke-miterlimit="10" stroke-linecap="round" stroke-linejoin="round"></path> <path d="M212.78 95.5256L209.128 97.8896L205.102 100.503V95.7082L201.46 91.3743" stroke="black" stroke-width="0.960961" stroke-miterlimit="10" stroke-linecap="round" stroke-linejoin="round"></path> <path d="M210.348 93.1329L205.102 95.7083" stroke="black" stroke-width="0.960961" stroke-miterlimit="10" stroke-linecap="round" stroke-linejoin="round"></path> <path d="M240.34 38.7616C240.34 38.7616 240.34 38.7616 240.331 38.7712C240.215 39.0691 237.755 45.0271 238.149 47.3622C238.553 49.7454 242.925 47.3622 242.925 47.3622C242.925 47.3622 243.607 38.358 244.837 37.6853C244.837 37.6757 244.847 37.6757 244.847 37.6757" stroke="black" stroke-width="0.960961" stroke-miterlimit="10" stroke-linecap="round" stroke-linejoin="round"></path> <path d="M147.367 144.967C147.367 144.967 150.183 142.949 137.892 142.247C135.259 142.094 131.924 141.998 127.725 141.998C124.266 141.998 120.835 141.998 117.481 141.998C114.406 141.998 111.398 141.998 108.515 141.998C92.9286 141.998 81.0031 141.998 81.0031 141.998C81.0031 141.998 69.5485 140.969 65.4355 152.28" stroke="black" stroke-width="0.960961" stroke-miterlimit="10" stroke-linecap="round" stroke-linejoin="round"></path> <path d="M129.484 119.896C129.032 120.348 128.417 120.626 127.725 120.626H125.515H98.4929H97.6088C96.2347 120.626 95.1104 119.502 95.1104 118.128C95.1104 117.436 95.389 116.821 95.8407 116.36C96.3019 115.908 96.917 115.629 97.6088 115.629" stroke="black" stroke-width="0.960961" stroke-miterlimit="10" stroke-linecap="round" stroke-linejoin="round"></path> <path d="M98.4922 121.462V127.526" stroke="black" stroke-width="1.99736" stroke-miterlimit="10" stroke-linecap="round" stroke-linejoin="round"></path> <path d="M125.513 121.183V131.321" stroke="black" stroke-width="1.99736" stroke-miterlimit="10" stroke-linecap="round" stroke-linejoin="round"></path> <path d="M285.878 167.309C285.878 167.309 274.433 160.727 270.686 156.873C266.938 153.02 259.337 153.789 256.588 150.589C255.406 149.224 253.359 147.514 250.688 145.64C248.708 144.256 246.383 142.776 243.808 141.287C241.741 140.085 239.522 138.884 237.196 137.702C237.196 137.702 225.962 132.705 223.743 131.61C221.523 130.514 218.457 129.409 216.228 124.825C213.999 120.242 211.5 117.724 210.126 116.907C210.126 116.907 209.098 115.648 204.37 119.665C199.642 123.682 192.233 129.803 189.763 132.782C187.293 135.761 175.55 143.401 172.043 144.861" stroke="black" stroke-width="0.960961" stroke-miterlimit="10" stroke-linecap="round" stroke-linejoin="round"></path> <path d="M81.1953 152.578V181.282V186.827" stroke="black" stroke-width="0.960961" stroke-miterlimit="10" stroke-linecap="round" stroke-linejoin="round"></path> <path d="M127.244 152.578V200.376" stroke="black" stroke-width="0.960961" stroke-miterlimit="10" stroke-linecap="round" stroke-linejoin="round"></path> <path d="M108.735 131.091C108.735 131.091 112.646 129.255 116.827 129.073C119.364 128.957 122.208 130.005 124.053 130.85C125.254 131.398 126.033 131.859 126.033 131.859H130.713C130.713 131.859 134.182 129.111 139.582 129.438C144.983 129.765 148.125 131.475 148.125 131.475C148.125 131.475 146.03 141.921 138.65 141.978C138.4 141.978 138.15 141.969 137.91 141.959C131.155 141.507 129.665 134.339 129.665 134.339L126.033 134.281C126.033 134.281 123.822 141.45 117.711 141.719C117.634 141.719 117.557 141.729 117.48 141.729C111.532 141.729 108.735 131.091 108.735 131.091Z" stroke="black" stroke-width="0.960961" stroke-miterlimit="10" stroke-linecap="round" stroke-linejoin="round"></path> <path d="M110.831 131.812C110.831 131.812 114.137 130.37 117.491 130.764C120.854 131.149 124.16 132.801 124.16 132.801C124.16 132.801 123.112 139.519 117.769 139.74C112.426 139.961 110.831 131.812 110.831 131.812Z" stroke="black" stroke-width="0.960961" stroke-miterlimit="10" stroke-linecap="round" stroke-linejoin="round"></path> <path d="M131.817 132.965C131.817 132.965 134.902 130.812 139.198 131.148C143.493 131.475 145.53 132.465 145.53 132.465C145.53 132.465 144.098 139.845 139.419 140.018C134.739 140.182 132.259 137.203 131.817 132.965Z" stroke="black" stroke-width="0.960961" stroke-miterlimit="10" stroke-linecap="round" stroke-linejoin="round"></path> <path d="M88.7965 128.169H92.65H98.4926H103.816H108.294L108.342 131.1L108.515 141.978L103.816 141.921L93.4668 141.805L91.6986 141.786L81.1953 141.671L81.5797 128.169H85.5965" stroke="black" stroke-width="0.960961" stroke-miterlimit="10" stroke-linecap="round" stroke-linejoin="round"></path> <path d="M103.815 128.448V141.594" stroke="black" stroke-width="0.960961" stroke-miterlimit="10" stroke-linecap="round" stroke-linejoin="round"></path> <path d="M85.5957 128.17V126.536H88.4978L88.7957 128.17H85.5957Z" stroke="black" stroke-width="0.960961" stroke-miterlimit="10" stroke-linecap="round" stroke-linejoin="round"></path> <path d="M92.6492 139.739C94.9473 139.739 96.8102 137.958 96.8102 135.761C96.8102 133.564 94.9473 131.783 92.6492 131.783C90.3512 131.783 88.4883 133.564 88.4883 135.761C88.4883 137.958 90.3512 139.739 92.6492 139.739Z" stroke="black" stroke-width="0.960961" stroke-miterlimit="10" stroke-linecap="round" stroke-linejoin="round"></path> <path d="M92.6485 129.659C96.1656 129.659 99.0197 132.388 99.0197 135.761C99.0197 138.865 96.5981 141.431 93.4653 141.805C93.1963 141.844 92.9272 141.863 92.6485 141.863C92.3218 141.863 92.0047 141.844 91.6972 141.786C88.6317 141.354 86.2773 138.826 86.2773 135.761C86.2773 132.388 89.1314 129.659 92.6485 129.659Z" stroke="black" stroke-width="0.960961" stroke-miterlimit="10" stroke-linecap="round" stroke-linejoin="round"></path> <path d="M204.073 54.8964C204.7 54.8964 205.207 54.3887 205.207 53.7625C205.207 53.1362 204.7 52.6285 204.073 52.6285C203.447 52.6285 202.939 53.1362 202.939 53.7625C202.939 54.3887 203.447 54.8964 204.073 54.8964Z" fill="black"></path> <path d="M209.434 53.2627C210.06 53.2627 210.568 52.755 210.568 52.1287C210.568 51.5025 210.06 50.9948 209.434 50.9948C208.807 50.9948 208.3 51.5025 208.3 52.1287C208.3 52.755 208.807 53.2627 209.434 53.2627Z" fill="black"></path> <path d="M219.316 50.0337C219.942 50.0337 220.45 49.526 220.45 48.8997C220.45 48.2735 219.942 47.7658 219.316 47.7658C218.689 47.7658 218.182 48.2735 218.182 48.8997C218.182 49.526 218.689 50.0337 219.316 50.0337Z" fill="black"></path> <path d="M214.433 51.7059C215.059 51.7059 215.567 51.1982 215.567 50.5719C215.567 49.9457 215.059 49.438 214.433 49.438C213.807 49.438 213.299 49.9457 213.299 50.5719C213.299 51.1982 213.807 51.7059 214.433 51.7059Z" fill="black"></path> <path d="M145.396 74.6727C146.022 74.6727 146.53 74.165 146.53 73.5387C146.53 72.9125 146.022 72.4048 145.396 72.4048C144.769 72.4048 144.262 72.9125 144.262 73.5387C144.262 74.165 144.769 74.6727 145.396 74.6727Z" fill="black"></path> <path d="M150.758 73.0296C151.384 73.0296 151.892 72.5219 151.892 71.8957C151.892 71.2694 151.384 70.7617 150.758 70.7617C150.132 70.7617 149.624 71.2694 149.624 71.8957C149.624 72.5219 150.132 73.0296 150.758 73.0296Z" fill="black"></path> <path d="M155.746 71.4728C156.373 71.4728 156.88 70.9651 156.88 70.3388C156.88 69.7126 156.373 69.2049 155.746 69.2049C155.12 69.2049 154.612 69.7126 154.612 70.3388C154.612 70.9651 155.12 71.4728 155.746 71.4728Z" fill="black"></path> <path d="M135.115 78.1131C135.742 78.1131 136.249 77.6054 136.249 76.9791C136.249 76.3529 135.742 75.8452 135.115 75.8452C134.489 75.8452 133.981 76.3529 133.981 76.9791C133.981 77.6054 134.489 78.1131 135.115 78.1131Z" fill="black"></path> <path d="M140.102 76.5563C140.728 76.5563 141.236 76.0486 141.236 75.4223C141.236 74.7961 140.728 74.2884 140.102 74.2884C139.475 74.2884 138.968 74.7961 138.968 75.4223C138.968 76.0486 139.475 76.5563 140.102 76.5563Z" fill="black"></path> <path d="M224.022 48.4195C224.648 48.4195 225.156 47.9118 225.156 47.2855C225.156 46.6593 224.648 46.1516 224.022 46.1516C223.395 46.1516 222.888 46.6593 222.888 47.2855C222.888 47.9118 223.395 48.4195 224.022 48.4195Z" fill="black"></path> <path d="M253.515 37.0801C253.515 37.0801 250.949 41.0008 255.11 41.0008C259.271 41.0008 262.288 38.7714 262.288 38.7714C262.288 38.7714 255.571 36.8206 253.342 37.0801" fill="#090909"></path> </svg> 