<?xml version="1.0" encoding="UTF-8"?> <svg xmlns="http://www.w3.org/2000/svg" width="88" height="88" viewBox="0 0 88 88" fill="none"> <path d="M70.6114 55.5763C72.8796 65.3865 74.9866 74.3662 74.9866 74.3662L75.4266 74.7938C67.4447 82.9431 56.3145 88 44.0007 88C31.532 88 20.2779 82.8129 12.2773 74.4839L12.3951 74.3662L16.7455 55.8242L17.6317 52.0625L18.648 47.7245L26.6486 13.6338L33.4655 27.8873C33.4655 27.8873 50.8176 29.1267 52.6768 27.8873C54.5111 26.6665 68.4114 15.1831 68.7832 14.8794C68.7461 14.991 68.3185 16.2304 67.7545 18.0028C66.5151 21.9318 64.6497 28.4575 65.0711 30.9859C65.2942 32.3369 66.67 38.4411 68.3247 45.6608C68.7027 47.3031 69.0931 49.0073 69.4897 50.7301C69.8616 52.3414 70.2396 53.9713 70.6114 55.5763ZM49.5782 42.1408C49.5782 41.4591 49.0266 40.9014 48.3387 40.9014C47.6571 40.9014 47.0993 41.4591 47.0993 42.1408C47.0993 42.8287 47.6571 43.3803 48.3387 43.3803C49.0266 43.3803 49.5782 42.8287 49.5782 42.1408ZM37.8035 42.1408C37.8035 41.4591 37.252 40.9014 36.5641 40.9014C35.8824 40.9014 35.3247 41.4591 35.3247 42.1408C35.3247 42.8287 35.8824 43.3803 36.5641 43.3803C37.252 43.3803 37.8035 42.8287 37.8035 42.1408Z" fill="#FFC9A3"></path> <path d="M70.6107 55.5763C70.2389 53.9713 69.8608 52.3414 69.489 50.7301C69.0924 49.0073 68.702 47.3031 68.3239 45.6608C66.6693 38.4411 65.2935 32.3369 65.0704 30.9859C64.649 28.4575 66.5144 21.9318 67.7538 18.0028C68.3177 16.2304 68.7454 14.991 68.7825 14.8794C68.4107 15.1831 54.5104 26.6665 52.6761 27.8873C50.8169 29.1268 33.4648 27.8873 33.4648 27.8873L26.6479 13.6338L18.6473 47.7245L17.631 52.0625L16.7448 55.8242L12.3944 74.3662L12.2766 74.4839C4.67268 66.5763 0 55.8366 0 44C0 19.7008 19.7008 0 44 0C68.2992 0 88 19.7008 88 44C88 55.9915 83.2034 66.8614 75.4259 74.7938L74.9859 74.3662C74.9859 74.3662 72.8789 65.3865 70.6107 55.5763Z" fill="#B7EEFF"></path> <path d="M48.3371 43.3802C49.0216 43.3802 49.5765 42.8253 49.5765 42.1408C49.5765 41.4563 49.0216 40.9014 48.3371 40.9014C47.6526 40.9014 47.0977 41.4563 47.0977 42.1408C47.0977 42.8253 47.6526 43.3802 48.3371 43.3802Z" fill="black"></path> <path d="M43.9996 50.1972C43.9996 51.2259 43.1691 52.0563 42.1404 52.0563C42.1342 52.0563 42.128 52.0563 42.1218 52.0563C42.1342 51.7712 42.1404 51.5667 42.1404 51.48C42.128 51.5667 42.1156 51.7712 42.1032 52.0563C41.0931 52.0377 40.2812 51.2135 40.2812 50.1972C40.2812 49.1746 41.1117 48.338 42.1404 48.338C43.1691 48.338 43.9996 49.1746 43.9996 50.1972Z" fill="black"></path> <path d="M42.1407 51.48C42.1407 51.5667 42.1345 51.7712 42.1221 52.0563C42.1159 52.0563 42.1097 52.0563 42.1035 52.0563C42.1159 51.7712 42.1283 51.5667 42.1407 51.48Z" fill="black"></path> <path d="M36.5637 43.3802C37.2482 43.3802 37.8031 42.8253 37.8031 42.1408C37.8031 41.4563 37.2482 40.9014 36.5637 40.9014C35.8791 40.9014 35.3242 41.4563 35.3242 42.1408C35.3242 42.8253 35.8791 43.3802 36.5637 43.3802Z" fill="black"></path> <path d="M68.7888 14.8732C68.7888 14.8732 68.7888 14.8732 68.7826 14.8794C68.7454 14.9909 68.3178 16.2304 67.7539 18.0027C66.5145 21.9318 64.6491 28.4574 65.0705 30.9858C65.2936 32.3368 66.6694 38.4411 68.324 45.6608C68.7021 47.303 69.0925 49.0073 69.4891 50.7301C69.8609 52.3413 70.239 53.9712 70.6108 55.5763C72.879 65.3864 74.986 74.3661 74.986 74.3661" stroke="black" stroke-width="0.5" stroke-miterlimit="10" stroke-linecap="round" stroke-linejoin="round"></path> <path d="M12.3945 74.3662L16.745 55.8242L17.6312 52.0625L18.6475 47.7245L26.6481 13.6338L33.465 27.8873C33.465 27.8873 50.8171 29.1267 52.6762 27.8873C54.5106 26.6665 68.4109 15.1831 68.7827 14.8794" stroke="black" stroke-width="0.5" stroke-miterlimit="10" stroke-linecap="round" stroke-linejoin="round"></path> <path d="M30.9863 35.9436C30.9863 35.9436 34.0849 34.0845 35.3244 34.0845" stroke="black" stroke-width="0.5" stroke-miterlimit="10" stroke-linecap="round" stroke-linejoin="round"></path> <path d="M49.5762 34.0845C49.5762 34.0845 51.4353 34.0845 53.2945 35.3239" stroke="black" stroke-width="0.5" stroke-miterlimit="10" stroke-linecap="round" stroke-linejoin="round"></path> <path d="M26.4434 15.1583L27.2676 29.7465" stroke="black" stroke-width="0.5" stroke-miterlimit="10" stroke-linecap="round" stroke-linejoin="round"></path> <path d="M68.2186 17.1848L67.7538 18.0028L60.7324 30.3662" stroke="black" stroke-width="0.5" stroke-miterlimit="10" stroke-linecap="round" stroke-linejoin="round"></path> <path d="M42.0907 51.4272C42.0721 53.2058 42.351 56.5337 44.6191 56.5337C47.7177 56.5337 48.3374 54.0548 48.3374 54.0548" stroke="black" stroke-width="0.5" stroke-miterlimit="10" stroke-linecap="round" stroke-linejoin="round"></path> <path d="M36.5625 54.0549C36.5625 54.0549 39.6611 57.7732 40.9005 55.914C41.7124 54.6932 41.9912 52.6729 42.0904 51.4272" stroke="black" stroke-width="0.5" stroke-miterlimit="10" stroke-linecap="round" stroke-linejoin="round"></path> <path d="M52.6758 48.9577L68.3237 45.6608L76.2251 44" stroke="black" stroke-width="0.2" stroke-miterlimit="10" stroke-linecap="round" stroke-linejoin="round"></path> <path d="M52.6758 52.0563L69.4887 50.7301L76.2251 50.1971" stroke="black" stroke-width="0.2" stroke-miterlimit="10" stroke-linecap="round" stroke-linejoin="round"></path> <path d="M55.7734 55.2665L70.6095 55.5763L74.9909 55.6693" stroke="black" stroke-width="0.2" stroke-miterlimit="10" stroke-linecap="round" stroke-linejoin="round"></path> <path d="M29.4362 49.2675L18.6469 47.7244L7.74609 46.1689" stroke="black" stroke-width="0.2" stroke-miterlimit="10" stroke-linecap="round" stroke-linejoin="round"></path> <path d="M26.9574 52.3662L17.6306 52.0625L7.74609 51.7465" stroke="black" stroke-width="0.2" stroke-miterlimit="10" stroke-linecap="round" stroke-linejoin="round"></path> <path d="M27.5779 55.4647L16.7452 55.8242L8.98633 56.0844" stroke="black" stroke-width="0.2" stroke-miterlimit="10" stroke-linecap="round" stroke-linejoin="round"></path> </svg> 