<?xml version="1.0" encoding="UTF-8"?> <svg xmlns="http://www.w3.org/2000/svg" width="623" height="665" viewBox="0 0 623 665" fill="none"> <path d="M242.813 155.38C264.508 130.325 308.245 67.8414 328.741 54.4347C349.238 41.028 396.538 10.2713 472.218 47.337C547.898 84.4027 570.76 173.518 577.855 192.445C584.95 211.372 607.023 322.57 589.68 379.351C572.336 436.133 535.285 544.175 405.998 548.118C276.711 552.061 197.09 550.484 149.79 533.923C102.49 517.362 22.0798 491.337 30.7515 372.253C39.4231 253.17 136.388 220.836 168.71 209.007C201.031 197.177 227.843 172.666 242.813 155.38Z" fill="#9CD1C2"></path> <path d="M370.524 270.52C370.524 270.52 372.101 278.406 372.889 279.983C373.677 281.561 377.619 291.813 379.196 294.179C380.772 296.545 380.914 298.682 382.026 298.406C383.137 298.122 391.021 298.911 393.386 298.122C395.751 297.333 413.094 293.39 418.612 291.024C424.131 288.658 442.696 278.982 446.819 275.93C450.934 272.886 460.938 265.946 463.429 263.895C465.912 261.845 467.489 261.056 467.489 261.056C467.489 261.056 468.861 267.641 470.54 270.662C472.219 273.674 475.443 281.229 478.951 286.127C482.459 291.024 488.932 300.559 495.948 308.019C502.964 315.48 516.027 329.131 518.557 332.159C521.096 335.188 532.731 348.334 536.374 355.566C540.016 362.798 543.839 367.813 547.836 377.135C551.833 386.457 556.342 400.329 557.241 406.401C558.139 412.474 561.111 424.737 560.016 433.987C558.928 443.238 559.716 462.165 557.351 483.458C555.893 496.589 554.024 512.33 551.044 527.622C549.263 536.738 546.606 545.942 544.738 553.647C538.431 579.671 508.474 661.689 487.978 664.055C467.481 666.421 428.537 645.057 425.699 643.551C422.861 642.044 383.39 615.57 360.008 598.015C336.618 580.46 313.543 567.684 308.529 565.397C303.516 563.11 278.289 552.858 277.501 552.858C276.712 552.858 276.712 552.069 277.501 550.492C278.289 548.915 281.923 540.855 284.044 537.787C286.172 534.719 299.085 517.614 300.512 516.305C301.939 514.996 298.636 515.39 294.371 515.587C290.114 515.784 268.829 518.15 268.829 518.15L268.041 516.573C268.041 516.573 268.498 493.987 269.452 486.353C270.406 478.719 271.911 464.949 271.911 464.949C271.911 464.949 259.369 472.41 253.062 476.353C246.756 480.296 225.967 493.024 209.948 498.49C193.937 503.955 175.664 510.895 166.275 502.693C156.886 494.491 146.574 472.417 146.574 472.417C146.574 472.417 134.276 443.459 132.968 439.8C131.659 436.14 125.345 418.791 124.556 412.481C123.768 406.172 122.191 395.132 122.191 395.132C122.191 395.132 108.79 393.554 108.79 386.457C108.79 379.359 111.943 373.05 111.155 371.473C110.366 369.895 107.213 362.009 107.213 355.7C107.213 349.391 116.586 337.427 116.586 337.427C116.586 337.427 116.712 348.508 119.456 350.132C122.199 351.757 132.306 353.161 144.201 348.91C156.097 344.659 169.877 335.014 172.842 330.763C175.806 326.521 176.499 324.92 176.153 322.956C175.806 321 172.723 313.414 172.723 313.414C172.723 313.414 175.262 312.838 177.509 314.549C179.755 316.26 185.132 321.276 185.597 325.077C186.062 328.879 188.238 334.785 188.727 338.137C189.215 341.497 192.369 345.44 193.945 347.017C195.522 348.594 197.666 350.172 197.382 353.72C197.099 357.269 196.271 361.205 193.535 363.578C190.792 365.944 189.341 367.387 190.067 368.641C190.792 369.895 200.812 392.024 202.112 395.55C203.413 399.075 204.194 396.709 205.77 395.92C207.347 395.132 238.092 370.684 242.822 366.741C247.552 362.798 272.731 342.065 280.244 335.479C287.757 328.886 310.619 314.021 316.137 310.417C321.655 306.805 340.181 294.762 345.108 291.718C350.035 288.674 357.343 282.215 360.394 279.92C363.445 277.625 370.083 269.573 370.083 269.573L370.524 270.52Z" fill="#707346"></path> <path d="M300.361 515.784C300.361 515.784 288.536 529.191 286.171 533.134C283.806 537.077 276.49 552.464 276.49 552.464C276.49 552.464 263.309 548.118 260.944 548.118C258.579 548.118 221.528 546.541 215.221 546.541C208.914 546.541 198.666 544.175 198.666 544.175C198.666 544.175 205.761 538.655 215.221 534.712C224.681 530.768 238.414 523.545 253.621 520.847C268.828 518.15 287.629 515.784 291.626 515.784C295.631 515.784 300.361 515.784 300.361 515.784Z" fill="#EDAC9A"></path> <path d="M81.9939 115.159C81.9939 115.159 75.6873 104.119 81.9939 101.753C88.3006 99.3867 91.722 102.257 97.1063 111.469C102.491 120.68 109.452 132.975 113.062 139.844C116.681 146.713 126.472 167.69 133.795 174.157C141.119 180.624 147.402 181.775 150.957 176.468C154.513 171.16 159.227 165.356 160.023 150.908C160.819 136.46 171.533 135.333 174.458 135.892C177.374 136.46 179.731 142.517 178.557 148.952C177.374 155.387 172.621 171.925 169.877 179.819C167.134 187.721 160.472 214.764 157.887 220.56C155.301 226.356 152.936 230.3 152.936 230.3C152.936 230.3 153.724 243.706 155.301 251.593C156.878 259.479 164.761 286.292 167.126 295.756C169.491 305.22 176.586 324.147 176.586 324.147C176.586 324.147 170.942 335.479 163.91 338.492C156.878 341.497 142.688 352.538 131.651 351.749C120.614 350.96 118.565 351.426 118.013 347.64C117.461 343.863 112.392 305.385 112.392 305.385C112.392 305.385 108.45 274.061 107.631 270.118C106.811 266.174 103.657 251.979 103.657 251.979C103.657 251.979 94.3313 242.381 91.8954 240.087C89.4673 237.784 75.4665 220.702 73.4011 216.625C71.3357 212.548 61.0873 199.141 59.5107 197.564C57.934 195.986 43.7913 181.144 40.6143 178.313C37.4373 175.482 30.6183 164.969 30.4842 161.547C30.3502 158.124 33.811 154.646 37.595 157.178C41.379 159.709 57.1457 176.27 60.299 179.425C63.4523 182.579 68.1823 188.889 71.3357 187.311C74.489 185.734 73.1252 183.636 71.446 181.531C69.759 179.425 54.9304 159.307 53.2828 157.138C51.6352 154.977 41.9387 142.651 40.0861 138.96C38.2336 135.262 35.9789 129.197 38.6829 127.099C41.3869 125.001 43.476 126.855 45.975 128.298C48.4819 129.741 56.7042 138.258 59.9127 142.754C63.8544 148.274 69.9324 155.167 72.526 159.315C76.4677 165.624 84.351 172.722 85.1394 171.933C85.9277 171.144 84.351 165.624 79.621 158.526C78.6435 157.059 60.7956 131.074 59.3688 128.44C57.9419 125.798 53.1094 119.986 53.1567 115.79C53.2119 111.603 55.1196 107.549 57.7133 108.393C60.3069 109.237 64.7373 111.95 66.4638 114.536C68.1902 117.123 74.016 124.962 77.0117 128.535C80.0073 132.107 84.4141 140.743 85.368 141.941C86.3219 143.148 94.2052 159.709 99.7235 160.498C105.242 161.286 103.665 154.189 102.089 151.034C100.52 147.888 81.9939 115.159 81.9939 115.159Z" fill="#EDAC9A"></path> <path d="M469.066 192.445C469.066 192.445 463.547 212.161 463.547 216.893C463.547 221.625 462.806 242.334 464.359 249.329C465.912 256.324 466.582 260.402 466.582 260.402C466.582 260.402 453.141 273.17 439.03 280.52C424.919 287.87 412.306 294.967 399.692 296.545C387.079 298.122 382.956 298.753 381.474 297.254C379.984 295.756 374.387 286.277 373.638 281.553C372.889 276.829 369.736 269.731 370.524 268.943C371.312 268.154 379.984 254.747 380.772 250.804C381.561 246.861 383.137 239.763 383.137 239.763C383.137 239.763 389.365 240.986 406.354 235.244C423.342 229.511 426.496 228.722 444.627 216.104C460.646 204.953 469.066 192.445 469.066 192.445Z" fill="#EDAC9A"></path> <path d="M356.333 95.4436C356.333 95.4436 350.815 124.623 349.238 141.184C348.56 148.29 349.467 154.67 349.357 161.334C349.246 167.998 353.18 214.527 372.888 219.259C392.597 223.991 452.51 202.698 462.758 190.079C473.007 177.461 477.737 176.673 480.89 176.673C484.043 176.673 496.089 176.87 502.285 169.67C508.482 162.469 511.383 162.343 511.903 157.675C512.423 153.006 515.608 146.673 509.286 142.746C502.963 138.81 498.233 138.022 491.927 139.599C485.62 141.176 476.948 150.64 474.583 153.006C472.218 155.372 466.408 162.327 461.04 162.004C455.663 161.681 463.933 150.735 463.933 150.735C463.933 150.735 478.864 132.833 478.698 127.935C478.525 123.038 478.525 121.137 469.459 118.937C460.393 116.729 452.179 111.571 452.344 107.447C452.51 103.322 457.24 96.0824 459.211 92.6045C461.182 89.1266 459.337 86.532 455.529 84.6709C451.722 82.8176 450.192 82.2971 449.38 83.7403C448.568 85.1835 441.473 89.9153 435.955 90.7039C430.437 91.4925 425.707 89.9153 424.13 82.8176C422.553 75.7199 422.884 70.1916 413.259 69.4108C403.633 68.6222 400.519 71.6821 398.131 74.4896C395.75 77.2972 387.078 85.1835 382.348 89.1266C377.618 93.0698 374.465 94.6471 368.158 95.4357C361.852 96.2243 356.333 95.4436 356.333 95.4436Z" fill="#EDAC9A"></path> <path d="M362.64 13.4259C362.64 13.4259 372.1 8.69406 378.406 11.8486C384.713 15.0031 386.29 22.8894 394.961 20.5235C403.633 18.1576 403.633 7.1168 411.516 4.7509C419.4 2.38501 425.935 0.997013 433.306 2.87396C440.685 4.7509 448.158 9.42749 451.122 14.5851C454.086 19.7349 459.605 33.1416 462.758 34.7189C465.911 36.2962 473.795 38.6621 484.831 38.6621C495.868 38.6621 500.732 41.7299 503.034 46.509C505.328 51.2802 506.637 54.0719 505.588 60.5624C504.54 67.0528 502.017 73.9297 506.826 76.8003C511.635 79.6709 522.127 84.2844 524.768 90.2623C527.401 96.2322 526.053 110.152 521.993 115.814C517.941 121.476 518.28 123.598 515.75 124.899C513.211 126.2 508.876 128.826 508.284 130.672C507.693 132.517 508.284 142.028 508.284 142.028C508.284 142.028 497.279 137.817 490.46 140.096C483.641 142.375 472.991 153.96 470.831 156.05C468.663 158.14 460.543 166.326 459.084 160.261C457.626 154.197 474.504 136.823 474.504 136.823C474.504 136.823 480.22 129.236 478.383 124.765C476.546 120.293 475.277 120.073 471.572 119.394C467.866 118.716 455.45 114.568 453.779 110.333C452.108 106.098 451.233 104.087 456.01 97.5965C460.787 91.1061 460.779 88.7481 459.203 87.1708C457.626 85.5936 452.738 81.6504 450.846 82.8333C448.954 84.0163 446.589 89.5367 438.706 90.3253C430.823 91.114 425.73 89.2922 425.123 85.4753C424.516 81.6504 422.939 71.3982 418.209 70.6096C413.479 69.8209 402.868 68.2989 399.108 73.4013C395.348 78.4959 386.794 86.7923 382.403 89.3475C378.004 91.9026 369.333 96.595 362.632 96.2243C355.931 95.8537 349.979 93.401 347.827 89.1109C345.683 84.8128 341.11 78.2435 341.426 69.3083C341.741 60.3652 349.624 57.9993 351.989 56.4221C354.354 54.8448 359.873 50.9016 359.084 45.3812C358.296 39.8608 351.201 32.7631 355.143 24.0882C359.084 15.4132 362.64 13.4259 362.64 13.4259Z" fill="#D23D20"></path> <path d="M486.408 152.225C486.408 152.225 502.963 146.705 500.598 156.957C498.233 167.209 488.773 168.786 480.102 165.632" stroke="#0F0F0F" stroke-width="2.24549" stroke-miterlimit="10" stroke-linecap="round" stroke-linejoin="round"></path> <path d="M360.276 61.5324C360.276 61.5324 359.487 85.98 379.196 73.3619C398.904 60.7438 398.904 48.9143 416.247 52.8575C433.591 56.8006 424.919 74.9391 439.109 74.9391C453.299 74.9391 452.511 68.6301 460.394 72.5732C468.277 76.5164 465.912 82.8255 465.912 82.8255" stroke="#0F0F0F" stroke-width="2.24549" stroke-miterlimit="10" stroke-linecap="round" stroke-linejoin="round"></path> <path d="M480.889 75.7278C480.889 75.7278 493.502 76.5164 491.137 88.3459C488.772 100.175 475.37 100.964 484.83 108.062C494.29 115.159 498.232 109.639 501.385 116.737C504.539 123.834 498.232 130.932 498.232 130.932" stroke="#0F0F0F" stroke-width="2.24549" stroke-miterlimit="10" stroke-linecap="round" stroke-linejoin="round"></path> <path d="M379.193 28.4098C379.193 28.4098 365.003 41.8166 374.463 49.7029C383.923 57.5892 391.018 44.9711 391.018 44.9711" stroke="#0F0F0F" stroke-width="2.24549" stroke-miterlimit="10" stroke-linecap="round" stroke-linejoin="round"></path> <path d="M413.094 33.9303C413.094 33.9303 426.495 28.4099 432.014 35.5075C437.532 42.6052 433.59 48.1257 441.474 48.9143C449.357 49.7029 452.51 48.1257 452.51 48.1257" stroke="#0F0F0F" stroke-width="2.24549" stroke-miterlimit="10" stroke-linecap="round" stroke-linejoin="round"></path> <path d="M413.094 3.96228C413.094 3.96228 430.437 -2.34677 444.627 7.90544C458.817 18.1577 454.875 36.2962 472.219 37.8734C489.562 39.4507 500.599 36.2962 504.54 50.4916C508.482 64.6869 499.81 72.5732 509.27 78.8823C518.73 85.1914 525.825 83.6141 525.825 97.8095C525.825 112.005 521.884 115.948 517.942 122.257C514 128.566 506.905 127.777 507.694 134.087" stroke="#0F0F0F" stroke-width="2.24549" stroke-miterlimit="10" stroke-linecap="round" stroke-linejoin="round"></path> <path d="M513.213 74.9391C513.213 74.9391 531.345 75.7278 532.921 84.4027C534.498 93.0777 532.133 97.0208 532.133 97.0208" stroke="#0F0F0F" stroke-width="2.24549" stroke-miterlimit="10" stroke-linecap="round" stroke-linejoin="round"></path> <path d="M473.795 27.6212C473.795 27.6212 490.35 18.1577 501.387 34.7189" stroke="#0F0F0F" stroke-width="2.24549" stroke-miterlimit="10" stroke-linecap="round" stroke-linejoin="round"></path> <path d="M335.835 60.7438C335.835 60.7438 329.528 89.1345 350.025 97.8095" stroke="#0F0F0F" stroke-width="2.24549" stroke-miterlimit="10" stroke-linecap="round" stroke-linejoin="round"></path> <path d="M403.633 120.68C403.633 120.68 379.983 160.111 381.56 164.055C383.137 167.998 391.808 171.941 391.808 171.941" stroke="#0F0F0F" stroke-width="2.24549" stroke-miterlimit="10" stroke-linecap="round" stroke-linejoin="round"></path> <path d="M393.385 126.989C393.385 126.989 398.217 124.292 405.604 130.538" stroke="#0F0F0F" stroke-width="3.36823" stroke-miterlimit="10" stroke-linecap="round" stroke-linejoin="round"></path> <path d="M452.904 145.522L478.131 147.888" stroke="#0F0F0F" stroke-width="3.36823" stroke-miterlimit="10" stroke-linecap="round" stroke-linejoin="round"></path> <path d="M349.237 153.802C349.237 153.802 348.448 168.786 357.908 170.364C367.368 171.941 374.463 167.209 379.982 171.941C385.5 176.673 384.712 181.404 390.23 180.616C395.748 179.827 398.902 174.307 409.15 180.616C419.398 186.925 424.128 194.811 438.318 194.023C452.508 193.234 470.64 175.095 470.64 175.095L477.735 177.461C477.735 177.461 459.603 205.063 450.932 212.161C442.26 219.259 422.552 234.243 392.595 238.186C370.656 241.072 355.543 235.82 352.39 207.429C349.237 179.039 349.237 153.802 349.237 153.802Z" fill="#D23D20"></path> <path d="M372.889 184.559C372.889 184.559 380.772 190.868 391.02 192.445C401.269 194.023 412.305 191.657 413.094 194.023C413.882 196.388 402.026 210.765 388.655 208.218C372.1 205.063 372.889 184.559 372.889 184.559Z" fill="#FEFEFE"></path> <path d="M374.464 130.932C376.205 130.932 377.617 129.52 377.617 127.777C377.617 126.035 376.205 124.623 374.464 124.623C372.722 124.623 371.311 126.035 371.311 127.777C371.311 129.52 372.722 130.932 374.464 130.932Z" fill="#383636"></path> <path d="M428.071 145.127C429.813 145.127 431.225 143.715 431.225 141.973C431.225 140.231 429.813 138.818 428.071 138.818C426.33 138.818 424.918 140.231 424.918 141.973C424.918 143.715 426.33 145.127 428.071 145.127Z" fill="#383636"></path> <path d="M383.926 85.98C383.926 85.98 391.021 84.4027 396.539 86.7686" stroke="#0F0F0F" stroke-width="5.61372" stroke-miterlimit="10" stroke-linecap="round" stroke-linejoin="round"></path> <path d="M433.197 95.8379C433.197 95.8379 441.869 93.472 448.964 99.781" stroke="#0F0F0F" stroke-width="5.61372" stroke-miterlimit="10" stroke-linecap="round" stroke-linejoin="round"></path> <path d="M352.393 205.063C355.514 224.614 362.633 243.856 392.598 238.186C422.121 232.602 456.453 216.893 477.738 177.461" stroke="#0F0F0F" stroke-width="2.24549" stroke-miterlimit="10" stroke-linecap="round" stroke-linejoin="round"></path> <path d="M445.409 192.43C434.364 196.357 428.073 193.234 422.5 190.127C417.226 187.193 410.73 180.616 404.683 178.408C398.637 176.199 394.861 179.244 391.755 180.269C390.107 180.813 387.048 180.766 385.093 178.321C383.138 175.876 382.933 170.032 374.269 169.788C366.575 169.567 348.444 177.453 349.232 156.16" stroke="#0F0F0F" stroke-width="2.24549" stroke-miterlimit="10" stroke-linecap="round" stroke-linejoin="round"></path> <path d="M341.355 67.8415C341.355 67.8415 342.144 104.119 370.524 94.6549C398.904 85.1914 391.809 70.2074 411.517 69.4187C431.225 68.6301 416.247 92.289 435.955 90.7118C455.664 89.1345 443.839 78.0937 456.452 85.1914C469.065 92.289 442.262 102.541 456.452 112.793C470.642 123.046 475.372 115.948 478.525 125.412C481.679 134.875 452.51 158.534 460.394 161.689C468.277 164.843 478.525 141.184 493.504 139.607C508.482 138.03 515.577 145.127 512.424 156.168C509.27 167.209 490.35 182.982 470.642 175.095" stroke="#0F0F0F" stroke-width="2.24549" stroke-miterlimit="10" stroke-linecap="round" stroke-linejoin="round"></path> <path d="M470.98 188.589C470.98 188.589 461.181 209.795 463.546 242.129C465.911 274.463 484.043 296.545 513.999 327.301C543.956 358.058 557.358 393.546 559.723 423.514C562.088 453.482 556.569 526.037 540.014 569.411" stroke="#0F0F0F" stroke-width="2.24549" stroke-miterlimit="10" stroke-linecap="round" stroke-linejoin="round"></path> <path d="M463.545 553.639C463.545 553.639 394.96 522.093 365.003 519.728C365.003 519.728 332.422 543.197 331.373 578.78" stroke="#0F0F0F" stroke-width="2.24549" stroke-miterlimit="10" stroke-linecap="round" stroke-linejoin="round"></path> <path d="M469.853 447.962C469.853 447.962 451.036 483.348 440.74 543.726" stroke="#0F0F0F" stroke-width="2.24549" stroke-miterlimit="10" stroke-linecap="round" stroke-linejoin="round"></path> <path d="M382.671 239.188C382.671 239.188 384.397 266.506 343.719 292.594C330.751 300.914 308.654 312.191 288.536 328.871C260.944 351.741 230.885 375.29 219.951 384.864" stroke="#0F0F0F" stroke-width="2.24549" stroke-miterlimit="10" stroke-linecap="round" stroke-linejoin="round"></path> <path d="M425.706 168.786C429.6 166.72 440.684 164.843 443.049 171.941C445.414 179.039 430.436 183.77 424.917 179.039C419.399 174.307 423.435 169.985 425.706 168.786Z" fill="#EA7C71"></path> <path d="M356.838 149.717C360.519 149.165 369.885 150.782 369.774 157.099C369.664 163.416 356.404 162.982 353.33 157.667C350.255 152.351 354.685 150.041 356.838 149.717Z" fill="#EA7C71"></path> <path d="M452.249 145.793C457.087 127.609 450.605 110.099 437.772 106.682C424.939 103.266 410.614 115.237 405.777 133.42C400.939 151.604 407.421 169.114 420.254 172.531C433.087 175.947 447.412 163.977 452.249 145.793Z" stroke="#0F0F0F" stroke-width="2.33362" stroke-miterlimit="10" stroke-linecap="round" stroke-linejoin="round"></path> <path d="M392.034 129.976C396.872 111.792 390.39 94.2817 377.557 90.865C364.724 87.4483 350.4 99.4192 345.562 117.603C340.724 135.786 347.206 153.297 360.039 156.713C372.872 160.13 387.197 148.159 392.034 129.976Z" stroke="#0F0F0F" stroke-width="2.33362" stroke-miterlimit="10" stroke-linecap="round" stroke-linejoin="round"></path> <path d="M370.443 269.077C370.443 269.077 374.456 291.016 382.339 298.114C382.339 298.114 405.201 300.48 435.946 282.341C466.691 264.203 466.699 260.031 466.699 260.031" stroke="#0F0F0F" stroke-width="2.33362" stroke-miterlimit="10" stroke-linecap="round" stroke-linejoin="round"></path> <path d="M382.35 298.122L395.751 338.342C395.751 338.342 461.971 300.488 479.315 286.292" stroke="#0F0F0F" stroke-width="2.33362" stroke-miterlimit="10" stroke-linecap="round" stroke-linejoin="round"></path> <path d="M382.348 298.122L352.392 324.147L347.717 289.936" stroke="#0F0F0F" stroke-width="2.33362" stroke-miterlimit="10" stroke-linecap="round" stroke-linejoin="round"></path> <path d="M290.113 372.253C290.113 372.253 267.251 460.58 268.039 517.362" stroke="#0F0F0F" stroke-width="2.33362" stroke-miterlimit="10" stroke-linecap="round" stroke-linejoin="round"></path> <path d="M262.521 548.118C262.521 548.118 300.361 558.371 325.588 574.932C350.815 591.493 404.421 630.925 442.261 652.218" stroke="#0F0F0F" stroke-width="2.33362" stroke-miterlimit="10" stroke-linecap="round" stroke-linejoin="round"></path> <path d="M370.524 519.728C370.524 519.728 372.889 514.207 359.488 511.841C346.086 509.475 343.721 511.841 332.685 510.264C322.074 508.75 313.765 505.532 306.67 510.264C301.545 513.679 279.866 540.232 276.713 552.061" stroke="#0F0F0F" stroke-width="2.33362" stroke-miterlimit="10" stroke-linecap="round" stroke-linejoin="round"></path> <path d="M198.666 543.387C198.666 543.387 226.258 526.825 251.484 521.305C276.711 515.784 301.189 515.28 301.189 515.28" stroke="#0F0F0F" stroke-width="2.33362" stroke-miterlimit="10" stroke-linecap="round" stroke-linejoin="round"></path> <path d="M189.207 367.522L212.857 419.571" stroke="#0F0F0F" stroke-width="2.33362" stroke-miterlimit="10" stroke-linecap="round" stroke-linejoin="round"></path> <path d="M229.413 489.759C229.413 489.759 188.42 511.053 171.077 505.532C153.733 500.012 131.66 436.133 131.66 436.133" stroke="#0F0F0F" stroke-width="2.33362" stroke-miterlimit="10" stroke-linecap="round" stroke-linejoin="round"></path> <path d="M147.424 233.454C154.519 231.088 156.884 223.202 159.249 216.893C161.614 210.584 169.498 179.827 171.863 173.518C174.228 167.209 185.264 137.241 173.439 135.664C161.614 134.087 159.249 154.591 157.673 162.477C156.096 170.364 151.366 181.404 141.118 179.039C130.869 176.673 119.044 151.436 115.891 145.127C112.738 138.818 103.238 120.617 96.9711 111.216C93.8178 106.484 89.0878 98.5981 81.9928 101.753C74.8978 104.907 84.6179 119.797 84.6179 119.797L99.2494 145.821C99.2494 145.821 102.497 150.648 103.546 156.113C104.602 161.578 100.124 160.9 97.8382 159.701C95.5521 158.51 74.1094 125.404 71.0113 120.822C67.9131 116.24 63.8611 109.631 58.595 108.724C53.329 107.817 52.0361 112.786 53.5655 118.196C55.0948 123.598 78.059 156.286 81.9928 162.477C87.5111 171.152 85.1461 171.941 85.1461 171.941C80.4161 176.673 49.6711 123.046 40.2111 126.2C32.1543 128.889 42.5761 142.761 42.5761 142.761C42.5761 142.761 66.2261 171.941 72.5328 182.982C73.3132 184.346 73.731 191.341 67.1721 186.247C59.9194 180.616 50.4989 169.591 44.9411 163.266C42.718 160.726 33.9044 151.436 30.7511 160.111C27.5978 168.786 54.4011 191.657 59.9194 197.966C65.4378 204.275 71.7444 214.527 79.6278 225.568C87.5111 236.609 103.278 251.593 103.278 251.593C103.278 251.593 107.219 263.422 109.584 283.138C111.949 302.854 118.256 349.383 118.256 349.383C118.256 349.383 124.563 354.903 142.694 349.383C160.826 343.863 176.593 328.879 176.593 324.935" stroke="#0F0F0F" stroke-width="2.33362" stroke-miterlimit="10" stroke-linecap="round" stroke-linejoin="round"></path> <path d="M176.594 313.895C176.594 313.895 185.265 319.415 186.842 329.667C188.419 339.919 190.784 343.863 193.937 347.017C197.09 350.172 204.185 360.424 180.535 373.042C156.885 385.66 135.6 403.799 111.162 391.18" stroke="#0F0F0F" stroke-width="2.33362" stroke-miterlimit="10" stroke-linecap="round" stroke-linejoin="round"></path> <path d="M108.008 182.982C108.008 182.982 96.9717 204.275 87.5117 209.007" stroke="#0F0F0F" stroke-width="2.33362" stroke-miterlimit="10" stroke-linecap="round" stroke-linejoin="round"></path> <path d="M126.139 182.982C126.139 182.982 116.679 199.543 122.197 226.356" stroke="#0F0F0F" stroke-width="2.33362" stroke-miterlimit="10" stroke-linecap="round" stroke-linejoin="round"></path> <path d="M476.16 434.555C476.16 434.555 483.255 417.205 489.562 409.319" stroke="#0F0F0F" stroke-width="2.33362" stroke-miterlimit="10" stroke-linecap="round" stroke-linejoin="round"></path> <path d="M501.387 393.546C501.387 393.546 510.058 383.294 515.577 379.351" stroke="#0F0F0F" stroke-width="2.33362" stroke-miterlimit="10" stroke-linecap="round" stroke-linejoin="round"></path> <path d="M529.766 370.676C529.766 370.676 537.838 368.31 544.839 370.676" stroke="#0F0F0F" stroke-width="2.33362" stroke-miterlimit="10" stroke-linecap="round" stroke-linejoin="round"></path> <path d="M300.361 324.147L297.996 338.342" stroke="#0F0F0F" stroke-width="2.33362" stroke-miterlimit="10" stroke-linecap="round" stroke-linejoin="round"></path> <path d="M296.42 345.44L292.479 362.001" stroke="#0F0F0F" stroke-width="2.33362" stroke-miterlimit="10" stroke-linecap="round" stroke-linejoin="round"></path> <path d="M175.806 60.7438C175.806 60.7438 204.974 20.5235 230.201 22.1008C255.427 23.6781 277.501 70.996 234.931 95.4436C192.361 119.891 160.039 126.2 161.616 99.3867C163.193 72.5732 175.806 60.7438 175.806 60.7438Z" fill="#9CD1C2"></path> <path d="M273.559 25.2553C275.608 18.8359 288.537 7.11681 298.785 15.7918C309.034 24.4667 299.574 35.5076 286.172 37.0848C272.77 38.6621 270.185 35.7915 273.559 25.2553Z" fill="#9CD1C2"></path> <path d="M13.4082 351.749C13.4082 351.749 3.15991 352.538 0.794913 372.253C-1.57009 391.969 7.10158 393.546 13.4082 376.985C19.7149 360.424 20.5032 355.692 13.4082 351.749Z" fill="#9CD1C2"></path> <path d="M3.16019 439.287C1.68601 432.954 -3.14647 414.051 3.16019 413.262C9.46686 412.474 15.2926 451.527 45.7302 492.125C81.2052 539.443 139.542 571.777 134.812 578.875C130.082 585.973 99.3368 579.664 67.8035 549.696C45.6119 528.6 16.5619 496.857 3.16019 439.287Z" fill="#9CD1C2"></path> <path d="M566.818 464.523C569.971 459.791 584.949 440.076 589.679 430.612C594.409 421.149 598.351 412.474 601.504 416.417C604.658 420.36 600.716 448.751 588.103 466.101C575.489 483.45 568.394 493.703 562.876 486.605C557.358 479.507 564.957 467.307 566.818 464.523Z" fill="#9CD1C2"></path> <path d="M540.016 23.6781C540.016 23.6781 540.016 6.32816 563.666 15.7917C587.316 25.2553 622.002 53.6461 622.002 79.6709C622.002 105.696 607.812 111.216 592.834 90.7118C577.856 70.2073 570.761 56.012 559.724 48.1256C548.687 40.2393 540.804 33.9303 540.016 23.6781Z" fill="#9CD1C2"></path> <path d="M369.34 342.285C371.3 342.285 372.888 340.697 372.888 338.737C372.888 336.777 371.3 335.188 369.34 335.188C367.381 335.188 365.793 336.777 365.793 338.737C365.793 340.697 367.381 342.285 369.34 342.285Z" fill="#383636"></path> <path d="M362.247 384.872C364.206 384.872 365.794 383.283 365.794 381.323C365.794 379.363 364.206 377.774 362.247 377.774C360.287 377.774 358.699 379.363 358.699 381.323C358.699 383.283 360.287 384.872 362.247 384.872Z" fill="#383636"></path> <path d="M353.573 429.035C355.532 429.035 357.12 427.446 357.12 425.486C357.12 423.526 355.532 421.937 353.573 421.937C351.614 421.937 350.025 423.526 350.025 425.486C350.025 427.446 351.614 429.035 353.573 429.035Z" fill="#383636"></path> <path d="M346.479 473.198C348.438 473.198 350.027 471.609 350.027 469.649C350.027 467.689 348.438 466.101 346.479 466.101C344.52 466.101 342.932 467.689 342.932 469.649C342.932 471.609 344.52 473.198 346.479 473.198Z" fill="#383636"></path> </svg> 