<svg id="offer" xmlns="http://www.w3.org/2000/svg" width="160" height="160" viewBox="0 0 160 160"><style><![CDATA[
	.st0{fill:#B8B8B8;}
	.st1{fill:#FC6454;}
	.st2{fill:#2E302F;}
	.st3{fill:#00C492;}
]]></style><path class="st3" d="M40 16h8v9H27v-9h13zm35 142h35V82H75v76zm37-141v10h46V17h-46z"/><path class="st2" d="M136 15V0h-2v15h-24v65H75V45H65V25H50V14H40V0h-5v14H25v11H10v20H0v115h160V15h-24zm22 22h-46v-8h46v8zm0 7h-46v-5h46v5zm0 6h-46v-4h46v4zm0 7h-46v-5h46v5zm0 6h-46v-4h46v4zm0 7h-46v-5h46v5zm0 7h-46v-5h46v5zm0 6h-46v-4h46v4zm0 7h-46v-5h46v5zm0 6h-46v-4h46v4zm0 7h-46v-5h46v5zm0 7h-46v-5h46v5zm0 6h-46v-4h46v4zm0 7h-46v-5h46v5zm0 6h-46v-4h46v4zm0 7h-46v-5h46v5zm0 22h-46v-20h46v20zm-101 0v-26h16v26H57zm-14 0h-5v-26h17v26H43zM2 132h16v26H2v-26zm0-28h16v26H2v-26zm0-29h16v27H2V75zm0-28h16v26H2V47zm10-20h51v18H12V27zm15-11h21v9H27v-9zM37 2h1v12h-1V2zM20 104h16v26H20v-26zm0-29h16v27H20V75zm0-14V47h16v26H20V61zm35-2v14H38V47h17v12zm0 21v22H38V75h17v5zm-17 24h17v26H38v-26zm19 0h16v26H57v-26zm16-24v22H57V75h16v5zm0-7H57V47h16v26zm-53 59h16v26H20v-26zm55-50h35v76H75V82zm37-65h46v10h-46V17z"/></svg>