<?xml version="1.0" encoding="utf-8"?>
<!-- Generator: Adobe Illustrator 26.1.0, SVG Export Plug-In . SVG Version: 6.00 Build 0)  -->
<svg version="1.1" id="offer" xmlns="http://www.w3.org/2000/svg" xmlns:xlink="http://www.w3.org/1999/xlink" x="0px" y="0px"
	 viewBox="0 0 160 160" style="enable-background:new 0 0 160 160;" xml:space="preserve">
<style type="text/css">
	.st0{fill:#2E302F;}
	.st1{fill:#00C492;}
	.st2{fill:#FFFFFF;}
	.st3{font-family:'MyriadPro-Regular';}
	.st4{font-size:29.3757px;}
</style>
<g>
	<path class="st0" d="M160,50l-11.4-25L160,0H15v1v49v10H4.8C2,60,0,62.2,0,65v20v15v20v15v20c0,2.8,2,5,4.8,5H79h2h73.8
		c2.8,0,5.2-2.2,5.2-5v-20v-15v-20V85V65c0-2.8-2.4-5-5.1-5h-0.1H17V50H160z M158,85h-18v8.3c-5.1,3.9-8,9.9-8,16.5s2.9,12.6,8,16.5
		v8.8h18v20c0,1.7-1.6,3-3.2,3H81v-21.3c14.3-0.7,25.8-12.5,25.8-27S95.3,83.4,81,82.8V62h74c1.7,0,3,1.3,3,3V85z M158,118h-6v-16h6
		V118z M150,100v20h8v13h-16v-5.3V91.8V87h16v13H150z M140,123.6c-3.8-3.5-6-8.5-6-13.9s2.2-10.4,6-13.9V123.6z M79,134.7
		c-13.4-0.4-24.2-11.4-24.2-25s10.8-24.6,24.2-25c0.2,0,0.5,0,0.8,0c0.4,0,0.8,0,1.2,0c13.2,0.7,23.8,11.6,23.8,25
		S94.3,134,81,134.7c-0.4,0-0.8,0-1.2,0C79.5,134.8,79.2,134.7,79,134.7z M79,82.8c-14.5,0.4-26.2,12.3-26.2,27s11.7,26.6,26.2,27
		V158H4.8c-1.7,0-2.8-1.3-2.8-3v-20h18v-8.8c5.1-3.9,8-9.9,8-16.5s-2.9-12.6-8-16.5V85H2V65c0-1.7,1.1-3,2.8-3H79V82.8z M2,102h6v16
		H2V102z M10,120v-20H2V87h16v4.8v35.9v5.3H2v-13H10z M20,95.9c3.8,3.5,6,8.5,6,13.9s-2.2,10.4-6,13.9V95.9z M146.8,24.2l-0.4,0.8
		l0.4,0.8L156.9,48H17V2h139.9L146.8,24.2z"/>
	<g>
		<path class="st1" d="M81,84.8c-0.4,0-0.8,0-1.2,0c-0.3,0-0.5,0-0.8,0c-13.4,0.4-24.2,11.4-24.2,25s10.8,24.6,24.2,25
			c0.2,0,0.5,0,0.8,0c0.4,0,0.8,0,1.2,0c13.2-0.7,23.8-11.6,23.8-25S94.2,85.4,81,84.8z"/>
		<polygon class="st1" points="146.4,25 146.8,24.2 156.9,2 17,2 17,48 156.9,48 146.8,25.8 		"/>
	</g>
</g>
<g>
	<path class="st2" d="M64,19.4h3.1l2.5,7.2c0.4,1.1,0.9,2.8,1.2,3.9h0.1c0.3-1.1,1.1-3.3,1.6-4.9l2.2-6.2h3.1l1,14.2h-2.4l-0.3-6.8
		c-0.1-1.6-0.2-3.4-0.2-5.1h-0.1c-0.4,1.3-0.8,2.4-1.5,4.6l-2.6,7.2h-1.8l-2.4-7.1c-0.5-1.3-1-3.4-1.4-4.7H66
		c-0.1,1.7-0.1,3.6-0.2,5.1l-0.4,6.7H63L64,19.4z"/>
	<path class="st2" d="M92.7,19.4v14.2h-2.5V21.4h-4.7V25c0,4-0.4,6.7-2.2,7.9c-0.7,0.6-1.4,0.9-2.7,0.9l-0.3-2
		c0.5-0.1,1-0.3,1.4-0.6c1.3-1,1.4-3,1.4-6.1v-5.7C83.1,19.4,92.7,19.4,92.7,19.4z"/>
	<path class="st2" d="M99.1,19.4v5.7h6.5v-5.7h2.5v14.2h-2.5v-6.4h-6.5v6.4h-2.5V19.4H99.1z"/>
	<path class="st2" d="M111.6,32.1c0-1.1,0.7-1.9,1.7-1.9s1.7,0.8,1.7,1.9c0,1.1-0.7,1.9-1.7,1.9C112.3,33.9,111.6,33.1,111.6,32.1z"
		/>
	<path class="st2" d="M118.2,19.4h3.1l2.5,7.2c0.4,1.1,0.9,2.8,1.2,3.9h0.1c0.3-1.1,1.1-3.3,1.6-4.9l2.2-6.2h3.1l1,14.2h-2.4
		l-0.3-6.8c-0.1-1.6-0.2-3.4-0.2-5.1H130c-0.4,1.3-0.8,2.4-1.5,4.6l-2.6,7.2H124l-2.4-7.1c-0.5-1.3-1-3.4-1.4-4.7h-0.1
		c-0.1,1.7-0.1,3.6-0.2,5.1l-0.4,6.7h-2.3L118.2,19.4z"/>
</g>
<g>
	<path class="st2" d="M136.8,23v-0.8l1-1c2.3-2.3,3.4-3.5,3.4-4.9c0-0.9-0.4-1.8-1.8-1.8c-0.8,0-1.5,0.4-1.9,0.8l-0.4-0.9
		c0.6-0.5,1.5-0.9,2.5-0.9c1.9,0,2.8,1.4,2.8,2.7c0,1.7-1.2,3.1-3.1,5l-0.7,0.7l0,0h4v1L136.8,23L136.8,23z"/>
</g>
<text transform="matrix(1 0 0 1 20.0292 34)" class="st2 st3 st4">2.5</text>
</svg>
