<svg id="offer" xmlns="http://www.w3.org/2000/svg" width="159" height="160" viewBox="0 0 159 160"><style><![CDATA[
	.st0{fill:#B8B8B8;}
	.st1{fill:#FC6454;}
	.st2{fill:#2E302F;}
	.st3{fill:#00C492;}
]]></style><path class="st3" d="M156.5 82c0 .8-.3 1.6-.9 2.1l-10.5 10.5c-1.1 1.1-3.1 1.1-4.2 0l-1.9-1.9-.7-.7-.7-.7-25.4-25.4-.7-.7-.7-.7-1.6-1.6c-1.2-1.2-1.2-3.1 0-4.2l10.5-10.5c.6-.6 1.3-.9 2.1-.9s1.6.3 2.1.9l31.7 31.7c.6.6.9 1.3.9 2.1zM94 14v15c0 6.6-5.4 12-12 12h-3.2l-.7 16.8L67.2 41H53c-6.6 0-12-5.4-12-12V14c0-6.6 5.4-12 12-12h29c6.6 0 12 5.4 12 12zm-18.6-3.9c-.5-.2-1.1 0-1.3.5l-8.2 17.2-4.1-7.3c-.3-.5-.9-.7-1.4-.4-.5.3-.7.9-.4 1.4l5 9c.2.3.5.5.9.5s.7-.2.9-.6l9-19c.3-.5.1-1.1-.4-1.3z"/><path class="st2" d="M157.1 78.5l-31.7-31.7c-.9-.9-2.2-1.5-3.5-1.5s-2.6.5-3.5 1.5l-10.5 10.5c-1.9 1.9-1.9 5.1 0 7.1l1.3 1.3c-1.4.8-3 1.4-4.6 1.4-.6 0-1.2-.1-1.8-.2l-6.2-3.1c-2.1-.9-4.6-1.7-7-1.7-2.5 0-4.6.9-6.5 2.9l-4.2 4.2-2.4-2.4c-1.5-1.5-3.5-2.3-5.7-2.3-2.8 0-5.6 1.2-8.1 2.2l-7.1 2.4c-.3 0-.6.1-1 .1-1.8 0-3.4-.7-4.8-1.6l.9-.9c.9-.9 1.5-2.2 1.5-3.5s-.5-2.6-1.5-3.5L40.3 48.9c-.9-.9-2.2-1.5-3.5-1.5s-2.6.5-3.5 1.5L1.6 80.6c-.9.9-1.5 2.2-1.5 3.5s.5 2.6 1.5 3.5L12 98.1c.9.9 2.2 1.5 3.5 1.5s2.6-.5 3.5-1.5l2.7-2.7L37 111l-2.3 2.3c-1.4 1.4-2.1 3.2-2.1 5.1s.7 3.7 2.1 5.1l1.5 1.5c1.4 1.4 3.2 2.1 5.1 2.1.6 0 1.2-.1 1.8-.2-.1.6-.2 1.2-.2 1.8 0 1.9.7 3.7 2.1 5.1l1.5 1.5c1.4 1.4 3.2 2.1 5.1 2.1.6 0 1.2-.1 1.8-.2-.6 2.4 0 5 1.9 6.9l1.5 1.5c1.4 1.4 3.2 2.1 5.1 2.1.6 0 1.2-.1 1.8-.2-.6 2.4 0 5 1.9 6.9l1.5 1.5c1.4 1.4 3.2 2.1 5.1 2.1s3.7-.7 5.1-2.1l.9-.9 3.2 3.2c1.3 1.3 3.1 2 4.9 2s3.6-.7 4.9-2l1.8-1.8c1.3-1.3 2-3.1 2-4.9 0-.6-.1-1.2-.2-1.7.6.1 1.1.2 1.7.2 1.9 0 3.6-.7 5-2l1.8-1.8c1.3-1.3 2-3.1 2-4.9 0-.6-.1-1.2-.2-1.7.6.1 1.1.2 1.7.2 1.9 0 3.6-.7 5-2l1.8-1.8c1.3-1.3 2-3.1 2-4.9 0-.6-.1-1.2-.2-1.7.6.1 1.1.2 1.7.2 1.9 0 3.6-.7 5-2l1.8-1.8c1.3-1.3 2-3.1 2-4.9s-.7-3.6-2-4.9l-3.5-3.5 17.5-17.8 1.9 1.9c.9.9 2.2 1.5 3.5 1.5s2.6-.5 3.5-1.5l10.5-10.5c.9-.9 1.5-2.2 1.5-3.5s-.8-3.2-1.7-4.1zm-16.2 16.1l-1.9-1.9-.7-.7-.7-.7-25.4-25.4-.7-.7-.7-.7-1.6-1.6c-1.2-1.2-1.2-3.1 0-4.2l10.5-10.5c.6-.6 1.3-.9 2.1-.9s1.6.3 2.1.9l31.7 31.7c.6.6.9 1.3.9 2.1s-.3 1.6-.9 2.1l-10.5 10.5c-1 1.1-3 1.1-4.2 0zm-27.4 36.1c0 1.3-.5 2.6-1.5 3.5l-1.8 1.8c-.9.9-2.2 1.5-3.5 1.5s-2.6-.5-3.5-1.5l-3.4-3.4-.7-.7-.7-.7-8.7-8.7c-.9-.9-1.5-2.2-1.5-3.5s.5-2.6 1.5-3.5l1.8-1.8c.9-.9 2.2-1.5 3.5-1.5s2.6.5 3.5 1.5l8.6 8.6.7.7.7.7 3.4 3.4c1 1 1.6 2.2 1.6 3.6zm-10.3 10.2c0 1.3-.5 2.6-1.5 3.5l-1.8 1.8c-.9.9-2.2 1.5-3.5 1.5s-2.6-.5-3.5-1.5l-3.3-3.3-.7-.7-.7-.7-8.8-8.8c-.9-.9-1.5-2.2-1.5-3.5s.5-2.6 1.5-3.5l1.8-1.8c.9-.9 2.2-1.5 3.5-1.5 1.3 0 2.6.5 3.5 1.5l8.7 8.7.7.7.7.7 3.4 3.4c1 .9 1.5 2.2 1.5 3.5zM93 151.2c0 1.3-.5 2.6-1.5 3.5l-1.8 1.8c-.9.9-2.2 1.5-3.5 1.5s-2.6-.5-3.5-1.5l-3.2-3.2-.7-.7-.7-.7-8.9-8.9c-.9-.9-1.5-2.2-1.5-3.5s.5-2.6 1.5-3.5l1.8-1.8c.9-.9 2.2-1.5 3.5-1.5s2.6.5 3.5 1.5l8.8 8.8.7.7.7.7 3.3 3.3c.9.9 1.5 2.1 1.5 3.5zm17-28.9l-.7-.7-.7-.7-8.6-8.6c-.9-.9-1.5-2.2-1.5-3.5s.5-2.6 1.5-3.5l1.8-1.8c.9-.9 2.2-1.5 3.5-1.5 1.3 0 2.6.5 3.5 1.5l8.5 8.5.7.7.7.7 3.5 3.5c.9.9 1.5 2.2 1.5 3.5s-.5 2.6-1.5 3.5l-1.8 1.8c-.9.9-2.2 1.5-3.5 1.5-1.3 0-2.6-.5-3.5-1.5l-3.4-3.4zm.2-20.3c-1.3-1.3-3.1-2-5-2s-3.6.7-4.9 2l-1.8 1.8c-1.3 1.3-2 3.1-2 4.9 0 .6.1 1.2.2 1.7-.6-.1-1.1-.2-1.7-.2-1.9 0-3.6.7-5 2l-1.8 1.8c-1.8 1.8-2.4 4.3-1.8 6.7-.6-.1-1.1-.2-1.7-.2-1.9 0-3.6.7-5 2l-1.8 1.8c-1.3 1.3-2 3.1-2 4.9 0 .6.1 1.2.2 1.7-.6-.1-1.1-.2-1.7-.2-1.9 0-3.6.7-4.9 2l-1.8 1.8c-1.3 1.3-2 3.1-2 4.9s.7 3.6 2 4.9l8.9 8.9-.9 1c-1 1-2.3 1.5-3.7 1.5s-2.7-.5-3.7-1.5l-1.5-1.5c-2-2-2-5.3 0-7.4l-.7-.7-.7-.7c-1 1-2.3 1.5-3.7 1.5s-2.7-.5-3.7-1.5l-1.5-1.5c-2-2-2-5.3 0-7.4l-.7-.7-.7-.7c-1 1-2.3 1.5-3.7 1.5-1.4 0-2.7-.5-3.7-1.5l-1.5-1.5c-1-1-1.5-2.3-1.5-3.7 0-1.4.5-2.7 1.5-3.7l-.7-.7-.7-.7c-1 1-2.3 1.5-3.7 1.5s-2.7-.5-3.7-1.5l-1.5-1.5c-1-1-1.5-2.3-1.5-3.7 0-1.4.5-2.7 1.5-3.7l2.3-2.3 23.3-23.2c1.1-1.1 2.4-1.7 3.8-1.7 1.5 0 3 .6 4.1 1.7l6.2 6c3.3 3.3 7.6 5.3 11.4 5.3 2.5 0 4.6-.8 6.1-2.3.2-.2 4.2-3.9 6.8-6.4l.8-.7-19.1-19c-.4-.4-.9-.8-1.4-1.2l.1-.1 4.2-4.2c1.6-1.6 3.2-2.3 5.1-2.3 1.6 0 3.5.5 6.2 1.6l6.2 3.1.2.1c.8.2 1.6.3 2.4.3 2.2 0 4.3-.8 6.1-2l25.6 25.6-17.5 17.8-8.6-8.5zm-96.8-5.3L3 86.2c-.6-.6-.9-1.3-.9-2.1s.3-1.6.9-2.1l31.7-31.7c.6-.6 1.3-.9 2.1-.9s1.6.3 2.1.9l10.5 10.5c.6.6.9 1.3.9 2.1s-.3 1.6-.9 2.1l-1.1 1.1-.7.7-.7.7-25.1 25.1-.7.7-.7.7-2.7 2.7c-1.1 1.1-3.1 1.1-4.3 0zm35-27.9c1.7 1.2 3.8 2.2 6.2 2.2.4 0 .9 0 1.3-.1l7.4-2.5c2.3-1 5-2 7.4-2 1.7 0 3.1.6 4.3 1.7l2.4 2.4-.3.3.8.6.2.1c.2.2.4.3.6.5.5.4 1 .8 1.4 1.2L98 91c-1.8 1.7-5.8 5.5-6.1 5.7-1.1 1.1-2.8 1.8-4.7 1.8-3.3 0-7-1.8-10-4.7l-6.2-6c-1.4-1.4-3.5-2.3-5.5-2.3h-.3c-.6 0-1.1.1-1.7.3-1.2.3-2.3 1-3.3 2l-21.8 21.8L23.2 94l25.2-25.2zM53 43h13.1l13.8 21.2.9-21.2H82c7.7 0 14-6.3 14-14V14c0-7.7-6.3-14-14-14H53c-7.7 0-14 6.3-14 14v15c0 7.7 6.3 14 14 14zM41 14c0-6.6 5.4-12 12-12h29c6.6 0 12 5.4 12 12v15c0 6.6-5.4 12-12 12h-3.2l-.7 16.8L67.2 41H53c-6.6 0-12-5.4-12-12V14z"/></svg>