<?xml version="1.0" encoding="UTF-8"?> <svg xmlns="http://www.w3.org/2000/svg" width="336" height="256" viewBox="0 0 336 256" fill="none"> <path d="M89.2622 85.0452C132.252 63.4391 166.323 51.6228 199.066 52.7452C239.401 54.1274 262.063 79.5891 287.733 118.145C312.78 155.777 307.688 184.221 290.803 193.627C273.918 203.032 224.809 192.307 204.771 183.255C184.733 174.203 164.207 171.355 140.83 183.016C126.009 190.405 70.3652 219.961 51.8104 199.228C33.2556 178.495 52.0489 103.741 89.2622 85.0452Z" fill="#9CD1C2"></path> <path d="M183.154 42.7993C194.552 37.2809 216.499 36.3871 244.066 47.5279C274.621 59.8743 271.095 72.9065 263.886 72.8546C256.678 72.813 253.287 59.1156 217.297 49.1699C200.838 44.618 175.645 46.4367 183.154 42.7993Z" fill="#9CD1C2"></path> <path d="M58.6959 100.998C49.32 106.007 41.4168 113.198 33.4203 133.609C25.7349 153.22 33.2129 180.844 34.6856 166.076C36.148 151.422 41.0227 134.337 47.2353 121.918C53.7175 108.937 68.1651 95.9364 58.6959 100.998Z" fill="#9CD1C2"></path> <path d="M294.845 95.8013L271.063 211.138L229.68 216.615L229.307 216.49L229.524 215.825L257.372 88.5785L294.845 95.8013Z" fill="white"></path> <path d="M201.094 96.9134L204.765 78.4458L257.37 88.5785L229.522 215.825L229.304 216.49L157.139 192.546L171.192 129.65L171.825 126.802L176.336 106.62L179.531 92.3199L201.094 96.9134ZM248.71 101.465L250.545 92.8811L229.149 88.5785L227.064 96.6328L248.71 101.465ZM230.818 154.748C235.071 145.738 235.901 133.693 233.08 123.498C230.663 114.716 225.55 107.296 217.605 104.323C212.845 102.536 209.692 102.453 206.03 103.139L205.968 103.253C205.273 102.879 204.547 102.577 203.78 102.349C193.771 99.3556 187.196 103.159 182.902 108.615C178.1 114.716 176.15 122.884 175.413 125.981C174.521 129.775 168.568 151.724 180.568 164.787C184.177 168.716 188.803 170.233 193.522 169.734L193.533 169.838C205.501 177.196 223.517 170.191 230.818 154.748ZM225.197 198.875C225.861 196.069 223.548 195.352 223.548 195.352L211.704 191.402C209.681 190.956 209.287 192.67 209.287 192.67C209.287 192.67 207.275 200.901 207.233 202.574C207.202 204.248 208.665 204.653 208.665 204.653C208.665 204.653 216.205 207.511 219.503 208.54C222.791 209.558 223.226 207.76 223.226 207.76C223.226 207.76 224.471 201.878 225.197 198.875ZM218.694 91.9353C218.694 89.6905 216.879 87.8615 214.628 87.8615L214.608 87.9446C214.286 87.8511 213.944 87.7991 213.591 87.7991C211.641 87.7991 210.055 89.3892 210.055 91.343C210.055 92.4134 210.532 93.3799 211.289 94.0138L211.195 94.1178C211.911 95.261 213.187 96.0092 214.628 96.0092C216.879 96.0092 218.694 94.1905 218.694 91.9353Z" fill="white"></path> <path d="M250.548 92.881L248.712 101.465L227.066 96.6327L229.151 88.5785L250.548 92.881Z" fill="white"></path> <path d="M233.08 123.497C235.901 133.693 235.071 145.737 230.819 154.748C223.517 170.191 205.502 177.196 193.533 169.838L193.522 169.734C196.084 169.464 198.677 168.601 201.135 167.208C211.434 167.281 221.277 165.857 227.614 155.299C232.54 147.089 233.422 133.651 230.705 123.913L233.08 123.497Z" fill="#C7C7C7"></path> <path d="M233.08 123.497L230.705 123.913C229.927 121.117 228.848 118.623 227.479 116.649C221.371 107.794 210.138 106.62 210.138 106.62L210.128 106.63C208.925 105.217 207.535 104.063 205.969 103.253L206.031 103.138C209.692 102.452 212.845 102.536 217.606 104.323C225.55 107.295 230.664 114.716 233.08 123.497Z" fill="#C7C7C7"></path> <path d="M230.706 123.913C233.423 133.651 232.542 147.088 227.615 155.298C221.278 165.857 211.436 167.281 201.137 167.208C203.761 165.722 206.24 163.644 208.397 161.035C208.397 161.035 208.397 161.035 208.407 161.035C208.905 160.983 223.156 159.362 225.997 146.953C228.891 134.326 224.369 123.123 221.672 119.236C219.059 115.464 214.578 114.009 214.298 113.926C214.288 113.915 214.288 113.915 214.288 113.915C213.22 111.089 211.851 108.605 210.129 106.63L210.139 106.62C210.139 106.62 221.372 107.794 227.481 116.649C228.85 118.623 229.928 121.117 230.706 123.913Z" fill="#808080"></path> <path d="M221.671 119.236C224.367 123.123 228.889 134.326 225.996 146.953C223.154 159.362 208.903 160.983 208.405 161.035C210.469 158.541 212.253 155.579 213.591 152.202C217.875 141.393 218.476 125.046 214.296 113.926C214.576 114.009 219.057 115.464 221.671 119.236Z" fill="#090909"></path> <path d="M223.548 195.352C223.548 195.352 225.861 196.069 225.197 198.875C224.471 201.878 223.227 207.76 223.227 207.76C223.227 207.76 222.791 209.558 219.503 208.54C216.205 207.511 208.665 204.653 208.665 204.653C208.665 204.653 207.203 204.248 207.234 202.574C207.275 200.901 209.287 192.67 209.287 192.67C209.287 192.67 209.682 190.956 211.704 191.402L223.548 195.352Z" fill="white"></path> <path d="M214.629 87.8612C216.88 87.8612 218.695 89.6903 218.695 91.9351C218.695 94.1903 216.88 96.009 214.629 96.009C213.188 96.009 211.912 95.2607 211.196 94.1175L211.29 94.0136C211.912 94.554 212.711 94.8762 213.592 94.8762C215.542 94.8762 217.118 93.2965 217.118 91.3427C217.118 89.7423 216.061 88.3912 214.609 87.9443L214.629 87.8612Z" fill="#C7C7C7"></path> <path d="M214.609 87.9446C216.061 88.3914 217.119 89.7425 217.119 91.3429C217.119 93.2967 215.542 94.8764 213.592 94.8764C212.711 94.8764 211.912 94.5542 211.29 94.0138C210.533 93.3799 210.056 92.4134 210.056 91.3429C210.056 89.3891 211.643 87.7991 213.592 87.7991C213.945 87.7991 214.287 87.851 214.609 87.9446Z" fill="white"></path> <path d="M192.674 159.269C197.922 158.396 203.222 153.989 205.929 147.161C210.462 135.729 209.072 115.412 199.094 112.419C198.14 112.128 197.238 111.931 196.377 111.827C183.817 110.112 180.228 125.056 179.326 128.891C178.704 131.531 174.555 146.829 182.915 155.933C185.611 158.874 189.138 159.871 192.674 159.269ZM214.299 113.926C218.479 125.046 217.877 141.393 213.594 152.202C212.256 155.579 210.472 158.541 208.408 161.035C208.398 161.035 208.398 161.035 208.398 161.035C206.24 163.644 203.762 165.722 201.138 167.209C198.679 168.601 196.087 169.464 193.525 169.734C188.806 170.233 184.18 168.715 180.571 164.787C168.571 151.724 174.524 129.775 175.416 125.981C176.152 122.884 178.102 114.716 182.904 108.615C187.198 103.159 193.774 99.3556 203.782 102.349C204.55 102.577 205.276 102.879 205.971 103.253C207.537 104.063 208.927 105.217 210.13 106.63C211.851 108.605 213.22 111.089 214.289 113.916C214.289 113.916 214.289 113.916 214.299 113.926Z" fill="#C7C7C7"></path> <path d="M199.093 112.419C209.071 115.412 210.46 135.729 205.928 147.161C203.221 153.989 197.921 158.395 192.673 159.268C190.505 158.894 188.441 157.803 186.73 155.932C178.36 146.829 182.509 131.531 183.142 128.891C183.94 125.472 186.875 113.25 196.376 111.826C197.237 111.93 198.139 112.128 199.093 112.419Z" fill="white"></path> <path d="M183.545 74.3511L204.765 78.4457L201.094 96.9133L179.531 92.3198L183.545 74.3511ZM196.084 94.0761L199.061 90.5531L183.244 87.1027L184.074 91.3949L196.084 94.0761Z" fill="white"></path> <path d="M199.062 90.5529L196.085 94.0759L184.075 91.3947L183.245 87.1025L199.062 90.5529Z" fill="#808080"></path> <path d="M196.375 111.826C186.875 113.25 183.94 125.472 183.141 128.891C182.508 131.531 178.36 146.829 186.729 155.932C188.441 157.803 190.505 158.894 192.672 159.268C189.136 159.871 185.609 158.874 182.913 155.932C174.553 146.829 178.702 131.531 179.324 128.891C180.227 125.056 183.815 110.112 196.375 111.826Z" fill="#808080"></path> <path d="M176.338 106.62L171.827 126.802L114.658 155.777L80.8365 128.205L80.7432 127.966L155.657 97.1108L155.927 96.9133L176.338 106.62ZM171.505 110.528C171.598 110.476 171.588 110.392 171.474 110.341L169.265 108.969C169.161 108.906 168.995 108.896 168.902 108.948L166.278 110.143C166.184 110.185 166.122 110.299 166.226 110.361L168.477 111.785C168.58 111.837 168.746 111.847 168.84 111.806L171.505 110.528ZM170.094 107.368C170.188 107.327 170.177 107.244 170.074 107.192L167.875 105.82C167.761 105.757 167.605 105.747 167.512 105.799L164.898 106.973C164.805 107.015 164.732 107.129 164.836 107.181L167.076 108.605C167.18 108.657 167.346 108.667 167.439 108.626L170.094 107.368ZM167.75 112.253C167.844 112.201 167.833 112.128 167.73 112.066L165.49 110.673C165.386 110.621 165.22 110.611 165.126 110.652L162.461 111.879C162.357 111.92 162.285 112.034 162.399 112.097L164.67 113.531C164.774 113.593 164.94 113.593 165.044 113.552L167.75 112.253ZM166.838 105.113C166.931 105.071 166.931 104.999 166.817 104.936L164.618 103.565C164.515 103.513 164.349 103.502 164.255 103.544L161.621 104.708C161.528 104.749 161.455 104.864 161.559 104.916L163.799 106.339C163.903 106.391 164.069 106.402 164.162 106.36L166.838 105.113ZM166.361 109.062C166.454 109.01 166.444 108.938 166.34 108.875L164.12 107.493C164.006 107.441 163.84 107.431 163.747 107.472L161.092 108.667C160.988 108.709 160.926 108.823 161.03 108.886L163.28 110.309C163.394 110.372 163.56 110.382 163.654 110.33L166.361 109.062ZM140.318 137.922L165.531 125.223L157.14 119.725L131.491 131.635L140.318 137.922ZM163.923 114.009C164.027 113.957 164.017 113.874 163.903 113.822L161.652 112.419C161.548 112.367 161.372 112.357 161.279 112.398L158.572 113.635C158.468 113.687 158.395 113.801 158.499 113.864L160.791 115.319C160.905 115.37 161.071 115.381 161.165 115.329L163.923 114.009ZM163.073 106.786C163.177 106.745 163.166 106.662 163.063 106.61L160.843 105.227C160.729 105.165 160.563 105.155 160.47 105.196L157.794 106.381C157.69 106.423 157.617 106.537 157.732 106.599L159.982 108.023C160.086 108.085 160.252 108.096 160.356 108.044L163.073 106.786ZM162.596 103.253C162.7 103.211 162.689 103.138 162.585 103.076L160.376 101.704C160.273 101.652 160.107 101.642 160.013 101.684L157.348 102.827C157.244 102.868 157.182 102.983 157.286 103.045L159.526 104.458C159.63 104.521 159.795 104.531 159.889 104.479L162.596 103.253ZM162.544 110.777C162.648 110.735 162.637 110.652 162.523 110.59L160.283 109.197C160.179 109.145 160.013 109.135 159.91 109.177L157.203 110.392C157.109 110.434 157.037 110.559 157.14 110.611L159.422 112.055C159.526 112.118 159.692 112.118 159.795 112.076L162.544 110.777ZM160.034 115.797C160.138 115.745 160.127 115.661 160.013 115.61L157.742 114.196C157.638 114.134 157.462 114.123 157.369 114.175L154.61 115.433C154.506 115.485 154.433 115.61 154.537 115.661L156.85 117.127C156.954 117.179 157.13 117.189 157.234 117.148L160.034 115.797ZM159.235 108.48C159.339 108.439 159.329 108.356 159.215 108.304L156.974 106.911C156.871 106.849 156.705 106.838 156.601 106.89L153.873 108.085C153.78 108.127 153.707 108.252 153.811 108.304L156.082 109.748C156.197 109.8 156.362 109.81 156.466 109.769L159.235 108.48ZM158.789 104.916C158.893 104.864 158.883 104.791 158.779 104.729L156.549 103.346C156.445 103.294 156.28 103.284 156.176 103.326L153.469 104.49C153.375 104.531 153.292 104.656 153.407 104.708L155.657 106.142C155.771 106.194 155.937 106.204 156.041 106.163L158.789 104.916ZM158.665 112.523C158.758 112.481 158.758 112.398 158.644 112.346L156.383 110.933C156.28 110.881 156.103 110.871 156.01 110.912L153.251 112.149C153.147 112.19 153.075 112.315 153.189 112.377L155.481 113.832C155.595 113.884 155.761 113.895 155.865 113.843L158.665 112.523ZM157.659 101.756C157.763 101.715 157.752 101.632 157.649 101.58L155.429 100.197C155.325 100.145 155.159 100.135 155.066 100.177L152.359 101.32C152.266 101.361 152.193 101.476 152.297 101.528L154.537 102.962C154.651 103.014 154.817 103.024 154.921 102.983L157.659 101.756ZM155.999 117.615C156.103 117.574 156.093 117.491 155.989 117.428L153.697 116.004C153.583 115.942 153.407 115.942 153.313 115.984L124.76 128.964C124.646 129.016 124.553 129.151 124.677 129.213L127.135 130.772C127.249 130.835 127.446 130.845 127.561 130.783L155.999 117.615ZM155.325 110.216C155.429 110.164 155.419 110.091 155.315 110.029L153.054 108.626C152.94 108.563 152.774 108.553 152.67 108.605L149.901 109.821C149.797 109.862 149.714 109.987 149.828 110.05L152.12 111.504C152.235 111.556 152.401 111.567 152.504 111.515L155.325 110.216ZM154.91 106.599C155.004 106.558 155.004 106.474 154.89 106.412L152.649 105.02C152.535 104.968 152.369 104.957 152.276 104.999L149.517 106.183C149.414 106.225 149.331 106.35 149.445 106.402L151.726 107.846C151.83 107.909 152.006 107.919 152.1 107.867L154.91 106.599ZM154.713 114.31C154.817 114.258 154.807 114.175 154.693 114.123L152.411 112.7C152.307 112.648 152.131 112.637 152.038 112.679L149.227 113.936C149.123 113.988 149.051 114.103 149.154 114.165L151.477 115.63C151.581 115.693 151.757 115.703 151.861 115.651L154.713 114.31ZM153.79 103.409C153.884 103.367 153.884 103.284 153.77 103.222L151.54 101.839C151.436 101.777 151.27 101.767 151.166 101.808L148.418 102.972C148.314 103.014 148.242 103.138 148.345 103.19L150.617 104.625C150.72 104.687 150.897 104.697 150.99 104.656L153.79 103.409ZM151.353 111.972C151.446 111.931 151.446 111.847 151.332 111.785L149.051 110.372C148.947 110.309 148.77 110.299 148.667 110.351L145.846 111.588C145.742 111.64 145.669 111.754 145.773 111.816L148.086 113.282C148.2 113.344 148.376 113.344 148.48 113.302L151.353 111.972ZM150.949 108.314C151.052 108.272 151.052 108.189 150.938 108.127L148.677 106.724C148.563 106.662 148.397 106.651 148.293 106.693L145.483 107.909C145.389 107.95 145.306 108.075 145.42 108.127L147.713 109.592C147.827 109.644 147.993 109.655 148.096 109.603L150.949 108.314ZM150.689 116.119C150.793 116.077 150.783 115.994 150.679 115.932L148.376 114.498C148.262 114.446 148.086 114.435 147.982 114.477L145.13 115.765C145.026 115.807 144.943 115.932 145.057 115.994L147.391 117.47C147.505 117.532 147.681 117.543 147.785 117.491L150.689 116.119ZM149.849 105.082C149.942 105.04 149.942 104.957 149.828 104.905L147.578 103.502C147.474 103.44 147.298 103.429 147.204 103.471L144.404 104.656C144.3 104.708 144.217 104.822 144.331 104.874L146.613 106.329C146.727 106.381 146.893 106.391 146.997 106.35L149.849 105.082ZM147.298 113.77C147.401 113.718 147.401 113.635 147.287 113.573L144.985 112.149C144.871 112.086 144.694 112.076 144.601 112.128L141.718 113.386C141.614 113.437 141.531 113.562 141.645 113.614L143.979 115.1C144.093 115.152 144.269 115.163 144.373 115.121L147.298 113.77ZM146.924 110.06C147.028 110.008 147.028 109.935 146.914 109.873L144.632 108.449C144.518 108.397 144.352 108.387 144.248 108.428L141.386 109.665C141.282 109.707 141.199 109.831 141.313 109.883L143.637 111.359C143.74 111.421 143.917 111.421 144.02 111.38L146.924 110.06ZM146.592 117.969C146.707 117.917 146.696 117.834 146.582 117.782L144.259 116.327C144.145 116.275 143.968 116.264 143.865 116.306L140.961 117.615C140.857 117.667 140.774 117.792 140.888 117.844L143.242 119.351C143.357 119.403 143.533 119.413 143.637 119.361L146.592 117.969ZM145.835 106.786C145.939 106.745 145.929 106.662 145.815 106.61L143.543 105.196C143.439 105.134 143.263 105.123 143.159 105.165L140.318 106.381C140.214 106.423 140.131 106.537 140.245 106.599L142.548 108.065C142.662 108.117 142.828 108.127 142.931 108.075L145.835 106.786ZM143.18 115.589C143.284 115.547 143.274 115.454 143.159 115.402L140.847 113.957C140.732 113.895 140.556 113.884 140.452 113.936L137.517 115.225C137.414 115.267 137.331 115.391 137.445 115.454L139.799 116.95C139.913 117.013 140.089 117.013 140.193 116.971L143.18 115.589ZM142.838 111.837C142.942 111.785 142.931 111.712 142.817 111.65L140.515 110.216C140.401 110.153 140.224 110.143 140.121 110.195L137.217 111.453C137.113 111.494 137.03 111.619 137.134 111.681L139.478 113.157C139.592 113.219 139.768 113.23 139.872 113.178L142.838 111.837ZM142.423 119.85C142.537 119.798 142.527 119.715 142.413 119.652L140.069 118.197C139.955 118.135 139.778 118.125 139.675 118.176L136.708 119.507C136.605 119.559 136.522 119.683 136.636 119.746L139.011 121.253C139.125 121.315 139.301 121.315 139.415 121.263L142.423 119.85ZM141.749 108.532C141.853 108.48 141.842 108.397 141.739 108.345L139.446 106.921C139.332 106.859 139.156 106.849 139.052 106.89L136.148 108.127C136.045 108.168 135.962 108.283 136.076 108.345L138.409 109.821C138.513 109.883 138.689 109.894 138.793 109.842L141.749 108.532ZM138.98 117.449C139.083 117.397 139.083 117.314 138.969 117.252L136.625 115.797C136.511 115.734 136.335 115.734 136.221 115.776L133.244 117.085C133.13 117.137 133.047 117.262 133.161 117.324L135.536 118.831C135.65 118.894 135.837 118.904 135.941 118.852L138.98 117.449ZM138.658 113.645C138.772 113.604 138.762 113.51 138.648 113.458L136.325 112.003C136.21 111.951 136.034 111.941 135.93 111.983L132.964 113.271C132.86 113.313 132.767 113.437 132.881 113.5L135.246 114.996C135.36 115.048 135.536 115.059 135.64 115.017L138.658 113.645ZM138.181 121.762C138.285 121.71 138.285 121.627 138.171 121.564L135.806 120.099C135.692 120.037 135.505 120.026 135.401 120.078L132.383 121.429C132.269 121.481 132.186 121.606 132.3 121.668L134.707 123.196C134.821 123.258 134.997 123.258 135.111 123.206L138.181 121.762ZM137.59 110.299C137.694 110.247 137.694 110.174 137.58 110.112L135.267 108.667C135.153 108.615 134.976 108.605 134.873 108.647L131.917 109.904C131.813 109.946 131.73 110.07 131.834 110.122L134.188 111.619C134.302 111.671 134.478 111.681 134.582 111.64L137.59 110.299ZM134.707 119.34C134.81 119.288 134.81 119.205 134.696 119.143L132.321 117.667C132.207 117.615 132.031 117.605 131.917 117.657L128.888 118.987C128.774 119.039 128.681 119.164 128.795 119.226L131.201 120.754C131.315 120.816 131.502 120.816 131.605 120.764L134.707 119.34ZM134.416 115.485C134.52 115.443 134.52 115.36 134.406 115.298L132.051 113.832C131.937 113.78 131.761 113.77 131.657 113.812L128.639 115.121C128.525 115.163 128.442 115.287 128.556 115.35L130.931 116.867C131.045 116.919 131.232 116.929 131.346 116.877L134.416 115.485ZM133.856 123.716C133.97 123.664 133.96 123.57 133.846 123.518L131.46 122.032C131.346 121.97 131.16 121.959 131.045 122.011L127.975 123.394C127.861 123.446 127.768 123.57 127.892 123.633L130.309 125.171C130.433 125.233 130.61 125.233 130.724 125.191L133.856 123.716ZM133.358 112.097C133.462 112.055 133.462 111.972 133.348 111.91L131.014 110.455C130.9 110.403 130.724 110.392 130.61 110.434L127.602 111.712C127.498 111.754 127.405 111.879 127.519 111.941L129.894 113.448C130.008 113.5 130.185 113.51 130.299 113.469L133.358 112.097ZM130.351 121.263C130.454 121.222 130.454 121.128 130.34 121.066L127.955 119.579C127.83 119.528 127.654 119.517 127.54 119.569L124.439 120.931C124.335 120.972 124.242 121.107 124.356 121.17L126.783 122.708C126.897 122.77 127.083 122.77 127.198 122.718L130.351 121.263ZM130.091 117.366C130.195 117.314 130.195 117.231 130.081 117.168L127.706 115.693C127.592 115.641 127.415 115.63 127.301 115.672L124.231 117.002C124.117 117.054 124.024 117.179 124.138 117.241L126.544 118.769C126.658 118.831 126.845 118.831 126.959 118.779L130.091 117.366ZM129.448 125.701C129.562 125.649 129.552 125.566 129.438 125.503L127.032 123.996C126.907 123.934 126.731 123.934 126.617 123.986L123.485 125.389C123.37 125.441 123.277 125.576 123.391 125.638L125.839 127.187C125.953 127.249 126.15 127.249 126.264 127.197L129.448 125.701ZM129.044 113.936C129.158 113.884 129.147 113.801 129.033 113.749L126.679 112.274C126.565 112.222 126.389 112.211 126.274 112.253L123.215 113.552C123.101 113.604 123.007 113.728 123.122 113.791L125.517 115.308C125.631 115.36 125.818 115.371 125.922 115.329L129.044 113.936ZM126.254 131.323C126.368 131.271 126.368 131.178 126.243 131.115L123.796 129.598C123.682 129.536 123.485 129.525 123.37 129.577L120.176 131.042C120.052 131.094 119.958 131.24 120.083 131.302L122.561 132.872C122.686 132.934 122.873 132.944 122.997 132.882L126.254 131.323ZM125.911 123.227C126.026 123.175 126.015 123.092 125.901 123.03L123.495 121.533C123.37 121.471 123.184 121.461 123.07 121.512L119.917 122.905C119.803 122.947 119.709 123.082 119.834 123.144L122.271 124.693C122.396 124.755 122.582 124.765 122.696 124.713L125.911 123.227ZM125.683 119.278C125.797 119.226 125.787 119.143 125.673 119.081L123.287 117.595C123.163 117.532 122.976 117.522 122.873 117.574L119.74 118.925C119.626 118.977 119.533 119.101 119.647 119.164L122.074 120.702C122.188 120.764 122.375 120.775 122.489 120.723L125.683 119.278ZM124.957 127.727C125.071 127.675 125.071 127.582 124.947 127.519L122.52 126.002C122.396 125.95 122.209 125.94 122.095 125.992L118.9 127.426C118.786 127.478 118.693 127.613 118.807 127.675L121.275 129.245C121.4 129.307 121.587 129.307 121.711 129.255L124.957 127.727ZM124.657 115.807C124.76 115.755 124.76 115.672 124.646 115.61L122.271 114.134C122.157 114.071 121.97 114.061 121.856 114.113L118.734 115.433C118.62 115.485 118.527 115.61 118.651 115.672L121.058 117.2C121.172 117.262 121.358 117.272 121.472 117.22L124.657 115.807ZM121.659 133.433C121.784 133.381 121.773 133.287 121.659 133.225L119.191 131.687C119.066 131.624 118.869 131.624 118.755 131.676L115.488 133.173C115.374 133.225 115.281 133.36 115.395 133.422L117.905 135.012C118.029 135.075 118.216 135.085 118.34 135.023L121.659 133.433ZM121.389 125.233C121.504 125.181 121.493 125.088 121.379 125.025L118.952 123.508C118.828 123.456 118.641 123.446 118.527 123.497L115.312 124.911C115.187 124.963 115.094 125.098 115.218 125.16L117.687 126.73C117.801 126.782 117.998 126.792 118.112 126.74L121.389 125.233ZM121.192 121.222C121.306 121.18 121.306 121.086 121.182 121.024L118.776 119.528C118.651 119.465 118.465 119.455 118.351 119.507L115.156 120.879C115.042 120.931 114.949 121.066 115.063 121.128L117.51 122.687C117.635 122.739 117.822 122.749 117.936 122.697L121.192 121.222ZM120.383 129.795C120.498 129.733 120.497 129.639 120.373 129.588L117.915 128.049C117.801 127.997 117.604 127.987 117.49 128.039L114.233 129.504C114.119 129.546 114.015 129.691 114.14 129.754L116.629 131.333C116.753 131.396 116.95 131.406 117.065 131.344L120.383 129.795ZM120.176 117.709C120.29 117.657 120.29 117.574 120.176 117.511L117.77 116.025C117.656 115.963 117.469 115.952 117.355 115.994L114.181 117.345C114.057 117.397 113.963 117.522 114.088 117.584L116.515 119.133C116.639 119.195 116.826 119.195 116.94 119.153L120.176 117.709ZM116.982 135.584C117.106 135.532 117.096 135.439 116.982 135.376L114.482 133.817C114.368 133.755 114.171 133.755 114.046 133.807L110.717 135.335C110.603 135.387 110.499 135.522 110.624 135.594L113.154 137.205C113.279 137.257 113.476 137.268 113.59 137.205L116.982 135.584ZM116.774 127.27C116.899 127.218 116.888 127.124 116.774 127.062L114.316 125.534C114.202 125.472 114.005 125.472 113.891 125.514L110.613 126.958C110.489 127.01 110.396 127.145 110.51 127.208L113.009 128.798C113.123 128.86 113.32 128.86 113.434 128.808L116.774 127.27ZM116.619 123.206C116.733 123.165 116.733 123.071 116.608 123.009L114.171 121.492C114.057 121.429 113.86 121.429 113.746 121.481L110.499 122.884C110.375 122.926 110.281 123.061 110.396 123.123L112.874 124.693C112.988 124.755 113.186 124.765 113.3 124.713L116.619 123.206ZM115.716 131.895C115.83 131.843 115.83 131.749 115.706 131.687L113.227 130.138C113.113 130.076 112.916 130.076 112.791 130.128L109.483 131.614C109.358 131.666 109.255 131.812 109.379 131.874L111.899 133.474C112.014 133.537 112.211 133.537 112.335 133.485L115.716 131.895ZM115.623 119.652C115.737 119.6 115.737 119.517 115.612 119.455L113.196 117.948C113.071 117.885 112.885 117.875 112.771 117.927L109.524 119.299C109.41 119.351 109.317 119.476 109.431 119.538L111.889 121.097C112.014 121.159 112.2 121.17 112.314 121.118L115.623 119.652ZM112.211 137.777C112.335 137.725 112.335 137.631 112.211 137.569L109.69 136C109.566 135.937 109.369 135.927 109.244 135.989L105.853 137.538C105.728 137.59 105.625 137.735 105.749 137.798L108.311 139.429C108.435 139.492 108.632 139.492 108.757 139.429L112.211 137.777ZM112.076 129.348C112.2 129.297 112.2 129.203 112.076 129.141L109.597 127.592C109.472 127.53 109.286 127.53 109.161 127.582L105.822 129.047C105.697 129.099 105.594 129.245 105.718 129.307L108.238 130.907C108.352 130.97 108.549 130.97 108.674 130.918L112.076 129.348ZM111.951 125.233C112.076 125.181 112.065 125.088 111.951 125.025L109.493 123.497C109.369 123.435 109.172 123.435 109.058 123.487L105.739 124.911C105.625 124.963 105.521 125.098 105.635 125.16L108.135 126.75C108.259 126.813 108.456 126.823 108.57 126.761L111.951 125.233ZM110.976 121.627C111.09 121.575 111.09 121.492 110.976 121.429L108.529 119.902C108.404 119.839 108.218 119.839 108.093 119.881L104.795 121.284C104.67 121.336 104.567 121.471 104.691 121.533L107.17 123.113C107.294 123.165 107.492 123.175 107.606 123.123L110.976 121.627ZM110.956 134.036C111.08 133.984 111.08 133.89 110.956 133.828L108.456 132.269C108.332 132.206 108.135 132.196 108.01 132.258L104.629 133.776C104.504 133.828 104.401 133.973 104.525 134.036L107.066 135.646C107.191 135.709 107.388 135.719 107.512 135.657L110.956 134.036ZM107.284 131.469C107.409 131.406 107.409 131.313 107.284 131.261L104.785 129.691C104.66 129.639 104.463 129.629 104.339 129.681L100.937 131.178C100.812 131.24 100.708 131.375 100.833 131.437L103.374 133.059C103.498 133.121 103.696 133.121 103.82 133.069L107.284 131.469ZM107.201 127.301C107.315 127.239 107.315 127.156 107.201 127.093L104.712 125.545C104.587 125.482 104.401 125.472 104.276 125.524L100.895 126.989C100.771 127.041 100.667 127.176 100.791 127.239L103.312 128.839C103.426 128.902 103.633 128.912 103.758 128.86L107.201 127.301ZM106.237 123.643C106.361 123.591 106.361 123.497 106.237 123.446L103.768 121.907C103.644 121.845 103.457 121.835 103.333 121.887L99.9617 123.31C99.8373 123.362 99.7336 123.497 99.858 123.56L102.368 125.15C102.482 125.212 102.689 125.223 102.804 125.171L106.237 123.643ZM106.102 136.228C106.226 136.166 106.226 136.072 106.102 136.01L103.581 134.441C103.457 134.368 103.25 134.368 103.125 134.42L99.6817 135.969C99.5572 136.031 99.4432 136.176 99.5676 136.239L102.14 137.87C102.264 137.933 102.461 137.933 102.596 137.881L106.102 136.228ZM102.399 133.63C102.534 133.568 102.524 133.474 102.409 133.412L99.8788 131.843C99.7543 131.78 99.5469 131.77 99.4328 131.822L95.9479 133.36C95.8235 133.412 95.7198 133.557 95.8442 133.62L98.406 135.251C98.5305 135.314 98.7379 135.314 98.8623 135.262L102.399 133.63ZM102.347 129.4C102.472 129.348 102.472 129.255 102.347 129.193L99.8476 127.634C99.7232 127.571 99.5158 127.561 99.4017 127.613L95.9479 129.099C95.8235 129.151 95.7198 129.297 95.8442 129.359L98.3853 130.98C98.5097 131.042 98.7068 131.042 98.8416 130.991L102.347 129.4ZM101.414 125.701C101.538 125.649 101.538 125.555 101.414 125.493L98.9142 123.944C98.8001 123.882 98.5927 123.872 98.4786 123.924L95.0352 125.379C94.9108 125.43 94.8071 125.566 94.9315 125.628L97.4622 127.239C97.5866 127.301 97.7837 127.312 97.9082 127.249L101.414 125.701ZM97.4103 131.541C97.5348 131.489 97.5348 131.396 97.4103 131.333L94.8797 129.754C94.7552 129.691 94.5478 129.681 94.4233 129.743L90.9073 131.261C90.7829 131.313 90.6688 131.458 90.7932 131.521L93.3654 133.152C93.4899 133.215 93.6973 133.225 93.8217 133.163L97.4103 131.541ZM96.4873 127.8C96.6117 127.738 96.6117 127.644 96.4873 127.582L93.9773 126.023C93.8529 125.95 93.6454 125.95 93.521 126.002L90.0257 127.478C89.8909 127.54 89.7872 127.675 89.9117 127.738L92.4631 129.369C92.5875 129.432 92.795 129.432 92.9194 129.38L96.4873 127.8Z" fill="#707346"></path> <path d="M171.827 126.802L171.194 129.65L114.576 158.437L81.5214 130.824L80.4531 128.257L80.6502 128.008L80.7435 127.966L80.8369 128.205L114.659 155.777L171.827 126.802Z" fill="#707346"></path> <path d="M171.474 110.341C171.588 110.393 171.598 110.476 171.505 110.528L168.839 111.806C168.746 111.847 168.58 111.837 168.476 111.785L166.226 110.361C166.122 110.299 166.184 110.185 166.278 110.143L168.902 108.948C168.995 108.896 169.161 108.906 169.265 108.969L171.474 110.341Z" fill="#090909"></path> <path d="M170.074 107.192C170.177 107.244 170.188 107.327 170.094 107.368L167.439 108.626C167.346 108.667 167.18 108.657 167.076 108.605L164.836 107.181C164.732 107.129 164.805 107.015 164.898 106.973L167.512 105.799C167.605 105.747 167.761 105.757 167.875 105.82L170.074 107.192Z" fill="#090909"></path> <path d="M167.731 112.065C167.834 112.128 167.845 112.201 167.751 112.253L165.044 113.552C164.941 113.593 164.775 113.593 164.671 113.531L162.4 112.097C162.286 112.034 162.358 111.92 162.462 111.878L165.127 110.652C165.221 110.611 165.387 110.621 165.49 110.673L167.731 112.065Z" fill="#090909"></path> <path d="M166.817 104.936C166.931 104.999 166.931 105.071 166.838 105.113L164.162 106.36C164.069 106.402 163.903 106.391 163.799 106.339L161.559 104.916C161.455 104.864 161.527 104.749 161.621 104.708L164.255 103.544C164.349 103.502 164.514 103.513 164.618 103.565L166.817 104.936Z" fill="#090909"></path> <path d="M166.339 108.875C166.443 108.937 166.453 109.01 166.36 109.062L163.653 110.33C163.56 110.382 163.394 110.372 163.28 110.309L161.029 108.885C160.925 108.823 160.987 108.709 161.091 108.667L163.746 107.472C163.84 107.43 164.006 107.441 164.12 107.493L166.339 108.875Z" fill="#090909"></path> <path d="M165.531 125.223L140.317 137.922L131.491 131.635L157.14 119.725L165.531 125.223Z" fill="#090909"></path> <path d="M163.901 113.822C164.015 113.874 164.026 113.957 163.922 114.009L161.163 115.329C161.07 115.381 160.904 115.37 160.79 115.319L158.498 113.864C158.394 113.801 158.467 113.687 158.57 113.635L161.277 112.398C161.371 112.357 161.547 112.367 161.651 112.419L163.901 113.822Z" fill="#090909"></path> <path d="M163.061 106.61C163.164 106.662 163.175 106.745 163.071 106.786L160.354 108.044C160.25 108.096 160.084 108.085 159.98 108.023L157.73 106.599C157.616 106.537 157.688 106.423 157.792 106.381L160.468 105.196C160.561 105.155 160.727 105.165 160.841 105.227L163.061 106.61Z" fill="#090909"></path> <path d="M162.586 103.076C162.689 103.139 162.7 103.211 162.596 103.253L159.889 104.479C159.796 104.531 159.63 104.521 159.526 104.458L157.286 103.045C157.182 102.983 157.244 102.868 157.348 102.827L160.013 101.684C160.107 101.642 160.273 101.652 160.376 101.704L162.586 103.076Z" fill="#090909"></path> <path d="M162.522 110.59C162.637 110.652 162.647 110.735 162.543 110.777L159.795 112.076C159.691 112.117 159.525 112.117 159.421 112.055L157.14 110.611C157.036 110.559 157.109 110.434 157.202 110.392L159.909 109.176C160.013 109.135 160.179 109.145 160.282 109.197L162.522 110.59Z" fill="#090909"></path> <path d="M160.013 115.61C160.127 115.662 160.137 115.745 160.034 115.797L157.233 117.148C157.13 117.189 156.953 117.179 156.85 117.127L154.537 115.662C154.433 115.61 154.506 115.485 154.609 115.433L157.368 114.175C157.461 114.124 157.638 114.134 157.742 114.196L160.013 115.61Z" fill="#090909"></path> <path d="M159.215 108.304C159.329 108.356 159.34 108.439 159.236 108.48L156.467 109.769C156.363 109.811 156.197 109.8 156.083 109.748L153.812 108.304C153.708 108.252 153.78 108.127 153.874 108.085L156.601 106.89C156.705 106.838 156.871 106.849 156.975 106.911L159.215 108.304Z" fill="#090909"></path> <path d="M158.778 104.728C158.882 104.791 158.893 104.864 158.789 104.916L156.04 106.163C155.937 106.204 155.771 106.194 155.657 106.142L153.406 104.708C153.292 104.656 153.375 104.531 153.468 104.489L156.175 103.325C156.279 103.284 156.445 103.294 156.549 103.346L158.778 104.728Z" fill="#090909"></path> <path d="M158.644 112.346C158.758 112.398 158.758 112.481 158.665 112.523L155.865 113.843C155.761 113.895 155.595 113.884 155.481 113.832L153.189 112.377C153.075 112.315 153.147 112.19 153.251 112.149L156.01 110.912C156.103 110.871 156.279 110.881 156.383 110.933L158.644 112.346Z" fill="#090909"></path> <path d="M157.648 101.58C157.751 101.631 157.762 101.715 157.658 101.756L154.92 102.983C154.816 103.024 154.65 103.014 154.536 102.962L152.296 101.528C152.192 101.476 152.265 101.361 152.358 101.32L155.065 100.177C155.158 100.135 155.324 100.145 155.428 100.197L157.648 101.58Z" fill="#090909"></path> <path d="M155.988 117.428C156.092 117.49 156.102 117.574 155.999 117.615L127.56 130.783C127.446 130.845 127.249 130.835 127.134 130.772L124.676 129.213C124.552 129.151 124.645 129.016 124.759 128.964L153.312 115.984C153.406 115.942 153.582 115.942 153.696 116.004L155.988 117.428Z" fill="#090909"></path> <path d="M155.926 96.9133L155.657 97.1107L80.7428 127.966L80.6494 128.008C80.6494 128.008 61.8561 78.8198 59.2424 70.5058C57.0229 63.4285 61.1301 61.7656 63.6296 61.007C81.5206 55.6029 133.939 39.1618 133.939 39.1618C133.939 39.1618 139.622 36.9794 140.815 43.8281C142.008 50.6872 155.926 96.9133 155.926 96.9133ZM147.888 96.9133C152.535 94.8036 151.073 92.3197 151.073 92.3197C151.073 92.3197 139.425 48.7334 138.253 45.3974C137.092 42.0614 134.779 42.8928 134.779 42.8928L64.1586 65.1744C61.3271 66.0682 62.9658 69.7056 62.9658 69.7056C62.9658 69.7056 78.544 113.791 80.4524 118.145C82.3504 122.5 85.2025 120.806 85.2025 120.806C85.2025 120.806 143.232 99.0126 147.888 96.9133Z" fill="#707346"></path> <path d="M155.315 110.029C155.419 110.091 155.429 110.164 155.325 110.216L152.504 111.515C152.401 111.567 152.235 111.556 152.121 111.504L149.828 110.049C149.714 109.987 149.797 109.862 149.901 109.821L152.67 108.605C152.774 108.553 152.94 108.563 153.054 108.626L155.315 110.029Z" fill="#090909"></path> <path d="M154.89 106.412C155.004 106.474 155.004 106.558 154.91 106.599L152.1 107.867C152.006 107.919 151.83 107.909 151.726 107.846L149.445 106.402C149.331 106.35 149.413 106.225 149.517 106.183L152.276 104.999C152.369 104.957 152.535 104.967 152.649 105.019L154.89 106.412Z" fill="#090909"></path> <path d="M154.692 114.123C154.806 114.175 154.817 114.258 154.713 114.31L151.861 115.651C151.757 115.703 151.581 115.693 151.477 115.63L149.154 114.165C149.05 114.103 149.123 113.988 149.226 113.936L152.037 112.679C152.131 112.637 152.307 112.648 152.411 112.7L154.692 114.123Z" fill="#090909"></path> <path d="M153.77 103.221C153.884 103.284 153.884 103.367 153.79 103.408L150.99 104.656C150.897 104.697 150.72 104.687 150.617 104.624L148.345 103.19C148.242 103.138 148.314 103.014 148.418 102.972L151.166 101.808C151.27 101.766 151.436 101.777 151.54 101.839L153.77 103.221Z" fill="#090909"></path> <path d="M151.33 111.785C151.444 111.847 151.444 111.93 151.351 111.972L148.478 113.302C148.374 113.344 148.198 113.344 148.084 113.281L145.771 111.816C145.667 111.754 145.74 111.639 145.844 111.587L148.665 110.351C148.768 110.299 148.945 110.309 149.048 110.372L151.33 111.785Z" fill="#090909"></path> <path d="M151.074 92.3197C151.074 92.3197 152.536 94.8036 147.889 96.9132C143.233 99.0125 85.2035 120.806 85.2035 120.806C85.2035 120.806 82.3513 122.5 80.4533 118.145C78.5449 113.791 62.9668 69.7056 62.9668 69.7056C62.9668 69.7056 61.3281 66.0682 64.1595 65.1744L134.78 42.8928C134.78 42.8928 137.093 42.0614 138.254 45.3974C139.426 48.7334 151.074 92.3197 151.074 92.3197Z" fill="white"></path> <path d="M150.939 108.127C151.053 108.189 151.053 108.272 150.95 108.314L148.097 109.603C147.994 109.655 147.828 109.644 147.714 109.592L145.422 108.127C145.308 108.075 145.39 107.95 145.484 107.909L148.295 106.693C148.398 106.651 148.564 106.661 148.678 106.724L150.939 108.127Z" fill="#090909"></path> <path d="M150.678 115.932C150.782 115.994 150.792 116.077 150.689 116.119L147.785 117.491C147.681 117.543 147.505 117.532 147.391 117.47L145.057 115.994C144.943 115.932 145.026 115.807 145.13 115.765L147.982 114.477C148.085 114.435 148.262 114.446 148.376 114.498L150.678 115.932Z" fill="#090909"></path> <path d="M149.827 104.905C149.941 104.957 149.941 105.04 149.848 105.082L146.996 106.35C146.892 106.391 146.726 106.381 146.612 106.329L144.33 104.874C144.216 104.822 144.299 104.708 144.403 104.656L147.203 103.471C147.297 103.429 147.473 103.44 147.577 103.502L149.827 104.905Z" fill="#090909"></path> <path d="M147.287 113.573C147.401 113.635 147.401 113.718 147.297 113.77L144.373 115.121C144.269 115.163 144.093 115.152 143.978 115.1L141.645 113.614C141.531 113.562 141.614 113.437 141.717 113.385L144.601 112.128C144.694 112.076 144.87 112.086 144.984 112.149L147.287 113.573Z" fill="#090909"></path> <path d="M146.914 109.873C147.028 109.935 147.029 110.008 146.925 110.06L144.021 111.38C143.917 111.421 143.741 111.421 143.637 111.359L141.314 109.883C141.2 109.831 141.283 109.706 141.386 109.665L144.249 108.428C144.353 108.387 144.519 108.397 144.633 108.449L146.914 109.873Z" fill="#090909"></path> <path d="M146.58 117.782C146.694 117.834 146.704 117.917 146.59 117.969L143.634 119.361C143.531 119.413 143.354 119.403 143.24 119.351L140.886 117.844C140.772 117.792 140.855 117.667 140.959 117.615L143.863 116.306C143.966 116.264 144.143 116.275 144.257 116.327L146.58 117.782Z" fill="#090909"></path> <path d="M145.813 106.609C145.927 106.661 145.937 106.745 145.834 106.786L142.93 108.075C142.826 108.127 142.66 108.116 142.546 108.064L140.243 106.599C140.129 106.537 140.212 106.422 140.316 106.381L143.158 105.165C143.262 105.123 143.438 105.134 143.542 105.196L145.813 106.609Z" fill="#090909"></path> <path d="M143.16 115.402C143.274 115.454 143.285 115.547 143.181 115.589L140.194 116.971C140.09 117.012 139.914 117.012 139.8 116.95L137.446 115.454C137.331 115.391 137.414 115.266 137.518 115.225L140.453 113.936C140.557 113.884 140.733 113.895 140.847 113.957L143.16 115.402Z" fill="#090909"></path> <path d="M142.817 111.65C142.931 111.712 142.942 111.785 142.838 111.837L139.872 113.177C139.768 113.229 139.592 113.219 139.478 113.157L137.134 111.681C137.03 111.619 137.113 111.494 137.217 111.452L140.121 110.195C140.224 110.143 140.401 110.153 140.515 110.216L142.817 111.65Z" fill="#090909"></path> <path d="M142.412 119.652C142.526 119.715 142.536 119.798 142.422 119.85L139.415 121.263C139.301 121.315 139.124 121.315 139.01 121.253L136.635 119.746C136.521 119.683 136.604 119.559 136.708 119.507L139.674 118.176C139.778 118.124 139.954 118.135 140.068 118.197L142.412 119.652Z" fill="#090909"></path> <path d="M141.738 108.345C141.842 108.397 141.852 108.48 141.749 108.532L138.793 109.841C138.689 109.893 138.513 109.883 138.409 109.821L136.075 108.345C135.961 108.283 136.044 108.168 136.148 108.127L139.052 106.89C139.156 106.848 139.332 106.859 139.446 106.921L141.738 108.345Z" fill="#090909"></path> <path d="M138.969 117.251C139.083 117.314 139.083 117.397 138.979 117.449L135.941 118.852C135.837 118.904 135.65 118.893 135.536 118.831L133.161 117.324C133.047 117.262 133.13 117.137 133.244 117.085L136.221 115.776C136.335 115.734 136.511 115.734 136.625 115.796L138.969 117.251Z" fill="#090909"></path> <path d="M138.646 113.458C138.76 113.51 138.77 113.604 138.656 113.645L135.638 115.017C135.535 115.059 135.358 115.048 135.244 114.996L132.879 113.5C132.765 113.437 132.859 113.313 132.962 113.271L135.929 111.982C136.032 111.941 136.209 111.951 136.323 112.003L138.646 113.458Z" fill="#090909"></path> <path d="M138.171 121.564C138.285 121.627 138.285 121.71 138.181 121.762L135.111 123.206C134.997 123.258 134.821 123.258 134.707 123.196L132.301 121.668C132.187 121.606 132.27 121.481 132.384 121.429L135.402 120.078C135.505 120.026 135.692 120.036 135.806 120.099L138.171 121.564Z" fill="#090909"></path> <path d="M137.58 110.112C137.694 110.174 137.694 110.247 137.59 110.299L134.582 111.639C134.479 111.681 134.302 111.671 134.188 111.619L131.834 110.122C131.73 110.07 131.813 109.945 131.917 109.904L134.873 108.646C134.976 108.605 135.153 108.615 135.267 108.667L137.58 110.112Z" fill="#090909"></path> <path d="M134.697 119.143C134.811 119.205 134.811 119.288 134.707 119.34L131.606 120.764C131.502 120.816 131.315 120.816 131.201 120.754L128.795 119.226C128.681 119.164 128.774 119.039 128.888 118.987L131.917 117.657C132.031 117.605 132.207 117.615 132.321 117.667L134.697 119.143Z" fill="#090909"></path> <path d="M134.405 115.298C134.519 115.36 134.519 115.443 134.415 115.485L131.345 116.877C131.231 116.929 131.045 116.919 130.931 116.867L128.556 115.35C128.441 115.287 128.524 115.163 128.639 115.121L131.657 113.812C131.76 113.77 131.937 113.78 132.051 113.832L134.405 115.298Z" fill="#090909"></path> <path d="M133.844 123.518C133.958 123.57 133.968 123.664 133.854 123.716L130.722 125.192C130.608 125.233 130.431 125.233 130.307 125.171L127.89 123.633C127.766 123.57 127.859 123.446 127.973 123.394L131.043 122.012C131.157 121.96 131.344 121.97 131.458 122.032L133.844 123.518Z" fill="#090909"></path> <path d="M133.347 111.91C133.461 111.972 133.461 112.055 133.357 112.097L130.298 113.468C130.184 113.51 130.007 113.5 129.893 113.448L127.518 111.941C127.404 111.878 127.497 111.754 127.601 111.712L130.609 110.434C130.723 110.392 130.899 110.403 131.013 110.455L133.347 111.91Z" fill="#090909"></path> <path d="M130.34 121.066C130.454 121.128 130.454 121.221 130.351 121.263L127.198 122.718C127.084 122.77 126.897 122.77 126.783 122.708L124.356 121.17C124.242 121.107 124.335 120.972 124.439 120.93L127.54 119.569C127.654 119.517 127.83 119.528 127.955 119.579L130.34 121.066Z" fill="#090909"></path> <path d="M130.081 117.168C130.195 117.231 130.195 117.314 130.091 117.366L126.959 118.779C126.845 118.831 126.658 118.831 126.544 118.769L124.138 117.241C124.024 117.179 124.117 117.054 124.231 117.002L127.301 115.672C127.415 115.63 127.592 115.641 127.706 115.693L130.081 117.168Z" fill="#090909"></path> <path d="M129.438 125.503C129.553 125.566 129.563 125.649 129.449 125.701L126.265 127.197C126.151 127.249 125.954 127.249 125.839 127.187L123.392 125.638C123.278 125.576 123.371 125.441 123.485 125.389L126.617 123.986C126.731 123.934 126.908 123.934 127.032 123.996L129.438 125.503Z" fill="#090909"></path> <path d="M129.034 113.749C129.148 113.801 129.158 113.884 129.044 113.936L125.923 115.329C125.819 115.37 125.632 115.36 125.518 115.308L123.122 113.791C123.008 113.728 123.101 113.603 123.216 113.552L126.275 112.252C126.389 112.211 126.566 112.221 126.68 112.273L129.034 113.749Z" fill="#090909"></path> <path d="M126.243 131.115C126.367 131.177 126.367 131.271 126.253 131.323L122.997 132.882C122.872 132.944 122.685 132.934 122.561 132.871L120.082 131.302C119.958 131.24 120.051 131.094 120.176 131.042L123.37 129.577C123.484 129.525 123.681 129.535 123.795 129.598L126.243 131.115Z" fill="#090909"></path> <path d="M125.899 123.03C126.013 123.092 126.023 123.175 125.909 123.227L122.694 124.713C122.58 124.765 122.393 124.755 122.269 124.692L119.832 123.144C119.707 123.082 119.801 122.946 119.915 122.905L123.068 121.512C123.182 121.46 123.368 121.471 123.493 121.533L125.899 123.03Z" fill="#090909"></path> <path d="M125.673 119.08C125.787 119.143 125.797 119.226 125.683 119.278L122.488 120.723C122.374 120.774 122.188 120.764 122.074 120.702L119.647 119.164C119.533 119.101 119.626 118.977 119.74 118.925L122.872 117.574C122.976 117.522 123.163 117.532 123.287 117.594L125.673 119.08Z" fill="#090909"></path> <path d="M124.947 127.519C125.071 127.582 125.071 127.675 124.957 127.727L121.711 129.255C121.586 129.307 121.4 129.307 121.275 129.244L118.807 127.675C118.693 127.613 118.786 127.478 118.9 127.426L122.095 125.992C122.209 125.94 122.395 125.95 122.52 126.002L124.947 127.519Z" fill="#090909"></path> <path d="M124.645 115.609C124.759 115.672 124.759 115.755 124.655 115.807L121.471 117.22C121.357 117.272 121.17 117.262 121.056 117.199L118.65 115.672C118.526 115.609 118.619 115.485 118.733 115.433L121.855 114.113C121.969 114.061 122.156 114.071 122.27 114.134L124.645 115.609Z" fill="#090909"></path> <path d="M121.657 133.225C121.771 133.287 121.782 133.381 121.657 133.433L118.338 135.023C118.214 135.085 118.027 135.075 117.903 135.012L115.393 133.422C115.279 133.36 115.372 133.225 115.486 133.173L118.753 131.676C118.867 131.624 119.064 131.624 119.189 131.687L121.657 133.225Z" fill="#090909"></path> <path d="M121.378 125.025C121.492 125.087 121.502 125.181 121.388 125.233L118.111 126.74C117.997 126.792 117.8 126.781 117.685 126.73L115.217 125.16C115.093 125.098 115.186 124.963 115.31 124.911L118.526 123.497C118.64 123.445 118.826 123.456 118.951 123.508L121.378 125.025Z" fill="#090909"></path> <path d="M121.183 121.024C121.307 121.086 121.307 121.18 121.193 121.221L117.937 122.697C117.822 122.749 117.636 122.739 117.511 122.687L115.064 121.128C114.95 121.066 115.043 120.93 115.157 120.878L118.351 119.507C118.466 119.455 118.652 119.465 118.777 119.527L121.183 121.024Z" fill="#090909"></path> <path d="M120.372 129.587C120.496 129.639 120.496 129.733 120.382 129.795L117.063 131.344C116.949 131.406 116.752 131.396 116.628 131.333L114.139 129.754C114.014 129.691 114.118 129.546 114.232 129.504L117.489 128.039C117.603 127.987 117.8 127.997 117.914 128.049L120.372 129.587Z" fill="#090909"></path> <path d="M120.175 117.511C120.289 117.574 120.289 117.657 120.175 117.709L116.939 119.153C116.825 119.195 116.639 119.195 116.514 119.133L114.087 117.584C113.963 117.522 114.056 117.397 114.18 117.345L117.354 115.994C117.468 115.952 117.655 115.963 117.769 116.025L120.175 117.511Z" fill="#090909"></path> <path d="M116.98 135.376C117.094 135.438 117.104 135.532 116.98 135.584L113.588 137.205C113.474 137.267 113.277 137.257 113.153 137.205L110.622 135.594C110.497 135.521 110.601 135.386 110.715 135.334L114.045 133.807C114.169 133.755 114.366 133.755 114.48 133.817L116.98 135.376Z" fill="#090909"></path> <path d="M116.774 127.062C116.888 127.124 116.899 127.218 116.774 127.27L113.434 128.808C113.32 128.86 113.123 128.86 113.009 128.798L110.51 127.208C110.396 127.145 110.489 127.01 110.613 126.958L113.891 125.514C114.005 125.472 114.202 125.472 114.316 125.534L116.774 127.062Z" fill="#090909"></path> <path d="M116.608 123.009C116.732 123.071 116.732 123.165 116.618 123.206L113.299 124.713C113.185 124.765 112.988 124.755 112.874 124.693L110.395 123.123C110.281 123.061 110.375 122.926 110.499 122.884L113.745 121.481C113.859 121.429 114.057 121.429 114.171 121.492L116.608 123.009Z" fill="#090909"></path> <path d="M115.706 131.687C115.831 131.749 115.831 131.843 115.716 131.895L112.335 133.485C112.211 133.537 112.014 133.537 111.9 133.474L109.379 131.874C109.255 131.811 109.359 131.666 109.483 131.614L112.792 130.128C112.916 130.076 113.113 130.076 113.227 130.138L115.706 131.687Z" fill="#090909"></path> <path d="M115.612 119.455C115.737 119.517 115.737 119.6 115.623 119.652L112.314 121.118C112.2 121.17 112.013 121.159 111.889 121.097L109.431 119.538C109.317 119.476 109.41 119.351 109.524 119.299L112.77 117.927C112.885 117.875 113.071 117.885 113.196 117.948L115.612 119.455Z" fill="#090909"></path> <path d="M112.21 137.569C112.335 137.631 112.335 137.725 112.21 137.777L108.756 139.429C108.632 139.491 108.435 139.491 108.31 139.429L105.749 137.797C105.624 137.735 105.728 137.59 105.852 137.538L109.244 135.989C109.368 135.927 109.565 135.937 109.69 136L112.21 137.569Z" fill="#090909"></path> <path d="M112.075 129.141C112.2 129.203 112.2 129.297 112.075 129.349L108.673 130.918C108.549 130.97 108.352 130.97 108.238 130.907L105.717 129.307C105.593 129.245 105.697 129.099 105.821 129.047L109.161 127.582C109.285 127.53 109.472 127.53 109.596 127.592L112.075 129.141Z" fill="#090909"></path> <path d="M111.952 125.025C112.066 125.087 112.076 125.181 111.952 125.233L108.571 126.761C108.457 126.823 108.259 126.813 108.135 126.75L105.635 125.16C105.521 125.098 105.625 124.963 105.739 124.911L109.058 123.487C109.172 123.435 109.369 123.435 109.494 123.497L111.952 125.025Z" fill="#090909"></path> <path d="M110.976 121.429C111.09 121.492 111.09 121.575 110.976 121.627L107.605 123.123C107.491 123.175 107.294 123.165 107.17 123.113L104.691 121.533C104.566 121.471 104.67 121.336 104.795 121.284L108.093 119.881C108.217 119.839 108.404 119.839 108.528 119.902L110.976 121.429Z" fill="#090909"></path> <path d="M110.955 133.828C111.08 133.89 111.08 133.983 110.955 134.035L107.512 135.657C107.388 135.719 107.19 135.709 107.066 135.646L104.525 134.035C104.4 133.973 104.504 133.828 104.629 133.776L108.01 132.258C108.134 132.196 108.331 132.206 108.456 132.269L110.955 133.828Z" fill="#090909"></path> <path d="M107.285 131.261C107.409 131.313 107.409 131.406 107.285 131.469L103.821 133.069C103.696 133.121 103.499 133.121 103.375 133.059L100.834 131.437C100.709 131.375 100.813 131.24 100.937 131.178L104.339 129.681C104.464 129.629 104.661 129.639 104.785 129.691L107.285 131.261Z" fill="#090909"></path> <path d="M107.2 127.093C107.314 127.156 107.314 127.239 107.2 127.301L103.757 128.86C103.632 128.912 103.425 128.901 103.311 128.839L100.791 127.239C100.666 127.176 100.77 127.041 100.894 126.989L104.275 125.524C104.4 125.472 104.587 125.482 104.711 125.545L107.2 127.093Z" fill="#090909"></path> <path d="M106.235 123.445C106.36 123.497 106.36 123.591 106.235 123.643L102.803 125.171C102.688 125.223 102.481 125.212 102.367 125.15L99.857 123.56C99.7325 123.497 99.8362 123.362 99.9607 123.31L103.331 121.887C103.456 121.835 103.643 121.845 103.767 121.907L106.235 123.445Z" fill="#090909"></path> <path d="M106.103 136.01C106.227 136.072 106.227 136.166 106.103 136.228L102.597 137.881C102.462 137.933 102.265 137.933 102.141 137.87L99.5684 136.239C99.444 136.176 99.5581 136.031 99.6825 135.968L103.126 134.42C103.25 134.368 103.458 134.368 103.582 134.441L106.103 136.01Z" fill="#090909"></path> <path d="M102.409 133.412C102.524 133.474 102.534 133.568 102.399 133.63L98.8624 135.262C98.7379 135.314 98.5305 135.314 98.4061 135.251L95.8443 133.62C95.7198 133.557 95.8235 133.412 95.948 133.36L99.4328 131.822C99.5469 131.77 99.7544 131.78 99.8788 131.843L102.409 133.412Z" fill="#090909"></path> <path d="M102.347 129.193C102.472 129.255 102.472 129.348 102.347 129.4L98.8417 130.99C98.7068 131.042 98.5098 131.042 98.3853 130.98L95.8443 129.359C95.7198 129.296 95.8235 129.151 95.948 129.099L99.4017 127.613C99.5158 127.561 99.7232 127.571 99.8477 127.634L102.347 129.193Z" fill="#090909"></path> <path d="M101.414 125.493C101.539 125.555 101.539 125.649 101.414 125.701L97.9088 127.249C97.7844 127.312 97.5873 127.301 97.4628 127.239L94.9322 125.628C94.8077 125.566 94.9114 125.43 95.0359 125.378L98.4792 123.924C98.5933 123.872 98.8008 123.882 98.9149 123.944L101.414 125.493Z" fill="#090909"></path> <path d="M97.4111 131.333C97.5356 131.396 97.5356 131.489 97.4111 131.541L93.8225 133.163C93.6981 133.225 93.4906 133.215 93.3662 133.152L90.794 131.521C90.6696 131.458 90.7836 131.313 90.9081 131.261L94.4241 129.743C94.5485 129.681 94.756 129.691 94.8804 129.754L97.4111 131.333Z" fill="#090909"></path> <path d="M96.4869 127.582C96.6114 127.644 96.6114 127.738 96.4869 127.8L92.9191 129.38C92.7946 129.432 92.5872 129.432 92.4627 129.369L89.9113 127.738C89.7869 127.675 89.8906 127.54 90.0254 127.478L93.5206 126.002C93.6451 125.95 93.8525 125.95 93.977 126.023L96.4869 127.582Z" fill="#090909"></path> <path d="M179.531 92.3198L183.545 74.3511L204.765 78.4457L257.37 88.5785L294.842 95.8013L271.06 211.138L229.678 216.615L229.304 216.49L157.139 192.546L171.192 129.65L171.825 126.802L176.336 106.62L179.531 92.3198Z" stroke="black" stroke-width="1.92952" stroke-miterlimit="10" stroke-linecap="round" stroke-linejoin="round"></path> <path d="M229.523 215.825L257.371 88.5785" stroke="black" stroke-width="1.92952" stroke-miterlimit="10" stroke-linecap="round" stroke-linejoin="round"></path> <path d="M179.531 92.3197L201.094 96.9132L232.219 103.533" stroke="black" stroke-width="0.928321" stroke-miterlimit="10" stroke-linecap="round" stroke-linejoin="round"></path> <path d="M229.151 88.5785L250.548 92.881L248.712 101.465L227.066 96.6327L229.151 88.5785Z" stroke="black" stroke-width="0.928321" stroke-miterlimit="10" stroke-linecap="round" stroke-linejoin="round"></path> <path d="M183.245 87.1025L199.062 90.5529L196.085 94.0759L184.075 91.3947L183.245 87.1025Z" stroke="black" stroke-width="0.928321" stroke-miterlimit="10" stroke-linecap="round" stroke-linejoin="round"></path> <path d="M214.609 87.9446C216.061 88.3914 217.119 89.7425 217.119 91.3429C217.119 93.2967 215.542 94.8764 213.592 94.8764C212.711 94.8764 211.912 94.5542 211.29 94.0138C210.533 93.3799 210.056 92.4134 210.056 91.3429C210.056 89.3891 211.643 87.7991 213.592 87.7991C213.945 87.7991 214.287 87.851 214.609 87.9446Z" stroke="black" stroke-width="0.844772" stroke-miterlimit="10" stroke-linecap="round" stroke-linejoin="round"></path> <path d="M214.629 87.8612C216.88 87.8612 218.695 89.6903 218.695 91.9351C218.695 94.1903 216.88 96.009 214.629 96.009C213.188 96.009 211.912 95.2607 211.196 94.1175" stroke="black" stroke-width="0.973159" stroke-miterlimit="10" stroke-linecap="round" stroke-linejoin="round"></path> <path d="M204.767 78.4458L201.096 96.9134" stroke="black" stroke-width="0.928321" stroke-miterlimit="10" stroke-linecap="round" stroke-linejoin="round"></path> <path d="M208.396 161.035C206.239 163.644 203.76 165.722 201.136 167.208C198.678 168.601 196.085 169.464 193.523 169.734C188.804 170.233 184.179 168.715 180.569 164.787" stroke="black" stroke-width="0.928321" stroke-miterlimit="10" stroke-linecap="round" stroke-linejoin="round"></path> <path d="M214.296 113.926C218.476 125.046 217.875 141.393 213.591 152.202C212.253 155.579 210.469 158.541 208.405 161.035" stroke="black" stroke-width="0.928321" stroke-miterlimit="10" stroke-linecap="round" stroke-linejoin="round"></path> <path d="M182.902 108.615C187.196 103.159 193.772 99.3556 203.78 102.349C204.548 102.577 205.274 102.879 205.969 103.253C207.535 104.063 208.925 105.217 210.128 106.63C211.849 108.605 213.219 111.089 214.287 113.916" stroke="black" stroke-width="0.928321" stroke-miterlimit="10" stroke-linecap="round" stroke-linejoin="round"></path> <path d="M206.032 103.138C209.693 102.452 212.846 102.536 217.607 104.323C225.551 107.295 230.664 114.716 233.081 123.497C235.902 133.692 235.072 145.737 230.82 154.748C223.518 170.191 205.503 177.196 193.534 169.838" stroke="black" stroke-width="1.03591" stroke-miterlimit="10" stroke-linecap="round" stroke-linejoin="round"></path> <path d="M196.375 111.826C197.236 111.93 198.138 112.128 199.092 112.419C209.07 115.412 210.46 135.729 205.927 147.161C203.22 153.989 197.92 158.396 192.672 159.268C189.136 159.871 185.609 158.874 182.913 155.932C174.553 146.829 178.702 131.531 179.324 128.891C180.227 125.056 183.815 110.112 196.375 111.826Z" stroke="black" stroke-width="0.646947" stroke-miterlimit="10" stroke-linecap="round" stroke-linejoin="round"></path> <path d="M227.615 155.299C221.278 165.858 211.436 167.281 201.137 167.209" stroke="black" stroke-width="1.03591" stroke-miterlimit="10" stroke-linecap="round" stroke-linejoin="round"></path> <path d="M208.396 161.035C208.905 160.983 223.155 159.362 225.997 146.953C228.891 134.326 224.369 123.123 221.672 119.236C219.058 115.464 214.578 114.009 214.298 113.926C214.288 113.915 214.288 113.915 214.288 113.915" stroke="black" stroke-width="0.928321" stroke-miterlimit="10" stroke-linecap="round" stroke-linejoin="round"></path> <path d="M211.704 191.402L223.548 195.352C223.548 195.352 225.861 196.069 225.197 198.875C224.471 201.878 223.227 207.76 223.227 207.76C223.227 207.76 222.791 209.558 219.503 208.54C216.205 207.511 208.665 204.653 208.665 204.653C208.665 204.653 207.203 204.248 207.234 202.574C207.275 200.901 209.287 192.67 209.287 192.67C209.287 192.67 209.682 190.956 211.704 191.402Z" stroke="black" stroke-width="0.928321" stroke-miterlimit="10" stroke-linecap="round" stroke-linejoin="round"></path> <path d="M176.338 106.62L155.926 96.9133C155.926 96.9133 142.008 50.6872 140.815 43.8281C139.622 36.9794 133.939 39.1618 133.939 39.1618C133.939 39.1618 81.5206 55.6029 63.6296 61.007C61.1301 61.7656 57.0229 63.4285 59.2424 70.5058C61.8561 78.8198 80.6494 128.008 80.6494 128.008L80.7428 127.966L155.657 97.1107" stroke="black" stroke-width="0.928321" stroke-miterlimit="10" stroke-linecap="round" stroke-linejoin="round"></path> <path d="M80.835 128.205L114.657 155.777L171.825 126.802" stroke="black" stroke-width="0.928321" stroke-miterlimit="10" stroke-linecap="round" stroke-linejoin="round"></path> <path d="M131.491 131.635L157.14 119.725L165.531 125.223L140.317 137.922L131.491 131.635Z" stroke="black" stroke-width="0.928321" stroke-miterlimit="10" stroke-linecap="round" stroke-linejoin="round"></path> <path d="M151.074 92.3197C151.074 92.3197 152.536 94.8035 147.89 96.9132C145.152 98.1499 123.973 106.183 106.984 112.606" stroke="black" stroke-width="0.928321" stroke-miterlimit="10" stroke-linecap="round" stroke-linejoin="round"></path> <path d="M78.2649 112.429C73.4421 99.3659 62.9668 69.7056 62.9668 69.7056C62.9668 69.7056 61.3281 66.0682 64.1595 65.1744L134.78 42.8928C134.78 42.8928 137.093 42.0614 138.254 45.3974" stroke="black" stroke-width="0.928321" stroke-miterlimit="10" stroke-linecap="round" stroke-linejoin="round"></path> <path d="M118.53 175.805C119.454 176.075 119.951 177.187 119.63 178.279C119.308 179.37 118.292 180.035 117.369 179.754C116.446 179.484 115.948 178.383 116.28 177.281C116.591 176.2 117.607 175.535 118.53 175.805Z" fill="#090909"></path> <path d="M118.708 170.526C120.668 175.057 120.834 181.625 119.195 190.739C117.722 198.96 114.621 206.713 110.078 206.973C110.815 206.006 111.831 200.332 111.79 196.923C111.748 193.514 111.147 186.582 109.736 182.373C108.336 178.154 106.479 174.07 106.479 174.07C108.543 171.118 110.493 165.049 110.493 165.049C111.043 165.278 111.572 165.506 112.091 165.735C115.057 167.055 117.276 168.427 118.293 169.819C118.469 170.058 118.604 170.297 118.708 170.526ZM119.631 178.279C119.952 177.188 119.454 176.076 118.531 175.805C117.608 175.535 116.592 176.2 116.281 177.281C115.949 178.383 116.447 179.484 117.37 179.755C118.293 180.035 119.309 179.37 119.631 178.279ZM116.778 173.031C117.1 171.939 116.613 170.827 115.689 170.557C114.756 170.287 113.75 170.952 113.428 172.043C113.107 173.134 113.594 174.236 114.528 174.517C115.451 174.787 116.457 174.122 116.778 173.031ZM115.15 181.126C115.472 180.035 114.974 178.923 114.051 178.653C113.128 178.383 112.122 179.048 111.8 180.139C111.479 181.23 111.966 182.332 112.889 182.612C113.812 182.883 114.829 182.218 115.15 181.126ZM111.956 176.013C112.277 174.922 111.79 173.81 110.867 173.54C109.944 173.259 108.927 173.935 108.606 175.016C108.284 176.117 108.772 177.219 109.705 177.489C110.628 177.77 111.634 177.104 111.956 176.013Z" fill="#D23D20"></path> <path d="M116.372 166.774C118.457 168.219 118.291 169.819 118.291 169.819C117.275 168.427 115.055 167.055 112.089 165.735L112.172 165.538C112.172 165.538 114.288 165.34 116.372 166.774Z" fill="#090909"></path> <path d="M115.689 170.557C116.612 170.827 117.1 171.939 116.778 173.031C116.457 174.122 115.45 174.787 114.527 174.517C113.594 174.236 113.106 173.134 113.428 172.043C113.75 170.952 114.756 170.287 115.689 170.557Z" fill="#090909"></path> <path d="M114.051 178.653C114.974 178.923 115.472 180.035 115.15 181.126C114.829 182.218 113.812 182.883 112.889 182.613C111.966 182.332 111.479 181.23 111.8 180.139C112.122 179.048 113.128 178.383 114.051 178.653Z" fill="#090909"></path> <path d="M110.868 173.54C111.791 173.81 112.278 174.922 111.957 176.013C111.635 177.104 110.629 177.769 109.706 177.489C108.773 177.219 108.285 176.117 108.607 175.015C108.928 173.935 109.945 173.259 110.868 173.54Z" fill="#090909"></path> <path d="M111.79 196.923C111.832 200.332 110.816 206.006 110.079 206.973C109.996 206.983 109.913 206.983 109.83 206.983C109.426 206.983 109 206.921 108.565 206.785C103.192 205.206 106.045 191.727 102.912 190.646C102.912 190.646 79.597 183.423 78.8192 183.423C78.0724 183.423 74.2142 186.364 71.4138 189.627C68.6239 192.88 67.483 195.135 63.9463 194.273C63.7492 194.231 63.5418 194.159 63.3447 194.075C63.4796 193.961 65.9584 191.789 68.0949 189.305C70.2937 186.759 79.0058 175.94 81.1113 174.215C83.2167 172.48 87.3342 168.821 87.3342 168.821L87.5417 168.77C87.6869 169.435 87.8839 169.944 88.1432 170.193C92.0844 173.924 103.846 177.208 106.003 174.693C106.159 174.506 106.325 174.298 106.48 174.07C106.48 174.07 108.337 178.154 109.737 182.373C111.147 186.582 111.749 193.514 111.79 196.923ZM108.679 182.415C109.198 180.669 108.306 178.861 106.698 178.393C106.376 178.289 106.045 178.258 105.723 178.279L105.713 178.227C105.588 178.164 105.464 178.123 105.339 178.081C103.566 177.562 101.678 178.694 101.108 180.617C100.548 182.55 101.512 184.525 103.286 185.055C104.012 185.262 104.769 185.2 105.433 184.909C105.453 184.899 105.474 184.899 105.485 184.888L105.495 184.847C106.885 184.909 108.233 183.943 108.679 182.415ZM91.2547 177.011C91.7733 175.254 90.8813 173.457 89.2737 172.979C88.9522 172.885 88.6203 172.843 88.2884 172.875L88.278 172.812C88.164 172.75 88.0395 172.708 87.915 172.667C86.1415 172.147 84.2539 173.28 83.6834 175.213C83.113 177.136 84.0879 179.11 85.8615 179.64C86.5875 179.848 87.3342 179.786 88.0084 179.495C88.0291 179.495 88.0499 179.484 88.0602 179.474L88.0706 179.432C89.4604 179.505 90.8087 178.528 91.2547 177.011Z" fill="#D23D20"></path> <path d="M110.493 165.049C110.493 165.049 108.543 171.118 106.479 174.07C106.323 174.298 106.157 174.506 106.002 174.693C103.845 177.208 92.0832 173.924 88.142 170.193C87.8827 169.944 87.6856 169.435 87.5404 168.77C86.8663 165.475 87.5612 158.263 87.5612 158.263L87.613 158.065C87.7686 158.096 87.9242 158.138 88.0798 158.18C95.9933 160.269 104.436 162.586 110.493 165.049Z" fill="#090909"></path> <path d="M106.698 178.393C108.306 178.861 109.198 180.669 108.679 182.415C108.233 183.943 106.885 184.909 105.495 184.847C105.277 184.836 105.049 184.795 104.831 184.732C103.224 184.254 102.342 182.456 102.861 180.7C103.265 179.297 104.447 178.362 105.723 178.279C106.045 178.258 106.377 178.289 106.698 178.393ZM108.243 182.29C108.689 180.804 107.932 179.266 106.563 178.861C105.194 178.455 103.732 179.339 103.286 180.825C102.85 182.321 103.597 183.849 104.976 184.254C106.345 184.66 107.808 183.787 108.243 182.29Z" fill="#808080"></path> <path d="M106.564 178.861C107.933 179.266 108.69 180.804 108.244 182.29C107.808 183.787 106.346 184.66 104.977 184.255C103.597 183.849 102.851 182.322 103.286 180.825C103.732 179.339 105.195 178.455 106.564 178.861Z" fill="#808080"></path> <path d="M105.711 178.227L105.722 178.279C104.446 178.362 103.264 179.297 102.859 180.7C102.341 182.456 103.222 184.254 104.83 184.732C105.048 184.795 105.276 184.836 105.493 184.847L105.483 184.888C105.473 184.899 105.452 184.899 105.431 184.909C104.767 185.2 104.01 185.262 103.284 185.055C101.511 184.525 100.546 182.55 101.106 180.617C101.677 178.694 103.564 177.562 105.338 178.081C105.462 178.123 105.587 178.164 105.711 178.227Z" fill="#090909"></path> <path d="M89.2738 172.979C90.8814 173.457 91.7734 175.255 91.2548 177.011C90.8088 178.528 89.4605 179.505 88.0707 179.432C87.8529 179.422 87.6247 179.38 87.4069 179.318C85.7993 178.84 84.9177 177.042 85.426 175.286C85.8408 173.893 87.0128 172.947 88.2885 172.875C88.6204 172.843 88.9523 172.885 89.2738 172.979ZM90.8192 176.876C91.2548 175.39 90.508 173.852 89.139 173.446C87.7699 173.041 86.2972 173.924 85.8616 175.41C85.426 176.907 86.1727 178.445 87.5418 178.85C88.9212 179.256 90.3836 178.372 90.8192 176.876Z" fill="#808080"></path> <path d="M89.1379 173.446C90.5069 173.852 91.2537 175.39 90.8181 176.876C90.3825 178.372 88.9201 179.256 87.5406 178.85C86.1716 178.445 85.4248 176.907 85.8604 175.41C86.2961 173.924 87.7688 173.041 89.1379 173.446Z" fill="#808080"></path> <path d="M88.2771 172.812L88.2875 172.875C87.0118 172.947 85.8398 173.893 85.4249 175.286C84.9167 177.042 85.7983 178.84 87.4059 179.318C87.6237 179.38 87.8519 179.422 88.0697 179.432L88.0593 179.474C88.0489 179.484 88.0282 179.495 88.0075 179.495C87.3333 179.786 86.5865 179.848 85.8605 179.64C84.087 179.11 83.1121 177.136 83.6825 175.213C84.2529 173.28 86.1406 172.147 87.9141 172.667C88.0386 172.708 88.163 172.75 88.2771 172.812Z" fill="#090909"></path> <path d="M87.6137 158.065L87.5619 158.263C87.5619 158.263 86.867 165.475 87.5411 168.769L87.3337 168.821C87.3337 168.821 83.2162 172.48 81.1107 174.215C79.0053 175.94 70.2932 186.759 68.0944 189.305C65.9578 191.789 63.479 193.961 63.3442 194.075C60.212 192.745 58.5733 187.32 60.2224 182.56C61.9648 177.499 72.772 159.697 72.772 159.697C72.772 159.697 73.6951 158.658 75.9146 157.909C77.6881 157.307 80.2914 156.891 83.9111 157.348C85.0416 157.494 86.2758 157.722 87.6137 158.065ZM83.517 169.029C84.0874 168.811 84.803 166.462 84.606 166.099C84.3363 165.621 83.0606 165.35 82.6354 165.236C82.2205 165.122 80.2188 165.87 80.0528 166.442C79.8662 167.055 81.2145 168.489 81.5878 168.655C81.8056 168.749 82.9569 169.258 83.517 169.029ZM81.8575 163.791C81.9612 163.563 82.4591 162.42 82.2413 161.848C82.0131 161.287 79.6691 160.559 79.3061 160.767C78.8394 161.027 78.5697 162.305 78.4452 162.731C78.3312 163.158 79.0779 165.163 79.6484 165.33C80.2603 165.506 81.6916 164.166 81.8575 163.791ZM80.3432 169.31C80.4573 168.884 79.7106 166.878 79.1401 166.712C78.5282 166.535 77.0969 167.876 76.931 168.25C76.8273 168.479 76.3294 169.622 76.5472 170.193C76.7754 170.754 79.1194 171.482 79.472 171.274C79.9491 171.004 80.2292 169.736 80.3432 169.31ZM78.9327 165.776C79.109 165.163 77.7711 163.729 77.3873 163.563C77.1695 163.469 76.0183 162.97 75.4582 163.189C74.8982 163.407 74.1721 165.756 74.3796 166.119C74.6389 166.597 75.9146 166.868 76.3398 166.982C76.765 167.096 78.7668 166.358 78.9327 165.776Z" fill="#D23D20"></path> <path d="M84.6069 166.099C84.804 166.462 84.0883 168.811 83.5179 169.029C82.9578 169.258 81.8066 168.749 81.5888 168.655C81.2154 168.489 79.8671 167.055 80.0538 166.442C80.2197 165.87 82.2214 165.122 82.6363 165.236C83.0615 165.35 84.3372 165.621 84.6069 166.099Z" fill="#090909"></path> <path d="M83.9307 157.192L83.9099 157.348C80.2902 156.891 77.687 157.307 75.9134 157.909L75.8408 157.691C75.8408 157.691 77.5936 155.415 80.1243 155.613C82.6446 155.8 83.9307 157.192 83.9307 157.192Z" fill="#090909"></path> <path d="M82.2422 161.848C82.46 162.42 81.9622 163.563 81.8585 163.792C81.6925 164.166 80.2613 165.506 79.6493 165.33C79.0789 165.163 78.3321 163.158 78.4462 162.732C78.5707 162.306 78.8404 161.027 79.3071 160.767C79.6701 160.56 82.0141 161.287 82.2422 161.848Z" fill="#090909"></path> <path d="M79.1416 166.712C79.712 166.878 80.4588 168.884 80.3447 169.31C80.2306 169.736 79.9506 171.004 79.4735 171.274C79.1208 171.482 76.7769 170.755 76.5487 170.193C76.3309 169.622 76.8287 168.479 76.9324 168.25C77.0984 167.876 78.5297 166.535 79.1416 166.712Z" fill="#090909"></path> <path d="M77.3878 163.563C77.7715 163.729 79.1095 165.163 78.9331 165.776C78.7672 166.358 76.7655 167.096 76.3402 166.982C75.915 166.868 74.6393 166.598 74.38 166.119C74.1726 165.756 74.8986 163.407 75.4586 163.189C76.0187 162.971 77.17 163.469 77.3878 163.563Z" fill="#090909"></path> <path d="M71.4138 189.628C68.6239 192.88 67.483 195.136 63.9463 194.273C63.7492 194.231 63.5418 194.159 63.3447 194.076" stroke="black" stroke-width="0.582243" stroke-miterlimit="10" stroke-linecap="round" stroke-linejoin="round"></path> <path d="M72.7747 159.697C72.7747 159.697 73.6978 158.658 75.9173 157.909C77.6908 157.307 80.2941 156.891 83.9138 157.348C85.0443 157.494 86.2785 157.722 87.6164 158.065C87.772 158.096 87.9276 158.138 88.0832 158.179C95.9967 160.268 104.439 162.586 110.496 165.049C111.046 165.278 111.575 165.506 112.093 165.735C115.06 167.055 117.279 168.427 118.296 169.819C118.472 170.058 118.607 170.297 118.71 170.526C120.671 175.057 120.837 181.625 119.198 190.739C117.725 198.96 114.624 206.713 110.081 206.973C109.998 206.983 109.915 206.983 109.832 206.983C109.428 206.983 109.003 206.921 108.567 206.785C103.195 205.206 106.047 191.727 102.915 190.646C102.915 190.646 79.5992 183.423 78.8213 183.423C78.0746 183.423 74.2163 186.364 71.416 189.627" stroke="black" stroke-width="0.582243" stroke-miterlimit="10" stroke-linecap="round" stroke-linejoin="round"></path> <path d="M87.5612 158.263C87.5612 158.263 86.8663 165.475 87.5404 168.77C87.6856 169.435 87.8827 169.944 88.142 170.193C92.0832 173.924 103.845 177.208 106.002 174.693C106.157 174.506 106.323 174.299 106.479 174.07C108.543 171.118 110.493 165.049 110.493 165.049" stroke="black" stroke-width="0.582243" stroke-miterlimit="10" stroke-linecap="round" stroke-linejoin="round"></path> <path d="M87.3342 168.822C87.3342 168.822 83.2167 172.48 81.1113 174.215C79.0058 175.941 70.2937 186.759 68.0949 189.305C65.9584 191.789 63.4796 193.961 63.3447 194.076" stroke="black" stroke-width="0.582243" stroke-miterlimit="10" stroke-linecap="round" stroke-linejoin="round"></path> <path d="M106.48 174.07C106.48 174.07 108.337 178.154 109.737 182.373C111.148 186.582 111.749 193.514 111.791 196.923C111.832 200.332 110.816 206.006 110.079 206.973" stroke="black" stroke-width="0.582243" stroke-miterlimit="10" stroke-linecap="round" stroke-linejoin="round"></path> <path d="M81.8565 163.792C81.6906 164.166 80.2593 165.506 79.6474 165.33C79.0769 165.163 78.3302 163.158 78.4443 162.732C78.5687 162.306 78.8384 161.027 79.3051 160.767C79.6681 160.56 82.0121 161.287 82.2403 161.848C82.4581 162.42 81.9603 163.563 81.8565 163.792Z" stroke="black" stroke-width="0.280074" stroke-miterlimit="10" stroke-linecap="round" stroke-linejoin="round"></path> <path d="M83.5179 169.029C82.9578 169.258 81.8066 168.749 81.5888 168.655C81.2154 168.489 79.8671 167.055 80.0538 166.442C80.2197 165.87 82.2214 165.122 82.6363 165.236C83.0615 165.35 84.3372 165.621 84.6069 166.099C84.804 166.462 84.0883 168.811 83.5179 169.029Z" stroke="black" stroke-width="0.280074" stroke-miterlimit="10" stroke-linecap="round" stroke-linejoin="round"></path> <path d="M76.3402 166.982C75.915 166.868 74.6393 166.598 74.38 166.119C74.1726 165.756 74.8986 163.407 75.4586 163.189C76.0187 162.971 77.17 163.469 77.3878 163.563C77.7715 163.729 79.1095 165.163 78.9331 165.776C78.7672 166.358 76.7655 167.096 76.3402 166.982Z" stroke="black" stroke-width="0.280074" stroke-miterlimit="10" stroke-linecap="round" stroke-linejoin="round"></path> <path d="M79.4715 171.274C79.1189 171.482 76.7749 170.755 76.5467 170.193C76.3289 169.622 76.8268 168.479 76.9305 168.25C77.0964 167.876 78.5277 166.535 79.1396 166.712C79.7101 166.878 80.4568 168.884 80.3427 169.31C80.2287 169.736 79.9486 171.004 79.4715 171.274Z" stroke="black" stroke-width="0.280074" stroke-miterlimit="10" stroke-linecap="round" stroke-linejoin="round"></path> <path d="M116.781 173.031C116.459 174.122 115.453 174.787 114.53 174.517C113.597 174.236 113.109 173.134 113.431 172.043C113.752 170.952 114.758 170.287 115.692 170.557C116.615 170.827 117.102 171.939 116.781 173.031Z" stroke="black" stroke-width="0.280074" stroke-miterlimit="10" stroke-linecap="round" stroke-linejoin="round"></path> <path d="M119.632 178.279C119.31 179.37 118.294 180.035 117.371 179.754C116.448 179.484 115.95 178.383 116.282 177.281C116.593 176.2 117.609 175.535 118.532 175.805C119.455 176.075 119.953 177.187 119.632 178.279Z" stroke="black" stroke-width="0.280074" stroke-miterlimit="10" stroke-linecap="round" stroke-linejoin="round"></path> <path d="M115.15 181.126C114.829 182.218 113.812 182.883 112.889 182.613C111.966 182.332 111.479 181.23 111.8 180.139C112.122 179.048 113.128 178.383 114.051 178.653C114.974 178.923 115.472 180.035 115.15 181.126Z" stroke="black" stroke-width="0.280074" stroke-miterlimit="10" stroke-linecap="round" stroke-linejoin="round"></path> <path d="M111.955 176.013C111.633 177.104 110.627 177.77 109.704 177.489C108.771 177.219 108.283 176.117 108.605 175.016C108.926 173.935 109.943 173.259 110.866 173.54C111.789 173.81 112.276 174.922 111.955 176.013Z" stroke="black" stroke-width="0.280074" stroke-miterlimit="10" stroke-linecap="round" stroke-linejoin="round"></path> <path d="M88.2885 172.875C88.6204 172.843 88.9523 172.885 89.2738 172.979C90.8814 173.457 91.7734 175.255 91.2548 177.011C90.8088 178.528 89.4605 179.505 88.0707 179.432C87.8529 179.422 87.6247 179.38 87.4069 179.318C85.7993 178.84 84.9177 177.042 85.426 175.286C85.8408 173.893 87.0128 172.947 88.2885 172.875Z" stroke="black" stroke-width="0.280074" stroke-miterlimit="10" stroke-linecap="round" stroke-linejoin="round"></path> <path d="M90.8181 176.876C90.3825 178.372 88.9201 179.255 87.5406 178.85C86.1716 178.445 85.4248 176.907 85.8604 175.41C86.2961 173.924 87.7688 173.041 89.1379 173.446C90.5069 173.851 91.2537 175.389 90.8181 176.876Z" stroke="black" stroke-width="0.238486" stroke-miterlimit="10" stroke-linecap="round" stroke-linejoin="round"></path> <path d="M88.0613 179.474C88.0509 179.484 88.0301 179.495 88.0094 179.495C87.3352 179.786 86.5885 179.848 85.8625 179.64C84.0889 179.11 83.114 177.136 83.6844 175.213C84.2549 173.28 86.1425 172.147 87.9161 172.667C88.0405 172.708 88.165 172.75 88.2791 172.812" stroke="black" stroke-width="0.307646" stroke-miterlimit="10" stroke-linecap="round" stroke-linejoin="round"></path> <path d="M105.723 178.279C106.045 178.258 106.377 178.289 106.698 178.393C108.306 178.861 109.198 180.669 108.679 182.415C108.233 183.943 106.885 184.909 105.495 184.847C105.277 184.836 105.049 184.795 104.831 184.732C103.224 184.254 102.342 182.456 102.861 180.7C103.265 179.297 104.447 178.362 105.723 178.279Z" stroke="black" stroke-width="0.280074" stroke-miterlimit="10" stroke-linecap="round" stroke-linejoin="round"></path> <path d="M108.242 182.29C107.806 183.787 106.344 184.66 104.975 184.255C103.595 183.849 102.849 182.322 103.284 180.825C103.73 179.339 105.193 178.455 106.562 178.861C107.931 179.266 108.688 180.804 108.242 182.29Z" stroke="black" stroke-width="0.238486" stroke-miterlimit="10" stroke-linecap="round" stroke-linejoin="round"></path> <path d="M105.485 184.888C105.475 184.899 105.454 184.899 105.433 184.909C104.769 185.2 104.012 185.262 103.286 185.055C101.513 184.525 100.548 182.55 101.108 180.617C101.679 178.694 103.566 177.562 105.34 178.081C105.464 178.123 105.589 178.164 105.713 178.227" stroke="black" stroke-width="0.307646" stroke-miterlimit="10" stroke-linecap="round" stroke-linejoin="round"></path> <path d="M75.8428 157.691C75.8428 157.691 77.5956 155.415 80.1262 155.613C82.6465 155.8 83.9326 157.192 83.9326 157.192" stroke="black" stroke-width="0.238486" stroke-miterlimit="10" stroke-linecap="round" stroke-linejoin="round"></path> <path d="M112.175 165.538C112.175 165.538 114.291 165.34 116.375 166.774C118.46 168.219 118.294 169.819 118.294 169.819" stroke="black" stroke-width="0.238486" stroke-miterlimit="10" stroke-linecap="round" stroke-linejoin="round"></path> </svg> 