<?xml version="1.0" encoding="utf-8"?>
<!-- Generator: Adobe Illustrator 27.0.1, SVG Export Plug-In . SVG Version: 6.00 Build 0)  -->
<svg version="1.1" id="offer" xmlns="http://www.w3.org/2000/svg" xmlns:xlink="http://www.w3.org/1999/xlink" x="0px" y="0px"
	 viewBox="0 0 160 160" style="enable-background:new 0 0 160 160;" xml:space="preserve">
<style type="text/css">
	.st0{fill:#00C492;}
	.st1{fill:#2E302F;}
	.st2{display:none;}
	.st3{display:inline;fill:none;}
	.st4{display:inline;stroke:#FFFFFF;}
	.st5{font-family:'MyriadPro-Regular';}
	.st6{font-size:47.9663px;}
	.st7{display:none;enable-background:new    ;}
</style>
<g>
	<path class="st0" d="M5.5,62c1.4,0,2.1-0.7,2.9-1.7c0.9-1,2.1-2.3,4.4-2.3s3.4,1.3,4.4,2.3c0.9,0.9,1.5,1.7,2.9,1.7
		s2.1-0.7,2.9-1.7c0.9-1,2.1-2.3,4.4-2.3s3.4,1.3,4.4,2.3c0.9,0.9,1.5,1.7,2.9,1.7s2.1-0.7,2.9-1.7c0.9-1,2.1-2.3,4.4-2.3
		c2.3,0,3.4,1.3,4.4,2.3c0.9,0.9,1.5,1.7,2.9,1.7s2.1-0.7,2.9-1.7c0.9-1,2.1-2.3,4.4-2.3c2.3,0,3.4,1.3,4.4,2.3
		c0.9,0.9,1.5,1.7,2.9,1.7s2.1-0.7,2.9-1.7c0.9-1,2.1-2.3,4.4-2.3s3.4,1.3,4.4,2.3c0.9,0.9,1.5,1.7,2.9,1.7s2.1-0.7,2.9-1.7
		c0.9-1,2.1-2.3,4.4-2.3s3.4,1.3,4.4,2.3c0.9,0.9,1.5,1.7,2.9,1.7s2.1-0.7,2.9-1.7c0.9-1,2.1-2.3,4.4-2.3s3.4,1.3,4.4,2.3
		c0.9,0.9,1.5,1.7,2.9,1.7s2.1-0.7,2.9-1.7c0.9-1,2.1-2.3,4.4-2.3s3.4,1.3,4.4,2.3c0.9,0.9,1.5,1.7,2.9,1.7s2.1-0.7,2.9-1.7
		c0.9-1,2.1-2.3,4.4-2.3s3.4,1.3,4.4,2.3c0.9,0.9,1.5,1.7,2.9,1.7s2.1-0.7,2.9-1.7c0.9-1,2.1-2.3,4.4-2.3s3.4,1.3,4.4,2.3
		c0.9,0.9,1.5,1.7,2.9,1.7s1.8-0.7,2.7-1.7s2.7-2.1,3.7-2.3V39.9c0-8.8-6.7-15.9-15.4-15.9h-0.1H130v8.5c0,4.1-3.4,7.5-7.5,7.5
		s-7.5-3.4-7.5-7.5V24H45v8.5c0,4.1-3.4,7.5-7.5,7.5S30,36.6,30,32.5V24H18.4C9.6,24,2,31.1,2,39.9v20.4c1,0,0.3,0,0.3,0
		C3.1,61.3,4.1,62,5.5,62z"/>
	<path class="st1" d="M142.6,22H130V7.5c0-4.1-3.4-7.5-7.5-7.5S115,3.4,115,7.5V22H45V7.5C45,3.4,41.6,0,37.5,0S30,3.4,30,7.5V22
		H18.4c-0.4,0-1.1,0-1.5,0.1C7.6,22.7,0,30.4,0,39.9v102.2C0,152,8.5,160,18.4,160h124.2c9.9,0,17.4-8,17.4-17.9V39.9
		C160,30,152.5,22,142.6,22z M117,7.5c0-3,2.5-5.5,5.5-5.5s5.5,2.5,5.5,5.5v25c0,3-2.5,5.5-5.5,5.5s-5.5-2.5-5.5-5.5V7.5z M32,7.5
		c0-3,2.5-5.5,5.5-5.5S43,4.5,43,7.5v25c0,3-2.5,5.5-5.5,5.5S32,35.5,32,32.5V7.5z M158,142.1c0,8.8-6.6,15.9-15.4,15.9H18.4
		C9.6,158,2,150.9,2,142.1V63c1,0.5,1.9,1,3.2,1c2.3,0,3.6-1.3,4.5-2.3c0.9-0.9,1.6-1.7,3-1.7s2.1,0.7,2.9,1.7
		c0.9,1,2.1,2.3,4.4,2.3s3.5-1.3,4.4-2.3c0.9-0.9,1.5-1.7,2.9-1.7s2.1,0.7,2.9,1.7c0.9,1,2.1,2.3,4.4,2.3s3.4-1.3,4.4-2.3
		s1.6-1.7,3-1.7s2.1,0.7,2.9,1.7c0.9,1,2.1,2.3,4.4,2.3c2.3,0,3.4-1.3,4.4-2.3c0.9-0.9,1.5-1.7,2.9-1.7s2.1,0.7,2.9,1.7
		c0.9,1,2.1,2.3,4.4,2.3s3.4-1.3,4.4-2.3c0.9-0.9,1.5-1.7,2.9-1.7s2.1,0.7,2.9,1.7c0.9,1,2.1,2.3,4.4,2.3s3.4-1.3,4.4-2.3
		c0.9-0.9,1.5-1.7,2.9-1.7s2.1,0.7,2.9,1.7c0.9,1,2.1,2.3,4.4,2.3s3.4-1.3,4.4-2.3c0.9-0.9,1.5-1.7,2.9-1.7s2.1,0.7,2.9,1.7
		c0.9,1,2.1,2.3,4.4,2.3s3.4-1.3,4.4-2.3c0.9-0.9,1.5-1.7,2.9-1.7s2.1,0.7,2.9,1.7c0.9,1,2.1,2.3,4.4,2.3s3.4-1.3,4.4-2.3
		c0.9-0.9,1.5-1.7,2.9-1.7s2.1,0.7,2.9,1.7c0.9,1,2.1,2.3,4.4,2.3s3.4-1.3,4.4-2.3c0.9-0.9,1.5-1.7,2.9-1.7s2.1,0.7,2.9,1.7
		c0.9,1,2.1,2.3,4.4,2.3s3.2-1.3,4.1-2.3c0.8-0.8,1.2-1.5,2.2-1.6L158,142.1L158,142.1L158,142.1z M158,58c-1,0.2-2.8,1.3-3.7,2.3
		c-0.9,0.9-1.4,1.7-2.8,1.7c-1.4,0-2-0.7-2.9-1.7s-2.1-2.3-4.4-2.3c-2.3,0-3.4,1.3-4.4,2.3c-0.9,0.9-1.5,1.7-2.9,1.7
		s-2.1-0.7-2.9-1.7c-0.9-1-2.1-2.3-4.4-2.3c-2.3,0-3.4,1.3-4.4,2.3c-0.9,0.9-1.5,1.7-2.9,1.7s-2.1-0.7-2.9-1.7
		c-0.9-1-2.1-2.3-4.4-2.3s-3.4,1.3-4.4,2.3c-0.9,0.9-1.5,1.7-2.9,1.7s-2.1-0.7-2.9-1.7c-0.9-1-2.1-2.3-4.4-2.3S97,59.3,96,60.3
		c-0.9,0.9-1.5,1.7-2.9,1.7s-2.1-0.7-2.9-1.7c-0.9-1-2.1-2.3-4.4-2.3s-3.4,1.3-4.4,2.3c-0.8,1-1.4,1.7-2.8,1.7s-2.1-0.7-2.9-1.7
		c-0.9-1-2.1-2.3-4.4-2.3s-3.4,1.3-4.4,2.3c-0.9,1-1.6,1.7-3,1.7s-2.1-0.7-2.9-1.7c-0.9-1-2.1-2.3-4.4-2.3c-2.3,0-3.4,1.3-4.4,2.3
		c-0.9,0.9-1.5,1.7-2.9,1.7s-2.1-0.7-2.9-1.7c-0.9-1-2.1-2.3-4.4-2.3c-2.3,0-3.4,1.3-4.4,2.3c-0.9,0.9-1.5,1.7-2.9,1.7
		s-2.1-0.7-2.9-1.7c-0.9-1-2.1-2.3-4.4-2.3S24,59.3,23,60.3c-0.9,0.9-1.5,1.7-2.9,1.7s-2.1-0.7-2.9-1.7c-0.9-1-2.1-2.3-4.4-2.3
		s-3.4,1.3-4.4,2.3c-0.9,1-1.6,1.7-2.9,1.7c-1.4,0-2.3-0.7-3.2-1.7c0,0,0.7,0-0.3,0V39.9C2,31.1,9.6,24,18.4,24H30v8.5
		c0,4.1,3.4,7.5,7.5,7.5s7.5-3.4,7.5-7.5V24h70v8.5c0,4.1,3.4,7.5,7.5,7.5s7.5-3.4,7.5-7.5V24h12.6c8.8,0,15.4,7.1,15.4,15.9V58z"/>
</g>
<g class="st2">
	<path class="st3" d="M97.1,98.5v24.8h-4.3V102h-8.2v6.3c0,7-0.6,11.6-3.7,13.7c-1.2,1-2.5,1.5-4.7,1.5l-0.4-3.5
		c0.8-0.2,1.8-0.5,2.4-1c2.2-1.7,2.5-5.2,2.5-10.7v-9.9L97.1,98.5L97.1,98.5z"/>
	<path class="st4" d="M106.6,111.7c0.1,6.1,3.8,8.6,8.2,8.6c3.1,0,5-0.6,6.6-1.3l0.8,3.2c-1.5,0.7-4.2,1.6-8,1.6
		c-7.3,0-11.7-5.1-11.7-12.5S106.7,98,113.7,98c7.8,0,9.9,7.1,9.9,11.6c0,0.9,0,1.6-0.1,2.1L106.6,111.7L106.6,111.7z M119.3,108.4
		c0-2.8-1.1-7.3-6-7.3c-4.4,0-6.3,4.1-6.7,7.3H119.3z"/>
	<path class="st3" d="M144.8,98.5v3.5h-7.4v21.2H133V102h-7.4v-3.5H144.8z"/>
</g>
<text transform="matrix(0.8738 0 0 1 17.334 123.0375)" class="st5 st6">21 </text>
<text transform="matrix(0.98 0 0 1 69.2207 123.0375)" class="st5 st6">год</text>
<text transform="matrix(0.8738 0 0 1 48.8381 94.4403)" class="st7 st5 st6">год</text>
</svg>
